<svg xmlns="http://www.w3.org/2000/svg" viewBox="0 0 374.21 428.45"><defs><style>.cls-1{fill:#d1d0f4;}.cls-2{fill:#b1abde;}.cls-3{opacity:0.4;}.cls-4{fill:#a9b7de;}.cls-5{fill:#ff6665;}.cls-6{fill:#cf3736;}.cls-7{fill:#222943;}.cls-8{fill:#41577e;}.cls-9{fill:#14b74e;}.cls-10{fill:#057f42;}.cls-11{fill:#fff;}.cls-12{fill:#0958d1;}.cls-13{fill:#092ba4;}.cls-14{fill:#d23e3c;}.cls-15{fill:#0980f7;}.cls-16{fill:#ffb900;}.cls-17{fill:#eb8500;}.cls-18{fill:#fbfffd;}.cls-19{fill:#09b900;}</style></defs><title>6585186</title><g id="OBJECTS"><rect class="cls-1" x="230.18" width="84.9" height="50.87" rx="4.21"/><path class="cls-2" d="M869.68,68.34H849.79a2,2,0,0,1-1.95-1.94V35.53a2,2,0,0,1,1.95-1.94h19.89a2,2,0,0,1,2,1.94V66.4A2,2,0,0,1,869.68,68.34ZM849.79,34.79a.75.75,0,0,0-.75.74V66.4a.75.75,0,0,0,.75.74h19.89a.75.75,0,0,0,.75-.74V35.53a.75.75,0,0,0-.75-.74Z" transform="translate(-562.47 -25.53)"/><path class="cls-2" d="M840.74,34.19H803.28a1.45,1.45,0,0,0-1.45,1.45h0a1.45,1.45,0,0,0,1.45,1.45h37.46a1.45,1.45,0,0,0,1.46-1.45h0A1.45,1.45,0,0,0,840.74,34.19Z" transform="translate(-562.47 -25.53)"/><path class="cls-2" d="M840.74,44.41H803.28a1.44,1.44,0,0,0-1.45,1.45h0a1.45,1.45,0,0,0,1.45,1.45h37.46a1.45,1.45,0,0,0,1.46-1.45h0A1.45,1.45,0,0,0,840.74,44.41Z" transform="translate(-562.47 -25.53)"/><path class="cls-2" d="M840.74,54.62H803.28a1.45,1.45,0,0,0-1.45,1.45h0a1.45,1.45,0,0,0,1.45,1.46h37.46a1.46,1.46,0,0,0,1.46-1.46h0A1.45,1.45,0,0,0,840.74,54.62Z" transform="translate(-562.47 -25.53)"/><path class="cls-2" d="M840.74,64.84H803.28a1.45,1.45,0,0,0-1.45,1.45h0a1.45,1.45,0,0,0,1.45,1.45h37.46a1.45,1.45,0,0,0,1.46-1.45h0A1.45,1.45,0,0,0,840.74,64.84Z" transform="translate(-562.47 -25.53)"/><ellipse class="cls-1" cx="199.64" cy="421.06" rx="144.65" ry="7.39"/><g class="cls-3"><path class="cls-1" d="M730.82,98s-59.38.68-69.82,44.23c-9.77,40.77,26.69,62.21-16.77,91.24S624,366,705.66,343.28s71.48-81.15,132.18-87.06C928.47,247.4,907.86,89.27,730.82,98Z" transform="translate(-562.47 -25.53)"/></g><path class="cls-4" d="M874.48,143.52c4.77,3.89,8.29,9.11,11.08,14.54a92.8,92.8,0,0,1,7.07,19.05q1.44,5.52,2.33,11.16c.07.46.77.26.7-.2A112.07,112.07,0,0,0,890.6,168a71.12,71.12,0,0,0-8.88-17.7A37.91,37.91,0,0,0,875,143c-.36-.29-.87.22-.51.51Z" transform="translate(-562.47 -25.53)"/><path class="cls-4" d="M620.75,258.27a69,69,0,0,0-2.19,35.5,67.8,67.8,0,0,0,2.8,9.88c.16.44.85.23.69-.21A68.27,68.27,0,0,1,619,268.12a67.37,67.37,0,0,1,2.48-9.68c.15-.44-.56-.61-.7-.17Z" transform="translate(-562.47 -25.53)"/><path class="cls-4" d="M742.71,93.48A193,193,0,0,1,787.46,97c.37.07.53-.5.15-.58a193.87,193.87,0,0,0-44.91-3.54.3.3,0,0,0,0,.6Z" transform="translate(-562.47 -25.53)"/><path class="cls-5" d="M809.89,60.11s2.36-7.8,3.86-8.76,2.27-.45,4.62-2.44,1.76,1.65.94,2.62-2.4.71-3.83,3.26c-.46.81-.83,1.56-1.12,2.2a6.79,6.79,0,0,1,3.87-3.42c3.44-1,3.81-.31,5.09.89a.85.85,0,0,1,.09,1.36,1.53,1.53,0,0,1-1.74.31,2.58,2.58,0,0,0-2.74.35c-1.81,1.36-1.47,2.69-1.47,2.69a6.69,6.69,0,0,1,2.7-2.08A3.73,3.73,0,0,1,824,58.23c1.06,1.11.68,2.64-1.68,1.42-1.46-.75-1.5-.22-2.43,1.2.24-.31,1-1,2.37-.1,1.73,1.13,1.49,2.12.82,3.71s-1.62,1.74-1.9.63a2.66,2.66,0,0,1-.09-1.49,17.62,17.62,0,0,0-2.25,4.91c-.88,3-6,6.87-10.79,3.91a5.46,5.46,0,0,1-3.53-4.68c-1-3.62,1.31-6.11,2-7.18,1.1-1.63.39-4.62,1-6.12s2.39,1.26,2.45,3.22A9.48,9.48,0,0,1,809.89,60.11Z" transform="translate(-562.47 -25.53)"/><path class="cls-5" d="M750.11,103.15s34.39-.31,38-.32S807.32,69.3,807.32,69.3l6.17,2.84s-7.4,39.76-15.9,47.44-40,4.46-40,4.46S746.31,113.6,750.11,103.15Z" transform="translate(-562.47 -25.53)"/><path class="cls-6" d="M814.54,63a10.25,10.25,0,0,1-7,7.84c-.31.1-.18.58.13.49a10.74,10.74,0,0,0,7.4-8.2c.06-.31-.42-.45-.48-.13Z" transform="translate(-562.47 -25.53)"/><path class="cls-6" d="M811.69,60.69a20.79,20.79,0,0,1,6.87,4.78c.22.24.58-.12.36-.35a21.16,21.16,0,0,0-7-4.86c-.29-.13-.55.3-.25.43Z" transform="translate(-562.47 -25.53)"/><path class="cls-6" d="M788.52,103.32a9.85,9.85,0,0,1,4.17,4.44c.17.35.69,0,.52-.3a10.36,10.36,0,0,0-4.39-4.66c-.34-.18-.64.33-.3.52Z" transform="translate(-562.47 -25.53)"/><path class="cls-6" d="M790.58,104.68a4.36,4.36,0,0,1,3.71,1.37c.26.28.69-.14.42-.42a4.9,4.9,0,0,0-4.13-1.55c-.39,0-.39.64,0,.6Z" transform="translate(-562.47 -25.53)"/><path class="cls-7" d="M678.92,112.51c4.05,2.23,6.13,5.83,9.64,8.79s5.46,5.92,9.8,7.19a38.73,38.73,0,0,0,8.26,1.5c9.15-9.22,14.93-32.13,13.76-41.31-1.21-9.61-16.87-34.89-16.87-34.89A25.67,25.67,0,0,0,688.84,73.4c-2.26,14.74,4.25,21-7.93,25.51A22.64,22.64,0,0,0,668,110.6C670.72,110.66,676.36,111.1,678.92,112.51Z" transform="translate(-562.47 -25.53)"/><path class="cls-7" d="M746.42,170.48a65.13,65.13,0,0,1-13.74-.68c-2.81-.49-6.58-1.25-8.58-3.46-.82,3-1.65,5.86-2.33,8.14-.08.26-.16.51-.23.75-.81,2.7-1.37,4.44-1.37,4.44a175.63,175.63,0,0,0,20.45-.94c3-.31,6-.71,9-1.18s5.71-1,8.54-1.57,5.79-1.3,8.67-2.06q3.36-.88,6.7-1.92a76,76,0,0,1-2.89-7.45C763.7,169,754.33,170.2,746.42,170.48Z" transform="translate(-562.47 -25.53)"/><path class="cls-7" d="M772.55,169.8s-21.22,10.78-48.33,4c0,0-11.49,12.07-6.21,25.9,7.23,18.94,49.22,18.28,61.4,1.2C784.85,193.28,772.55,169.8,772.55,169.8Z" transform="translate(-562.47 -25.53)"/><path class="cls-8" d="M772.25,171.34c-1.77.94-3.58,1.81-5.43,2.58a61.51,61.51,0,0,1-6.06,2.17,64.2,64.2,0,0,1-20.14,2.64,63.43,63.43,0,0,1-19.08-3.5c.07-.24.15-.49.23-.75a62.71,62.71,0,0,0,27.84,3.07,63.79,63.79,0,0,0,8.54-1.57,60.89,60.89,0,0,0,13.66-5.3C772.26,170.44,772.69,171.1,772.25,171.34Z" transform="translate(-562.47 -25.53)"/><path class="cls-8" d="M765.68,167.52a13.88,13.88,0,0,1,1.68,5.25c0,.5.84.46.79,0a14.83,14.83,0,0,0-1.82-5.65c-.24-.44-.9,0-.65.44Z" transform="translate(-562.47 -25.53)"/><path class="cls-8" d="M727.73,168.75a23.38,23.38,0,0,0-1.59,7.1c0,.5.75.45.79,0a22,22,0,0,1,1.5-6.69c.19-.47-.51-.83-.7-.36Z" transform="translate(-562.47 -25.53)"/><path class="cls-8" d="M742.08,171.06a17.49,17.49,0,0,0-.61,6.63c0,.51.83.47.78,0a17,17,0,0,1,.6-6.42c.14-.49-.63-.66-.77-.17Z" transform="translate(-562.47 -25.53)"/><path class="cls-8" d="M754.79,172.81a1.95,1.95,0,1,0,1.84-2.06A2,2,0,0,0,754.79,172.81Z" transform="translate(-562.47 -25.53)"/><polygon class="cls-5" points="146.98 333.39 119.74 340.87 118.99 352.35 154.12 348.41 146.98 333.39"/><path class="cls-9" d="M678.13,406.49l-7.58-40.31a18.41,18.41,0,0,1,1.88-.44c.28-.05.56-.08.84-.14,5.51-1.14,17.09-3.21,15.86-.36-3.92,3.3-.86,9.44-.86,9.44s6.05,3,5,6.08-4.73.49-6.79,4.52c-1.58,3.09.25,6.25.24,10.38a12.5,12.5,0,0,1-.68,4.09,9.83,9.83,0,0,1-5.2,6A9,9,0,0,1,678.13,406.49Z" transform="translate(-562.47 -25.53)"/><path class="cls-10" d="M687.49,383.11c-2.78-1.06-4.68,1-5,3.6-.38,3,.85,6.16,3.88,7.17.26.09.37-.32.11-.41-2.58-.86-3.74-3.43-3.62-6,0-1.23.32-2.85,1.39-3.63a3.48,3.48,0,0,1,3.14-.3c.25.1.36-.31.11-.41Z" transform="translate(-562.47 -25.53)"/><path class="cls-11" d="M683.43,364.19a8.17,8.17,0,0,1-6.4,7.14c-.4.09-.52-.54-.12-.63a7.52,7.52,0,0,0,5.88-6.57.32.32,0,0,1,.64.06Z" transform="translate(-562.47 -25.53)"/><path class="cls-11" d="M678.13,406.49l-7.58-40.31a18.41,18.41,0,0,1,1.88-.44l.84-.16,7.53,40.13A9,9,0,0,1,678.13,406.49Z" transform="translate(-562.47 -25.53)"/><path class="cls-11" d="M677.17,387.53s3.79-7,2.5-12.7-6.56-9.13-6.56-9.13Z" transform="translate(-562.47 -25.53)"/><path class="cls-7" d="M811.07,326.93a8.44,8.44,0,0,1-.31.88c-1.27,3.15-4.7,6.8-9.56,10.72-25.12,20.23-88.39,47.36-88.39,47.36l-17.46-35.2s66.91-29.64,71.92-37.56S742.6,210.77,742.6,210.77l37.9-19C790.23,217.55,815.85,309.92,811.07,326.93Z" transform="translate(-562.47 -25.53)"/><path class="cls-5" d="M810.76,327.81c-1.27,3.15-4.7,6.8-9.56,10.72-2.7-2.84-7.4-8.4-3.27-12.78C801.54,321.94,807.16,324.58,810.76,327.81Z" transform="translate(-562.47 -25.53)"/><path class="cls-8" d="M759,210.49a1.35,1.35,0,0,1-.4,0,.42.42,0,0,1-.33-.5.43.43,0,0,1,.51-.33,1.67,1.67,0,0,0,1.3-.36,4.38,4.38,0,0,0,1.18-3.3c.2-4.55-2.94-14.48-3-14.58a.43.43,0,0,1,.28-.54.43.43,0,0,1,.53.28c.13.41,3.22,10.18,3,14.87-.08,1.91-.6,3.24-1.52,4A2.63,2.63,0,0,1,759,210.49Z" transform="translate(-562.47 -25.53)"/><path class="cls-8" d="M784.61,205.66h0c-14.31-.66-13.82-22.67-13.81-22.89a.41.41,0,0,1,.42-.41h0a.42.42,0,0,1,.41.44c0,.21-.47,21.39,13,22a.43.43,0,0,1,0,.85Z" transform="translate(-562.47 -25.53)"/><path class="cls-8" d="M706.34,351.88a.44.44,0,0,1,.24-.57l.66-.27a.44.44,0,0,1,.57.24.43.43,0,0,1-.24.57l-.66.27a.45.45,0,0,1-.16,0A.44.44,0,0,1,706.34,351.88Zm3.3-1.37a.44.44,0,0,1,.23-.58l2.63-1.14a.44.44,0,0,1,.58.23.45.45,0,0,1-.23.58l-2.63,1.14a.59.59,0,0,1-.17,0A.43.43,0,0,1,709.64,350.51Zm5.25-2.3a.44.44,0,0,1,.22-.58l2.61-1.18a.43.43,0,0,1,.58.21.45.45,0,0,1-.22.59l-2.61,1.18a.39.39,0,0,1-.18,0A.44.44,0,0,1,714.89,348.21Zm5.21-2.38a.44.44,0,0,1,.22-.58l2.6-1.21a.44.44,0,0,1,.37.8l-2.6,1.21a.41.41,0,0,1-.19,0A.44.44,0,0,1,720.1,345.83Zm5.2-2.42a.43.43,0,0,1,.21-.58l2.59-1.23a.44.44,0,0,1,.58.21.45.45,0,0,1-.2.59l-2.6,1.22a.39.39,0,0,1-.18,0A.43.43,0,0,1,725.3,343.41Zm5.18-2.45a.43.43,0,0,1,.2-.59l2.59-1.24a.44.44,0,0,1,.58.21.42.42,0,0,1-.2.58c-.85.41-1.71.83-2.59,1.24a.41.41,0,0,1-.19,0A.44.44,0,0,1,730.48,341Zm5.16-2.49a.44.44,0,0,1,.21-.58l2.57-1.25a.44.44,0,1,1,.39.79l-2.58,1.25a.43.43,0,0,1-.19,0A.44.44,0,0,1,735.64,338.47Zm5.16-2.5a.44.44,0,0,1,.2-.59l2.57-1.26a.44.44,0,0,1,.39.79l-2.58,1.26a.41.41,0,0,1-.19.05A.44.44,0,0,1,740.8,336Zm5.14-2.53a.44.44,0,0,1,.2-.59l2.58-1.28a.45.45,0,0,1,.59.2.44.44,0,0,1-.2.59l-2.58,1.28a.45.45,0,0,1-.19.05A.44.44,0,0,1,745.94,333.44Z" transform="translate(-562.47 -25.53)"/><path class="cls-8" d="M703.21,348q7.56,17.3,16.34,34c.3.56-.55,1.06-.85.5q-8.78-16.71-16.35-34c-.25-.57.6-1.08.86-.5Z" transform="translate(-562.47 -25.53)"/><polygon class="cls-5" points="188.58 381.55 185.54 408.33 196.68 411.19 205.57 385.88 188.58 381.55"/><path class="cls-9" d="M786.66,445.29h-41a17.39,17.39,0,0,1-.09-1.92c0-.29,0-.57,0-.86-.1-5.62,0-17.38,2.58-15.65,2.52,4.46,9.12,2.59,9.12,2.59s4.11-5.39,6.89-3.76-.4,4.74,3.19,7.51c2.75,2.13,6.19.91,10.25,1.68a12.61,12.61,0,0,1,3.89,1.43,9.8,9.8,0,0,1,4.89,6.2A8.91,8.91,0,0,1,786.66,445.29Z" transform="translate(-562.47 -25.53)"/><path class="cls-10" d="M765.34,431.71c-1.35,2.33-.31,4.55,2.06,5.53,3.06,1.25,6.72.67,8.46-2.31a.31.31,0,0,0-.53-.31,5.68,5.68,0,0,1-6.47,2.43c-2.39-.57-4.46-2.49-3-5a.31.31,0,0,0-.53-.31Z" transform="translate(-562.47 -25.53)"/><path class="cls-11" d="M746.06,432.27a8.17,8.17,0,0,1,5.84,7.6c0,.42-.63.42-.64,0a7.5,7.5,0,0,0-5.37-7c-.39-.12-.22-.74.17-.62Z" transform="translate(-562.47 -25.53)"/><path class="cls-11" d="M786.66,445.29h-41a17.39,17.39,0,0,1-.09-1.92v-.86h40.82A8.91,8.91,0,0,1,786.66,445.29Z" transform="translate(-562.47 -25.53)"/><path class="cls-11" d="M767.85,442.73s-6.18-5-12-4.8-10.18,4.76-10.18,4.76Z" transform="translate(-562.47 -25.53)"/><path class="cls-7" d="M755,204.74s34.6,94.47,35.64,124.83-18.89,86.92-18.89,86.92L738,413.86s15.55-67,11.51-98.1S717,230.45,717,196.18Z" transform="translate(-562.47 -25.53)"/><path class="cls-5" d="M789.79,324.45s-13.68-.73-11.77,7.6,11.77,6.67,11.77,6.67A114.7,114.7,0,0,0,789.79,324.45Z" transform="translate(-562.47 -25.53)"/><path class="cls-8" d="M750.69,325.4a214.5,214.5,0,0,1-4.13,44.93c-.12.62-1.07.36-.95-.27a213.93,213.93,0,0,0,4.09-44.66.5.5,0,0,1,1,0Z" transform="translate(-562.47 -25.53)"/><path class="cls-8" d="M745.12,407.07a.44.44,0,0,1-.33-.53l.66-2.8a.45.45,0,0,1,.53-.33.44.44,0,0,1,.32.53c-.25,1.1-.47,2-.65,2.8a.45.45,0,0,1-.43.34Zm1.3-5.6a.44.44,0,0,1-.33-.52c.2-.88.42-1.81.64-2.8a.44.44,0,0,1,.53-.33.44.44,0,0,1,.33.53c-.22,1-.44,1.92-.64,2.79a.45.45,0,0,1-.43.35Zm1.28-5.59a.44.44,0,0,1-.34-.52c.21-.9.41-1.84.63-2.8a.44.44,0,0,1,.52-.34.45.45,0,0,1,.34.53c-.22,1-.43,1.9-.63,2.8a.44.44,0,0,1-.43.34Zm1.24-5.6a.42.42,0,0,1-.33-.52c.2-.91.4-1.85.61-2.8a.44.44,0,0,1,.52-.34.45.45,0,0,1,.34.53c-.21,1-.41,1.89-.61,2.8a.45.45,0,0,1-.43.34Zm1.22-5.6a.44.44,0,0,1-.34-.52c.2-.92.4-1.85.6-2.8a.44.44,0,1,1,.86.18c-.2.95-.4,1.88-.6,2.81a.43.43,0,0,1-.43.34Zm1.19-5.6a.44.44,0,0,1-.34-.52c.19-.93.38-1.86.58-2.81a.44.44,0,0,1,.52-.34.44.44,0,0,1,.34.52c-.19.94-.39,1.88-.58,2.81a.45.45,0,0,1-.43.35Zm1.16-5.61a.44.44,0,0,1-.35-.52l.57-2.81a.44.44,0,0,1,.51-.35.44.44,0,0,1,.35.52l-.57,2.81a.44.44,0,0,1-.43.36Zm1.12-5.62a.44.44,0,0,1-.35-.52l.54-2.81a.44.44,0,1,1,.87.17c-.18.94-.36,1.87-.55,2.81a.44.44,0,0,1-.43.36Zm1.08-5.63a.44.44,0,0,1-.35-.51c.17-.94.35-1.88.52-2.81a.44.44,0,0,1,.51-.36.43.43,0,0,1,.35.51c-.17.94-.34,1.88-.52,2.82a.44.44,0,0,1-.43.36Zm1-5.63a.44.44,0,0,1-.36-.51c.17-.95.34-1.89.5-2.82a.43.43,0,0,1,.5-.36.44.44,0,0,1,.36.51c-.16.93-.32,1.88-.49,2.82a.44.44,0,0,1-.43.37Zm1-5.65a.43.43,0,0,1-.36-.5c.16-.95.31-1.9.46-2.83a.44.44,0,1,1,.87.14c-.15.93-.3,1.88-.46,2.83a.45.45,0,0,1-.43.37Zm.9-5.66a.44.44,0,0,1-.37-.5c.15-1,.28-1.9.41-2.83a.44.44,0,0,1,.5-.37.42.42,0,0,1,.37.49c-.13.93-.26,1.88-.41,2.84a.44.44,0,0,1-.43.38Zm.8-5.67a.44.44,0,0,1-.38-.49c.13-1,.24-1.94.35-2.84a.43.43,0,0,1,.48-.39.44.44,0,0,1,.39.49c-.1.91-.22,1.87-.34,2.85a.44.44,0,0,1-.44.38Zm.66-5.7a.44.44,0,0,1-.4-.48c.1-1,.18-1.95.24-2.84a.44.44,0,0,1,.47-.41.44.44,0,0,1,.41.47c-.06.9-.14,1.87-.24,2.87a.44.44,0,0,1-.44.4Zm.42-5.72a.43.43,0,0,1-.42-.45c0-.69,0-1.36,0-2,0-.29,0-.58,0-.86a.45.45,0,0,1,.44-.45.43.43,0,0,1,.44.43c0,.29,0,.58,0,.88,0,.63,0,1.31,0,2a.44.44,0,0,1-.44.42Zm-.59-6.1c-.1-.84-.24-1.78-.42-2.81a.44.44,0,1,1,.86-.16c.19,1.05.33,2,.44,2.87a.44.44,0,0,1-.39.48h0A.45.45,0,0,1,758.9,322.09Zm-1-5.62c-.19-.87-.4-1.8-.62-2.79a.43.43,0,0,1,.32-.52.43.43,0,0,1,.53.32c.23,1,.44,1.94.63,2.81a.44.44,0,0,1-.34.52h-.09A.43.43,0,0,1,757.93,316.47Zm-1.3-5.57c-.22-.88-.46-1.81-.71-2.77a.42.42,0,0,1,.31-.53.43.43,0,0,1,.54.31c.25,1,.49,1.9.71,2.78a.43.43,0,0,1-.32.53l-.1,0A.45.45,0,0,1,756.63,310.9Zm-1.46-5.53c-.24-.9-.5-1.82-.77-2.76a.44.44,0,0,1,.31-.54.44.44,0,0,1,.54.3c.27.94.52,1.86.77,2.77a.44.44,0,0,1-.31.54h-.11A.44.44,0,0,1,755.17,305.37Zm-1.55-5.51c-.27-.9-.54-1.82-.81-2.75a.44.44,0,0,1,.84-.25q.42,1.39.81,2.76a.44.44,0,0,1-.3.54l-.12,0A.44.44,0,0,1,753.62,299.86ZM752,294.37c-.28-.9-.55-1.82-.84-2.74a.44.44,0,1,1,.84-.26c.29.93.57,1.84.84,2.75a.44.44,0,0,1-.29.55h-.13A.44.44,0,0,1,752,294.37Zm-1.68-5.47c-.28-.91-.57-1.82-.86-2.73a.45.45,0,0,1,.29-.56.44.44,0,0,1,.55.29c.29.92.58,1.83.86,2.74a.45.45,0,0,1-.29.55l-.13,0A.44.44,0,0,1,750.31,288.9Zm-1.73-5.46c-.28-.91-.58-1.82-.87-2.73a.44.44,0,0,1,.84-.27l.87,2.73a.43.43,0,0,1-.28.55.34.34,0,0,1-.14,0A.45.45,0,0,1,748.58,283.44ZM746.83,278c-.3-.91-.59-1.82-.89-2.72a.44.44,0,0,1,.28-.56.43.43,0,0,1,.55.28c.3.91.6,1.82.89,2.72a.44.44,0,0,1-.28.56l-.13,0A.44.44,0,0,1,746.83,278ZM745,272.55l-.9-2.72a.44.44,0,0,1,.28-.56.44.44,0,0,1,.55.28c.31.91.61,1.81.91,2.72a.45.45,0,0,1-.28.56l-.14,0A.44.44,0,0,1,745,272.55Zm-1.81-5.44-.91-2.71a.44.44,0,0,1,.27-.56.45.45,0,0,1,.56.28c.3.9.61,1.8.91,2.71a.44.44,0,0,1-.27.56l-.14,0A.44.44,0,0,1,743.23,267.11Zm-1.83-5.42-.93-2.71a.44.44,0,0,1,.28-.56.44.44,0,0,1,.56.27c.3.9.61,1.81.92,2.72a.42.42,0,0,1-.27.55.4.4,0,0,1-.15,0A.44.44,0,0,1,741.4,261.69Zm-1.86-5.42-.93-2.71a.44.44,0,0,1,.83-.29c.31.9.62,1.8.94,2.71a.44.44,0,0,1-.28.56.32.32,0,0,1-.14,0A.46.46,0,0,1,739.54,256.27Zm-1.87-5.42c-.31-.91-.63-1.81-.94-2.7a.44.44,0,1,1,.83-.29l1,2.71a.45.45,0,0,1-.28.56l-.14,0A.45.45,0,0,1,737.67,250.85Zm-1.88-5.4-.95-2.71a.44.44,0,0,1,.83-.29l1,2.7a.45.45,0,0,1-.27.57l-.15,0A.43.43,0,0,1,735.79,245.45ZM733.88,240c-.32-.92-.64-1.82-1-2.7a.44.44,0,0,1,.26-.56.45.45,0,0,1,.57.27c.31.88.63,1.78,1,2.7a.44.44,0,0,1-.26.56.4.4,0,0,1-.15,0A.46.46,0,0,1,733.88,240Zm-1.91-5.4-1-2.7a.44.44,0,0,1,.83-.3l1,2.7a.44.44,0,0,1-.26.57l-.15,0A.43.43,0,0,1,732,234.64Zm-1.94-5.4c-.33-.94-.66-1.84-1-2.7a.44.44,0,1,1,.83-.29c.31.85.63,1.76,1,2.69a.45.45,0,0,1-.26.57.39.39,0,0,1-.15,0A.45.45,0,0,1,730,229.24Zm-1.95-5.39c-.35-1-.68-1.88-1-2.7a.45.45,0,0,1,.27-.57.45.45,0,0,1,.56.26c.3.82.63,1.73,1,2.71a.44.44,0,0,1-.26.56l-.15,0A.47.47,0,0,1,728.08,223.85Zm-2-5.41c-.64-1.75-1-2.71-1-2.71a.44.44,0,0,1,.26-.57.43.43,0,0,1,.56.26l1,2.72a.44.44,0,0,1-.26.57l-.15,0A.43.43,0,0,1,726.12,218.44Z" transform="translate(-562.47 -25.53)"/><path class="cls-8" d="M729.85,191.06a19.39,19.39,0,0,1-8.16,27.61c-.57.28-1.07-.57-.5-.85A18.42,18.42,0,0,0,729,191.56a.49.49,0,0,1,.85-.5Z" transform="translate(-562.47 -25.53)"/><path class="cls-8" d="M772.65,412.19l-31.4-3.05c-.63-.06-.64-1.05,0-1l31.4,3.05c.63.06.64,1.05,0,1Z" transform="translate(-562.47 -25.53)"/><path class="cls-8" d="M754.2,192.26c5.24,21.05,11.92,41.72,18.54,62.37,5.7,17.76,11.73,35.55,15.58,53.83,2.61,12.38,4.26,25.45.48,37.77-.19.61-1.14.35-.95-.26,3.43-11.21,2.31-23.09.09-34.42-1.69-8.69-4-17.25-6.49-25.74-5.78-19.62-12.39-39-18.4-58.55-3.53-11.5-6.9-23.06-9.81-34.74a.5.5,0,0,1,1-.26Z" transform="translate(-562.47 -25.53)"/><path class="cls-12" d="M777.36,162.43a51.2,51.2,0,0,1-8,5.89l-.79.48a86.61,86.61,0,0,1-16.49,7.61l-.92.31a100.58,100.58,0,0,1-18.38,4.19l-.87.11a115.69,115.69,0,0,1-19.29.77,10.9,10.9,0,0,0,5.76-8c0-.28.1-.57.13-.87.34-3.05-.29-7-2.81-12.17a114.34,114.34,0,0,0-6.56-11.38c-7.55-11.71-16-21.73-16-25.86,0-3.47,5.7-8.94,11.35-13.52,1.5-1.21,3-2.35,4.36-3.38,3.77-2.81,6.72-4.76,6.72-4.76l13.74-2.3s4.84.9,10.52,1.88l.51.09c3.28.57,6.78,1.15,9.76,1.59,0,0,0,0,0,0a57.13,57.13,0,0,1,4.15,12h0c.3,1.23.58,2.54.83,3.92a2.21,2.21,0,0,1,0,.25l.09.51,0,.1c.15.88.3,1.78.43,2.72a64.47,64.47,0,0,0,2.69,11c.09.27.18.55.28.84a88,88,0,0,0,3.32,8.33c.92,2,1.92,4,3,5.87l.48.83C768.87,155.41,773,160.32,777.36,162.43Z" transform="translate(-562.47 -25.53)"/><path class="cls-12" d="M762,142.81c-.63,1.06-1.2,1.93-1.51,2.5-.7,1.26-1.91-3.92-3.09-10.38,0-.29-.1-.59-.16-.89-.86-4.8-1.68-10.15-2.25-14l-.06-.4c0-.16,0-.32-.07-.47-.27-1.84-.47-3.25-.57-4h0c0-.08,0-.16,0-.22a11.56,11.56,0,0,0,1.68,4c.15.26.33.52.52.79a18.06,18.06,0,0,0,1.2,1.53,26.78,26.78,0,0,0,4.11,3.74A9.21,9.21,0,0,1,765,129c.12.3.22.61.31.92C766.53,134.48,763.89,139.57,762,142.81Z" transform="translate(-562.47 -25.53)"/><path class="cls-13" d="M718.31,105.89c-.48,6.62-2,16.82-10.51,17.29-.55,0-.55.89,0,.85a10.78,10.78,0,0,0,8.41-5.47c2.31-3.77,2.64-8.37,3-12.67,0-.55-.82-.55-.86,0Z" transform="translate(-562.47 -25.53)"/><path class="cls-13" d="M756.43,119.69l-1.18.26L755,120l-.77.2c-3.74,1-7.32,1.58-11.16.87a22,22,0,0,1-15.92-12.25c-.22-.5.51-.93.73-.43a21.18,21.18,0,0,0,17.7,12.14c3.22.21,6.23-.67,9.29-1.4l.26-.06.82-.19C756.06,119.16,756.24,119.42,756.43,119.69Z" transform="translate(-562.47 -25.53)"/><path class="cls-13" d="M708.41,137.19a14.6,14.6,0,0,1,11.69,21c-.24.49.49.92.73.43a15.44,15.44,0,0,0-12.42-22.29c-.54-.06-.54.79,0,.85Z" transform="translate(-562.47 -25.53)"/><path class="cls-13" d="M765.31,129.94a17.69,17.69,0,0,1-6.31,4.39l-.35.15c-.43.17-.85.32-1.28.45-7.31,2.35-15.08.22-22-2.67-7.09-3-16.59-7-23.31-.95-.4.36-1-.24-.6-.6a14.35,14.35,0,0,1,10.42-3.36c8.3.37,15.39,5.72,23.46,7.24a24.66,24.66,0,0,0,11.86-.55c.39-.12.78-.26,1.16-.4A16.18,16.18,0,0,0,765,129C765.12,129.32,765.22,129.63,765.31,129.94Z" transform="translate(-562.47 -25.53)"/><path class="cls-13" d="M769.34,168.32l-.79.48a14.61,14.61,0,0,1-3.6-20.12l.48.83a13.78,13.78,0,0,0,3.91,18.81Z" transform="translate(-562.47 -25.53)"/><path class="cls-13" d="M752.06,176.41l-.92.31a14.91,14.91,0,0,0-4.37-11.85c-6.47-6.36-16.41-6.09-23.82-1.54-.47.28-.89-.45-.43-.74a22.83,22.83,0,0,1,12.31-3.51c6.83.13,13.51,4.1,16.18,10.52A14.52,14.52,0,0,1,752.06,176.41Z" transform="translate(-562.47 -25.53)"/><path class="cls-13" d="M732.76,180.91l-.87.11a12.67,12.67,0,0,0-4.65-5.43,12.82,12.82,0,0,0-8.88-1.78c0-.28.1-.57.13-.87a13.24,13.24,0,0,1,14.27,8Z" transform="translate(-562.47 -25.53)"/><path class="cls-13" d="M741,139.74c-3.81.83-7,4.48-5.84,8.51s6.4,5.08,10.07,4.37,6.62-4.05,5.5-7.93c-1.24-4.33-5.59-5.51-9.62-5-.53.07-.54.92,0,.85,3.26-.44,6.81.09,8.42,3.35,1.69,3.44-.53,6.89-4.06,7.77-3.2.8-8.23.13-9.43-3.47s1.78-6.92,5.19-7.66c.53-.12.3-.94-.23-.82Z" transform="translate(-562.47 -25.53)"/><path class="cls-5" d="M757.63,121.22a16.43,16.43,0,0,1-2.4-1.37l-.33-.23c-6.06-4.3-12.14-13.28-15.07-18.17l.51.09c3.28.57,6.78,1.15,9.76,1.59,0,0,0,0,0,0a57.13,57.13,0,0,1,4.15,12c0-.12,0-.22,0-.3A13.62,13.62,0,0,0,757.63,121.22Z" transform="translate(-562.47 -25.53)"/><path class="cls-6" d="M751.6,109.74a31,31,0,0,0,5.29,10.1c.25.32.7-.13.45-.45a30.25,30.25,0,0,1-5.13-9.82c-.12-.39-.74-.23-.61.17Z" transform="translate(-562.47 -25.53)"/><path class="cls-5" d="M709.12,149.39c-7.55-11.71-16-21.73-16-25.86,0-3.47,5.7-8.94,11.35-13.52,3.32,1.91,11.89,11.76,13.44,20.17C720.23,142.67,713.08,145.77,709.12,149.39Z" transform="translate(-562.47 -25.53)"/><path class="cls-6" d="M701.49,137.64a71.82,71.82,0,0,1,9.81-2.25c.54-.08.31-.9-.23-.82a72.84,72.84,0,0,0-9.8,2.25c-.53.16-.3,1,.22.82Z" transform="translate(-562.47 -25.53)"/><path class="cls-7" d="M713.71,95.85s-2.5-6.63-12-11-11.8-19.76-2.67-28.09c2.35-2.14,4.87-2.82,6.05-4.24,7.63-9.1,19.2-4.28,24.83-.3,6.66,4.69,3.5,10.84,3.13,16.28S713.71,95.85,713.71,95.85Z" transform="translate(-562.47 -25.53)"/><path class="cls-5" d="M713.13,106.75c4.3,3.88,24.76,11.44,19.57-4.86l-2.56-5.46-2.8-6-2-4.18L710,82.21Z" transform="translate(-562.47 -25.53)"/><path class="cls-7" d="M714.84,88.61c8.55,9.32,15,11.69,16.77,11l-4.27-9.1Z" transform="translate(-562.47 -25.53)"/><path class="cls-5" d="M705,80.29c2.42,4,4,5.15,8.39,8.55A17,17,0,0,0,725.29,92c9.37-1.69,12.66-6.54,8.24-18.69-2.74-7.55-1.74-12.43-4.5-14.89h0l-.5-.3a18,18,0,0,0-13.34-1.72C692.82,62.1,701.5,74.49,705,80.29Z" transform="translate(-562.47 -25.53)"/><path class="cls-7" d="M720.69,74.44a1.77,1.77,0,0,1,2.46.17c.38.39,1-.21.6-.6a2.65,2.65,0,0,0-3.67-.17c-.42.35.19,1,.61.6Z" transform="translate(-562.47 -25.53)"/><path class="cls-7" d="M728.23,72.88a1.18,1.18,0,0,1,1.36-1c.53.09.76-.73.22-.82a2,2,0,0,0-2.43,1.87c0,.55.81.54.85,0Z" transform="translate(-562.47 -25.53)"/><path class="cls-7" d="M727.49,76.85h0a1.59,1.59,0,0,0-.69-3.11L726,72.55a.32.32,0,1,0-.52.37l.94,1.34a.31.31,0,0,0,.31.13s1.14-.16,1.36.68-.75,1.17-.79,1.18a.32.32,0,0,0,.22.6Z" transform="translate(-562.47 -25.53)"/><path class="cls-7" d="M726.51,54.75s7,3.1,5.13,5.09-13.77-6.31-19.36,7.66c-1.39,3.48,1.32,6.51-4,9.16s-6.55,2.3-8.81-2.32,1-16.72,12.52-19.69S726.51,54.75,726.51,54.75Z" transform="translate(-562.47 -25.53)"/><path class="cls-7" d="M720.16,58.24S721.77,69.76,710,72.93,703.72,57.42,720.16,58.24Z" transform="translate(-562.47 -25.53)"/><path class="cls-7" d="M703.33,65.67a11,11,0,0,1,5.37.84c1,3.32,5.61,11.63,2,13.41-5.29,2.66-4.28,6.62-9.33-2.23-1.92-3.35-2.85-8.27-1.8-11.46C700.84,66,702.07,65.81,703.33,65.67Z" transform="translate(-562.47 -25.53)"/><path class="cls-6" d="M729.69,84.85a2.56,2.56,0,0,1-2.71.38c-.48-.24-.08-1,.39-.72a1.79,1.79,0,0,0,1.89-.36c.44-.3.87.4.43.7Z" transform="translate(-562.47 -25.53)"/><path class="cls-6" d="M716.73,78.46c.19.66,1.38.89,2.64.52s2.13-1.21,1.94-1.86-1.38-.9-2.64-.53S716.54,77.8,716.73,78.46Z" transform="translate(-562.47 -25.53)"/><path class="cls-6" d="M730,75.29c.19.66,1.37.89,2.64.52a3.82,3.82,0,0,0,1.45-.76c-.18-.56-.38-1.13-.59-1.71a.25.25,0,0,1,0-.07,3.86,3.86,0,0,0-1.54.16C730.7,73.8,729.83,74.63,730,75.29Z" transform="translate(-562.47 -25.53)"/><path class="cls-7" d="M721.48,69.58a1.94,1.94,0,0,0-2.24,1.55c-.09,1-1.73,1.08-1.64,0a3.52,3.52,0,0,1,3.85-3.21c1,.09,1.08,1.73,0,1.64Z" transform="translate(-562.47 -25.53)"/><path class="cls-7" d="M730.11,69c-.83-.57-1.91-1.42-2.93-.83s-1.78-.87-.86-1.4c1.62-.94,3.18-.17,4.57.79.87.6.09,2-.78,1.44Z" transform="translate(-562.47 -25.53)"/><path class="cls-11" d="M731,78.15s-2.85,1.4-8.59,1.57c0,0,1.89,4.83,5.91,3.63C731.74,82.33,731,78.15,731,78.15Z" transform="translate(-562.47 -25.53)"/><path class="cls-5" d="M714.66,81.25a5.71,5.71,0,0,0-2.07-4.57c-1.73-1.48-4.76-3.64-6.8-2.73-3,1.34-2.55,4.22-1.42,7s4.06,5.89,7.77,4.16A4.17,4.17,0,0,0,714.66,81.25Z" transform="translate(-562.47 -25.53)"/><path class="cls-11" d="M709.09,84a1.32,1.32,0,1,1-1.31-1.31A1.32,1.32,0,0,1,709.09,84Z" transform="translate(-562.47 -25.53)"/><path class="cls-7" d="M710.4,81.91a7.36,7.36,0,0,0-1.14-3.44c-.65-.89-2.15-2-3.31-1.28-.4.25-.86-.31-.47-.57a3,3,0,0,1,3.48.48,6.93,6.93,0,0,1,2.16,4.71.36.36,0,0,1-.72.1Z" transform="translate(-562.47 -25.53)"/><path class="cls-7" d="M717.48,66.65a17.43,17.43,0,0,1-2,7.32c-.78,1.63-1.43,3.57.57,6.8,3.69,6-2.18,9.79-2.18,9.79s2.46-5-.09-7.81c-3.33-3.71-4.92-12.15-2.52-13.55A35.53,35.53,0,0,1,717.48,66.65Z" transform="translate(-562.47 -25.53)"/><path class="cls-7" d="M718.79,154.7a77.72,77.72,0,0,0-4.88-9.12l-.5.54a80.45,80.45,0,0,1,4.75,8.92c2.47,5.35,4.74,11.11,5.48,17,.06.46.76.3.7-.16C723.59,165.93,721.29,160.1,718.79,154.7Z" transform="translate(-562.47 -25.53)"/><path class="cls-5" d="M694.87,120.18s-18.43,36.58-20,34.48c-1.79-2.36-32.19-43-32.19-43l-7.44,4.82s25.23,64.43,39.31,64.39c9.36,0,40.14-50,40.14-50Z" transform="translate(-562.47 -25.53)"/><path class="cls-14" d="M641.06,111a8.27,8.27,0,0,1,1.48.39c-1-1.09-2.24-2.38-3.52-3.57-3-2.84-4.09-7.28-5.64-4.38-1.42,2.66,1.17,6.8,1.24,8.47C636.73,111.39,638.87,110.67,641.06,111Z" transform="translate(-562.47 -25.53)"/><path class="cls-14" d="M618.61,110.29s-3.94-4.34-2.78-5.54,3.88,2.45,5.9,3.65,7,4.69,7,4.69Z" transform="translate(-562.47 -25.53)"/><path class="cls-5" d="M643.6,110.76a7.31,7.31,0,0,0-2.66-1c-2.21-.33-4.36.47-6.48,1-1,2-5,1.08-11.41-1-8.77-2.91-9.65-1.38-9.35-.83,1.14,2.11,5.43,3.09,11.81,6.55A36.59,36.59,0,0,0,644,119.27s1.83-.62,1.69-3.67A7.24,7.24,0,0,0,643.6,110.76Z" transform="translate(-562.47 -25.53)"/><path class="cls-6" d="M705.9,144.73q4.23-6.58,8.45-13.16c.32-.49-.46-.94-.77-.46l-8.46,13.16c-.31.49.47.94.78.46Z" transform="translate(-562.47 -25.53)"/><path class="cls-6" d="M675.08,154.81a11.51,11.51,0,0,0,.36,8.19c.21.51,1,.15.77-.36a10.55,10.55,0,0,1-.33-7.54c.17-.52-.63-.81-.8-.29Z" transform="translate(-562.47 -25.53)"/><path class="cls-6" d="M674.5,156.88a9.67,9.67,0,0,0-2.28,2.45c-.29.46.41.94.71.48a8.85,8.85,0,0,1,2.12-2.28c.44-.33-.11-1-.55-.65Z" transform="translate(-562.47 -25.53)"/><path class="cls-12" d="M712.73,67.41c-1.47.68-1.83,8.31,4.39,11.51,3.25,1.67,7.67-4.85,10.61-4.77s6.8,3.94,9.63-1.1c1.27-2.25.65-9.82-1.24-11.12S714,66.65,712.73,67.41Z" transform="translate(-562.47 -25.53)"/><path class="cls-12" d="M712,69.83s-6.15,2.31-9.12-.13a7.19,7.19,0,0,0,0,3.22s3.84,1.89,9.87-.37Z" transform="translate(-562.47 -25.53)"/><path class="cls-15" d="M716.52,70.23c3.32-.9,11.76-3.15,18.12-4.64a1.43,1.43,0,0,1,1.75,1.2v.07a1.43,1.43,0,0,1-1.08,1.58c-3.16.79-11.69,2.91-18.06,4.56a1.43,1.43,0,0,1-1.74-1h0A1.43,1.43,0,0,1,716.52,70.23Z" transform="translate(-562.47 -25.53)"/><path class="cls-1" d="M892.06,403.64l-1.93,11-.16.87-2.28,12.94-.2,1.14-2.11,12a6.08,6.08,0,0,1-1.22,2.72,5.86,5.86,0,0,1-.72.77,6.09,6.09,0,0,1-4.08,1.56H852a6.18,6.18,0,0,1-2-.32,8,8,0,0,1-.8-.34,6.14,6.14,0,0,1-3.25-4.39l-.88-5-.22-1.21-.72-4.1-.17-1-3-17.25-.15-.87-1.49-8.46c0-1.31,18.33-1.85,33.4-1.62l1,0c1.17,0,2.33,0,3.45.08l.89,0h0C886,402.38,892.06,402.88,892.06,403.64Z" transform="translate(-562.47 -25.53)"/><path class="cls-2" d="M849.59,422.67c-.31,3.57-2.45,5.92-5.05,8.16l-.44.38-.17-1c.72-.62,1.44-1.24,2.08-1.9a9.23,9.23,0,0,0,1.6-11,9.05,9.05,0,0,0-6.73-4.36l-.15-.87A9.82,9.82,0,0,1,849.59,422.67Z" transform="translate(-562.47 -25.53)"/><path class="cls-2" d="M885.77,412.51a19.68,19.68,0,0,1-5.83-6.38c-.27-.46-.56-1-.85-1.52h-1c.2.4.4.79.6,1.16a20.77,20.77,0,0,0,7,7.76,18,18,0,0,0,4.25,2l.16-.87A16.43,16.43,0,0,1,885.77,412.51Z" transform="translate(-562.47 -25.53)"/><path class="cls-2" d="M876,420.53c-4.63-1.62-9.71-1.87-14.16-4s-8.38-7.18-5.79-11.9h-1a8.71,8.71,0,0,0,1.2,8.62c2.49,3.35,6.59,4.92,10.5,5.88,4.59,1.14,9.17,1.9,13.37,4.19a22.15,22.15,0,0,1,7.36,6.27l.2-1.14a16.14,16.14,0,0,0-1.69-1.91A26.93,26.93,0,0,0,876,420.53Z" transform="translate(-562.47 -25.53)"/><path class="cls-2" d="M884.16,444.26a5.86,5.86,0,0,1-.72.77c-1-7-6.62-12.95-13.52-15.1-8-2.5-20-1.1-24.88,6.59l-.22-1.21a17.63,17.63,0,0,1,8.21-5.77c7.67-2.81,17.12-2.07,23.76,2.9A19.39,19.39,0,0,1,884.16,444.26Z" transform="translate(-562.47 -25.53)"/><path class="cls-2" d="M873.45,446.59h-.89a10.23,10.23,0,0,0-9.76-7.89c-5.62-.36-10.24,2.95-12.83,7.57a8,8,0,0,1-.8-.34c2.9-5.21,8.28-8.86,14.59-8a11.32,11.32,0,0,1,8.62,5.77A11.46,11.46,0,0,1,873.45,446.59Z" transform="translate(-562.47 -25.53)"/><path class="cls-2" d="M873.61,404.61c.6,2.51.19,5.14-2.39,6.56-4.31,2.36-7-3.15-8.32-6.56H862c1.41,3.83,4.33,9.72,9.3,7.49,3.16-1.42,3.81-4.52,3.19-7.49Z" transform="translate(-562.47 -25.53)"/><ellipse class="cls-2" cx="303.38" cy="379.05" rx="22.48" ry="1.09"/><path class="cls-1" d="M849.69,367.47s-23.15-4.58-29.61-20.73,17.16-28.26,29.61-19.59C863,336.43,849.69,367.47,849.69,367.47Z" transform="translate(-562.47 -25.53)"/><path class="cls-2" d="M862.82,403.83c-3.27-14.53-11-33-17.28-46.69-7.72-16.79-15-30.2-15.08-30.33a.41.41,0,0,0-.57-.17.42.42,0,0,0-.17.57c.08.13,7.35,13.51,15.06,30.28,6.25,13.6,13.91,31.92,17.18,46.34Z" transform="translate(-562.47 -25.53)"/><path class="cls-2" d="M848.82,365.9a.42.42,0,0,1-.37-.22c-10.06-18.75-26.41-32.36-26.58-32.49a.42.42,0,0,1,.53-.65c.17.14,16.64,13.84,26.79,32.75a.41.41,0,0,1-.17.56A.35.35,0,0,1,848.82,365.9Z" transform="translate(-562.47 -25.53)"/><path class="cls-2" d="M849.28,367.25a.41.41,0,0,1-.32-.15,80.2,80.2,0,0,0-19.88-17,49.44,49.44,0,0,0-9.22-4.46.41.41,0,0,1-.27-.52.42.42,0,0,1,.53-.28,49.89,49.89,0,0,1,9.36,4.52,81.12,81.12,0,0,1,20.12,17.2.42.42,0,0,1-.05.59A.45.45,0,0,1,849.28,367.25Z" transform="translate(-562.47 -25.53)"/><path class="cls-2" d="M847.24,362.33a.42.42,0,0,1-.39-.28c-5.65-16.57-3.57-36.7-3.55-36.9a.42.42,0,0,1,.46-.37.41.41,0,0,1,.37.46c0,.2-2.07,20.15,3.51,36.54a.43.43,0,0,1-.26.53Z" transform="translate(-562.47 -25.53)"/><path class="cls-2" d="M848.66,365.61a.42.42,0,0,1-.41-.35,58.22,58.22,0,0,1,1-24.37,38.91,38.91,0,0,1,3.54-9.18.42.42,0,1,1,.72.43,38.92,38.92,0,0,0-3.46,9,57.49,57.49,0,0,0-1,24,.42.42,0,0,1-.35.48Z" transform="translate(-562.47 -25.53)"/><path class="cls-1" d="M874.11,371.68s23.38-3.19,30.78-18.93-15.45-29.23-28.39-21.31C862.65,339.91,874.11,371.68,874.11,371.68Z" transform="translate(-562.47 -25.53)"/><path class="cls-2" d="M896.32,332.12a.42.42,0,0,0-.59.09,226.5,226.5,0,0,0-15.3,25.25,172.54,172.54,0,0,0-10.6,24.48,93.5,93.5,0,0,0-4.8,21.89h.84c1.35-16.18,8.91-33.69,15.3-46a225.44,225.44,0,0,1,15.24-25.16A.42.42,0,0,0,896.32,332.12Z" transform="translate(-562.47 -25.53)"/><path class="cls-2" d="M875.09,370.18a.33.33,0,0,1-.21-.07.41.41,0,0,1-.14-.57c11.25-18.27,28.5-31,28.68-31.1a.41.41,0,0,1,.58.09.42.42,0,0,1-.09.59c-.17.12-17.3,12.73-28.46,30.86A.41.41,0,0,1,875.09,370.18Z" transform="translate(-562.47 -25.53)"/><path class="cls-2" d="M874.56,371.49a.4.4,0,0,1-.29-.12.41.41,0,0,1,0-.59,81.13,81.13,0,0,1,21.09-16,49.92,49.92,0,0,1,9.62-4,.42.42,0,0,1,.21.82,48.93,48.93,0,0,0-9.47,3.9,80.38,80.38,0,0,0-20.85,15.79A.39.39,0,0,1,874.56,371.49Z" transform="translate(-562.47 -25.53)"/><path class="cls-2" d="M876.88,366.7l-.16,0a.41.41,0,0,1-.22-.54c6.54-16,5.67-36.07,5.66-36.27a.42.42,0,1,1,.83,0c0,.2.9,20.42-5.72,36.62A.41.41,0,0,1,876.88,366.7Z" transform="translate(-562.47 -25.53)"/><path class="cls-2" d="M875.27,369.89h-.09a.42.42,0,0,1-.32-.5,57.43,57.43,0,0,0,.43-24,39,39,0,0,0-2.92-9.19.42.42,0,0,1,.74-.38,38.87,38.87,0,0,1,3,9.37,58.42,58.42,0,0,1-.43,24.39A.42.42,0,0,1,875.27,369.89Z" transform="translate(-562.47 -25.53)"/><path class="cls-1" d="M865.11,341.23S845.3,328.41,845.28,311s26.4-19.89,34.76-7.23C889,317.33,865.11,341.23,865.11,341.23Z" transform="translate(-562.47 -25.53)"/><path class="cls-2" d="M864.24,330.14c.83,16.1,1.15,37.9-1.74,73.69h.85c2.87-35.88,2.55-57.65,1.73-73.73-1-18.46-2.76-33.61-2.78-33.76a.43.43,0,0,0-.47-.37.42.42,0,0,0-.36.47C861.49,296.59,863.29,311.71,864.24,330.14Z" transform="translate(-562.47 -25.53)"/><path class="cls-2" d="M865,339.49a.41.41,0,0,1-.41-.38c-2.41-21.14-12.56-39.84-12.66-40a.42.42,0,0,1,.16-.57.41.41,0,0,1,.57.17c.11.18,10.33,19,12.76,40.33a.41.41,0,0,1-.37.46Z" transform="translate(-562.47 -25.53)"/><path class="cls-2" d="M865,340.9a.41.41,0,0,1-.39-.28,80.48,80.48,0,0,0-12.17-23.16,50.51,50.51,0,0,0-6.92-7.55.42.42,0,1,1,.53-.65,50,50,0,0,1,7,7.67,81.07,81.07,0,0,1,12.32,23.42.42.42,0,0,1-.26.53A.34.34,0,0,1,865,340.9Z" transform="translate(-562.47 -25.53)"/><path class="cls-2" d="M864.89,335.58h0a.42.42,0,0,1-.4-.44c.89-17.47,10.28-35.41,10.37-35.58a.42.42,0,0,1,.57-.18.42.42,0,0,1,.17.57c-.09.17-9.39,17.95-10.27,35.23A.42.42,0,0,1,864.89,335.58Z" transform="translate(-562.47 -25.53)"/><path class="cls-2" d="M865,339.15h-.09a.42.42,0,0,1-.32-.5,59,59,0,0,1,10-22.36A39.32,39.32,0,0,1,881.3,309a.4.4,0,0,1,.58.07.42.42,0,0,1-.07.59,39.63,39.63,0,0,0-6.58,7.19,58.44,58.44,0,0,0-9.83,22A.41.41,0,0,1,865,339.15Z" transform="translate(-562.47 -25.53)"/><circle class="cls-12" cx="642.54" cy="359.8" r="19.33" transform="translate(-628.7 534.2) rotate(-45)"/><circle class="cls-15" cx="638.65" cy="354.33" r="11.64" transform="translate(-646.37 222.25) rotate(-20.63)"/><circle class="cls-12" cx="835.1" cy="120.46" r="19.33" transform="translate(-568.31 163.66) rotate(-12.88)"/><path class="cls-15" d="M827.51,113.06a11.64,11.64,0,1,0,13.4-9.55A11.64,11.64,0,0,0,827.51,113.06Z" transform="translate(-562.47 -25.53)"/><circle class="cls-16" cx="103.68" cy="20.88" r="11.02"/><circle class="cls-16" cx="272.63" cy="258.21" r="11.02"/><path class="cls-10" d="M844.86,209.32H813.59a2,2,0,0,1-1.76-3L827.33,178a2,2,0,0,1,1.76-1h31.27a2,2,0,0,1,1.76,3l-15.5,28.32A2,2,0,0,1,844.86,209.32Zm-27.9-4h26.72L857,181H830.27Z" transform="translate(-562.47 -25.53)"/><path class="cls-9" d="M842.86,206.82H811.59a2,2,0,0,1-1.76-3l15.5-28.32a2,2,0,0,1,1.76-1h31.27a2,2,0,0,1,1.76,3l-15.5,28.32A2,2,0,0,1,842.86,206.82Zm-27.9-4h26.72L855,178.5H828.27Z" transform="translate(-562.47 -25.53)"/><path class="cls-17" d="M692.07,268.53l15.5,28.32a2,2,0,0,1-1.75,3H674.54a2,2,0,0,1-1.75-1l-15.5-28.32a2,2,0,0,1,1.75-3h31.28A2,2,0,0,1,692.07,268.53Zm-16.34,27.28h26.71l-13.31-24.32H662.41Z" transform="translate(-562.47 -25.53)"/><path class="cls-16" d="M694.07,266l15.5,28.32a2,2,0,0,1-1.75,3H676.54a2,2,0,0,1-1.75-1L659.29,268a2,2,0,0,1,1.75-3h31.28A2,2,0,0,1,694.07,266Zm-16.34,27.28h26.71L691.13,269H664.41Z" transform="translate(-562.47 -25.53)"/><rect class="cls-7" x="28.39" y="20.93" width="0.8" height="80.88"/><circle class="cls-12" cx="28.79" cy="60.29" r="13.94"/><path class="cls-18" d="M595.19,81.86a3.93,3.93,0,1,1-3.93-3.93A3.93,3.93,0,0,1,595.19,81.86Z" transform="translate(-562.47 -25.53)"/><path class="cls-18" d="M596.65,93.72H585.87s-1.15-1.14,0-4.73c.82-2.53,3.74-4,5.39-4.67,1.66.66,4.58,2.14,5.39,4.67C597.81,92.58,596.65,93.72,596.65,93.72Z" transform="translate(-562.47 -25.53)"/><circle class="cls-9" cx="28.79" cy="17.98" r="13.94"/><path class="cls-18" d="M595.19,39.55a3.93,3.93,0,1,1-3.93-3.93A3.93,3.93,0,0,1,595.19,39.55Z" transform="translate(-562.47 -25.53)"/><path class="cls-18" d="M596.65,51.4H585.87s-1.15-1.14,0-4.72c.82-2.53,3.74-4,5.39-4.67,1.66.66,4.58,2.14,5.39,4.67C597.81,50.26,596.65,51.4,596.65,51.4Z" transform="translate(-562.47 -25.53)"/><circle class="cls-5" cx="28.79" cy="102.61" r="13.94"/><path class="cls-18" d="M595.19,124.18a3.93,3.93,0,1,1-3.93-3.93A3.93,3.93,0,0,1,595.19,124.18Z" transform="translate(-562.47 -25.53)"/><path class="cls-18" d="M596.65,136H585.87s-1.15-1.14,0-4.73c.82-2.52,3.74-4,5.39-4.66,1.66.66,4.58,2.14,5.39,4.66C597.81,134.89,596.65,136,596.65,136Z" transform="translate(-562.47 -25.53)"/><g class="cls-3"><path class="cls-1" d="M936.68,102.61c-.46-3.26-2.18-10.52-8.4-13.15-8.12-3.44-11.69,1.9-22.73,7.42s-12.67-2.68-20.79-4.31c-7.28-1.45-15.78,8.06-17.46,10Z" transform="translate(-562.47 -25.53)"/></g><g class="cls-3"><path class="cls-1" d="M631.86,171.67c-.47-3.26-2.18-10.52-8.4-13.15-8.12-3.44-11.69,1.9-22.74,7.42s-12.66-2.68-20.78-4.31c-7.28-1.45-15.78,8.06-17.47,10Z" transform="translate(-562.47 -25.53)"/></g><polygon class="cls-12" points="318.03 224.33 307.33 236.94 296.64 224.33 307.33 201.8 318.03 224.33"/><polygon class="cls-15" points="318.03 224.33 307.33 236.94 307.33 201.8 318.03 224.33"/><polygon class="cls-13" points="296.64 224.33 307.33 230.11 318.03 224.33 307.33 236.94 296.64 224.33"/><polygon class="cls-12" points="81.18 52.09 70.48 64.7 59.78 52.09 70.48 29.56 81.18 52.09"/><polygon class="cls-15" points="81.18 52.09 70.48 64.7 70.48 29.56 81.18 52.09"/><polygon class="cls-13" points="59.78 52.09 70.48 57.87 81.18 52.09 70.48 64.7 59.78 52.09"/><path class="cls-19" d="M594.24,306.9a.59.59,0,0,1-.31-.09l-17.77-11.2a.57.57,0,0,1-.27-.46.59.59,0,0,1,.23-.49l17.17-13.51L576.34,268a.56.56,0,0,1-.23-.48.59.59,0,0,1,.26-.46l17.55-11.55a.58.58,0,1,1,.64,1l-16.86,11.1,16.9,13.13a.59.59,0,0,1,0,.92l-17.11,13.46,17.06,10.76a.58.58,0,0,1-.31,1.07Z" transform="translate(-562.47 -25.53)"/><circle class="cls-19" cx="31.77" cy="230.45" r="4.13"/><path class="cls-19" d="M598.37,281.15a4.13,4.13,0,1,1-4.13-4.14A4.13,4.13,0,0,1,598.37,281.15Z" transform="translate(-562.47 -25.53)"/><path class="cls-19" d="M598.37,306.32a4.13,4.13,0,1,1-4.13-4.13A4.13,4.13,0,0,1,598.37,306.32Z" transform="translate(-562.47 -25.53)"/><circle class="cls-19" cx="14" cy="242" r="4.13"/><circle class="cls-19" cx="14" cy="269.59" r="4.13"/><path class="cls-17" d="M909.65,171.26a.61.61,0,0,0,.31-.09L927.72,160a.59.59,0,0,0,.27-.46.57.57,0,0,0-.22-.49l-17.18-13.51,17-13.17a.59.59,0,0,0,0-1L910,119.84a.59.59,0,0,0-.65,1l16.87,11.1L909.29,145a.59.59,0,0,0-.23.46.58.58,0,0,0,.22.46l17.12,13.46-17.07,10.76a.59.59,0,0,0,.32,1.08Z" transform="translate(-562.47 -25.53)"/><path class="cls-16" d="M905.51,120.33a4.14,4.14,0,1,0,4.13-4.13A4.14,4.14,0,0,0,905.51,120.33Z" transform="translate(-562.47 -25.53)"/><path class="cls-16" d="M905.51,145.5a4.14,4.14,0,1,0,4.13-4.13A4.13,4.13,0,0,0,905.51,145.5Z" transform="translate(-562.47 -25.53)"/><path class="cls-16" d="M905.51,170.67a4.14,4.14,0,1,0,4.13-4.13A4.13,4.13,0,0,0,905.51,170.67Z" transform="translate(-562.47 -25.53)"/><circle class="cls-16" cx="364.93" cy="106.35" r="4.13"/><circle class="cls-16" cx="364.93" cy="133.95" r="4.13"/><rect class="cls-12" x="198.95" y="14.81" width="1.4" height="6.64" rx="0.68"/><rect class="cls-12" x="198.95" y="23.9" width="1.4" height="6.64" rx="0.68"/><rect class="cls-12" x="765.97" y="44.89" width="1.4" height="6.64" rx="0.68" transform="translate(252.4 -743.99) rotate(90)"/><rect class="cls-12" x="756.87" y="44.89" width="1.4" height="6.64" rx="0.68" transform="translate(243.31 -734.89) rotate(90)"/><rect class="cls-16" x="46.87" y="297.46" width="1.4" height="6.64" rx="0.68"/><rect class="cls-16" x="46.87" y="306.55" width="1.4" height="6.64" rx="0.68"/><rect class="cls-16" x="613.89" y="327.54" width="1.4" height="6.64" rx="0.68" transform="translate(382.97 -309.27) rotate(90)"/><rect class="cls-16" x="604.8" y="327.54" width="1.4" height="6.64" rx="0.68" transform="translate(373.88 -300.18) rotate(90)"/><rect class="cls-9" x="356.58" y="202.35" width="1.4" height="6.64" rx="0.68"/><rect class="cls-9" x="356.58" y="211.44" width="1.4" height="6.64" rx="0.68"/><rect class="cls-9" x="923.6" y="232.43" width="1.4" height="6.64" rx="0.68" transform="translate(597.57 -714.08) rotate(90)"/><rect class="cls-9" x="914.51" y="232.43" width="1.4" height="6.64" rx="0.68" transform="translate(588.48 -704.99) rotate(90)"/><rect class="cls-1" x="26.93" y="164.39" width="84.9" height="50.87" rx="4.21"/><path class="cls-2" d="M667.35,234.84v-18.5c-15.5-1.58-18.75,8.42-28.25,11.37-9.24,2.86-13.78-4.63-28-3-7.18.85-10.81,6.66-12.47,10.08Z" transform="translate(-562.47 -25.53)"/><path class="cls-2" d="M661.74,200.84a1.36,1.36,0,0,1,0-.17,6.18,6.18,0,0,0-12.05,0,.85.85,0,0,0,0,.17c-1.23,5.73,6.06,11.33,6.06,11.33S663,206.57,661.74,200.84Zm-6.07,3.8a2.52,2.52,0,1,1,2.52-2.51A2.51,2.51,0,0,1,655.67,204.64Z" transform="translate(-562.47 -25.53)"/><path class="cls-2" d="M637.5,199.37H600a1.45,1.45,0,0,0-1.45,1.46h0a1.45,1.45,0,0,0,1.45,1.45H637.5a1.45,1.45,0,0,0,1.45-1.45h0A1.45,1.45,0,0,0,637.5,199.37Z" transform="translate(-562.47 -25.53)"/><path class="cls-2" d="M637.5,205.79H600a1.45,1.45,0,0,0-1.45,1.45h0a1.45,1.45,0,0,0,1.45,1.45H637.5a1.45,1.45,0,0,0,1.45-1.45h0A1.45,1.45,0,0,0,637.5,205.79Z" transform="translate(-562.47 -25.53)"/><path class="cls-2" d="M637.5,212.84H600a1.45,1.45,0,0,0-1.45,1.45h0a1.45,1.45,0,0,0,1.45,1.45H637.5a1.45,1.45,0,0,0,1.45-1.45h0A1.45,1.45,0,0,0,637.5,212.84Z" transform="translate(-562.47 -25.53)"/></g></svg>