<svg xmlns="http://www.w3.org/2000/svg" viewBox="0 0 471.79 403.87"><defs><style>.cls-1{fill:#122344;}.cls-1,.cls-10,.cls-11,.cls-12,.cls-13,.cls-14,.cls-15,.cls-16,.cls-17,.cls-19,.cls-2,.cls-20,.cls-21,.cls-22,.cls-23,.cls-24,.cls-25,.cls-26,.cls-27,.cls-28,.cls-29,.cls-3,.cls-4,.cls-5,.cls-6,.cls-7,.cls-8,.cls-9{fill-rule:evenodd;}.cls-2{fill:#cadbdd;}.cls-3{fill:#e6ad83;}.cls-4{fill:#7a91a2;}.cls-18,.cls-5{fill:#fff;}.cls-6{fill:#ce8a53;}.cls-7{fill:#a2323d;}.cls-8{fill:#d77f68;}.cls-9{fill:#ce403f;}.cls-10{fill:#b28410;}.cls-11{fill:#cca332;}.cls-12{fill:#ebbf9e;}.cls-13{fill:#162c4f;}.cls-14{fill:#d7766d;}.cls-15{fill:#edd063;}.cls-16{fill:#dae9ea;}.cls-17{fill:#a8bfc1;}.cls-19{fill:#cb2229;}.cls-20{fill:#2c3e73;}.cls-21{fill:#c1dee7;}.cls-22{fill:#b4cadc;}.cls-23{fill:#408178;}.cls-24{fill:#6ab8b1;}.cls-25{fill:#8a2236;}.cls-26{fill:#d26070;}.cls-27{fill:#d1574b;}.cls-28{fill:#785153;}.cls-29{fill:#4c3239;}.cls-30{fill:#906061;}.cls-31{fill:#b07e73;}</style></defs><title>aboutUs</title><g id="OBJECTS"><path class="cls-1" d="M152.22,899.81H52a5.46,5.46,0,1,0,0,10.92H62.52a3.71,3.71,0,1,1,0,7.41H56.16a3.71,3.71,0,1,0,0,7.41H480.44a5.46,5.46,0,1,0,0-10.92H470a3.71,3.71,0,0,1,0-7.41h6.37a3.71,3.71,0,1,0,0-7.41H152.22Z" transform="translate(-14.1 -521.69)"/><path class="cls-2" d="M91.1,899.81a77.23,77.23,0,0,1-77-77h0a77.23,77.23,0,0,1,77-77h0a32.65,32.65,0,0,0,32.56-32.55h0A32.65,32.65,0,0,0,91.1,680.7H87.23a34,34,0,0,1-33.85-33.85h0A34,34,0,0,1,87.23,613H99.11a13.22,13.22,0,0,0,13.18-13.18h0a13.22,13.22,0,0,0-13.18-13.17H90.38a9.12,9.12,0,0,1-9.09-9.1h0a9.12,9.12,0,0,1,9.09-9.09h58.71a14.33,14.33,0,0,0,14.29-14.29h0a14.34,14.34,0,0,0-14.29-14.3H131.54a9.12,9.12,0,0,1-9.1-9.09h0a9.12,9.12,0,0,1,9.1-9.09h223a11.9,11.9,0,0,1,11.87,11.86h0a11.9,11.9,0,0,1-11.87,11.87h-18a18.7,18.7,0,0,0-18.65,18.65h0a18.71,18.71,0,0,0,18.65,18.65h69.65A11.9,11.9,0,0,1,418,594.58h0a11.9,11.9,0,0,1-11.87,11.87h-11.4a17.25,17.25,0,0,0-17.19,17.2h0a17.25,17.25,0,0,0,17.19,17.19h15.51A44.3,44.3,0,0,1,454.45,685h0a44.3,44.3,0,0,1-44.17,44.17h-5a42.61,42.61,0,0,0-42.49,42.48h0a42.61,42.61,0,0,0,42.49,42.48h10.95A43,43,0,0,1,459,857h0a43,43,0,0,1-42.83,42.83ZM384.89,545.42A11.87,11.87,0,1,0,373,533.55a11.86,11.86,0,0,0,11.87,11.87Zm-320,41.23a9.1,9.1,0,1,0-9.1-9.1A9.1,9.1,0,0,0,64.86,586.65Z" transform="translate(-14.1 -521.69)"/><path class="cls-1" d="M370.06,611.82a20.46,20.46,0,1,0,29.1,28.37,22.64,22.64,0,1,0,41-18.57,12.45,12.45,0,0,0-.86-20.6,4,4,0,0,0,1.06-1.63,4,4,0,0,0-.83-4,6.38,6.38,0,0,0-1.07-11,8,8,0,0,0-5.41-11.9,6.07,6.07,0,0,0-.84-.12,16.18,16.18,0,0,0-28.37-6.15A14.62,14.62,0,0,0,382.31,584a11.21,11.21,0,0,0-3,14.56,3.76,3.76,0,0,0-2.13,4.08,9.25,9.25,0,0,0-6.92,7.2A9.71,9.71,0,0,0,370.06,611.82Z" transform="translate(-14.1 -521.69)"/><path class="cls-3" d="M335.34,694.65a1.87,1.87,0,0,0-1.35.13c-.44.36-7.69-.19-7.69-.19.25,2.94-4.73,1.54.35,2.74l.08,5.64,6.73.53s4.1-1.73,4.1-2.3S335.34,694.65,335.34,694.65Z" transform="translate(-14.1 -521.69)"/><path class="cls-4" d="M350.43,899.69a1.53,1.53,0,1,0,3,.5c1.05-6.23,5.33-31.69,9.57-56.81s8.46-49.94,9.33-54.63c.82-4.48,2.06-7.37,3.75-9.11s3.67-2.24,6.31-2.24H398.1c2.65,0,4.74.55,6.3,2.13s2.91,4.58,3.77,9.22,5,29.29,9.3,54.5S426,894,427.06,900.19a1.53,1.53,0,1,0,3-.5c-1-6.23-5.34-31.78-9.59-56.94s-8.44-49.82-9.32-54.55c-1-5.29-2.48-8.7-4.6-10.83s-5-3-8.47-3H382.41c-3.45,0-6.26.88-8.5,3.17s-3.63,5.58-4.57,10.69c-.91,4.9-5.1,29.63-9.34,54.68S351.48,893.46,350.43,899.69Z" transform="translate(-14.1 -521.69)"/><path class="cls-5" d="M329.85,899.69a1.53,1.53,0,1,0,3,.5c1.05-6.23,5.33-31.69,9.57-56.81s8.46-49.94,9.33-54.63c.82-4.48,2.06-7.37,3.75-9.11s3.67-2.24,6.31-2.24h53.45c2.64,0,4.73.55,6.29,2.13s2.91,4.58,3.77,9.22,5,29.29,9.3,54.5,8.55,50.71,9.6,56.94a1.53,1.53,0,1,0,3-.5c-1-6.23-5.34-31.78-9.59-56.94s-8.44-49.82-9.31-54.55c-1-5.29-2.49-8.7-4.61-10.83s-5-3-8.46-3H361.83c-3.45,0-6.26.88-8.5,3.17s-3.63,5.58-4.57,10.69c-.9,4.9-5.1,29.63-9.34,54.68S330.9,893.46,329.85,899.69Z" transform="translate(-14.1 -521.69)"/><path class="cls-6" d="M369.29,774.34h-6c-21.9,0-23.72-17.86-15.22-32.86l6.28-11.1c4.31-7.62,8.28-8.61,15.24-8.61h20.89c12.55,0,11.4-3.07,18.68-10.85s12.91-18.71,29.8-18.71,17.05,13.91,17.05,21.19,5.14,8.37,5.14,8.37l-21.53,8-34.77,44.55Z" transform="translate(-14.1 -521.69)"/><path class="cls-7" d="M387.21,635.66s-3.4.39-6.06,5.12-14.56,46.79-14.56,46.79l-31.27,6a1.72,1.72,0,0,0-1.33,1.18,3,3,0,0,1,1.75,3.07v9.66h45.38Z" transform="translate(-14.1 -521.69)"/><path class="cls-3" d="M375.21,696.28l-2.71,0c-9.21-.16-16.68,3-16.68,7.1,0,2.19,10.4-.49,10.4-.49s12-.61,12-.9S375.21,696.28,375.21,696.28Z" transform="translate(-14.1 -521.69)"/><path class="cls-3" d="M410.1,643.41h0a8.5,8.5,0,0,0,8.48-8.48V622.34a8.5,8.5,0,0,0-8.48-8.48h0a8.5,8.5,0,0,0-8.47,8.48v12.59A8.5,8.5,0,0,0,410.1,643.41Z" transform="translate(-14.1 -521.69)"/><path class="cls-8" d="M418.58,625.73v-3.39a8.5,8.5,0,0,0-8.48-8.48h0a8.5,8.5,0,0,0-8.47,8.48v8.16a16.62,16.62,0,0,0,2.29.53C409.1,631.83,414.34,629.51,418.58,625.73Z" transform="translate(-14.1 -521.69)"/><path class="cls-9" d="M387.21,635.66s-4.59,11.71-5.5,13.46-4.55,9.58-5.31,13.5.76,9.44,2.28,12.41L376.1,716.8h57l1.09-79.42-15.61-5.06-12.06,3.11-4.89-3.28Z" transform="translate(-14.1 -521.69)"/><path class="cls-7" d="M376.25,666.21a25.41,25.41,0,0,0,2.43,8.82,3.17,3.17,0,0,1,3.27-1.92h20.5c7.82,0,12.73,8.28,16.65,15.3s7.69,2.75,7.69,2.75l4.55-39-8.08-2.64L416.36,665a5.44,5.44,0,0,1-4.94,2.8H380.79A6.27,6.27,0,0,1,376.25,666.21Z" transform="translate(-14.1 -521.69)"/><polygon class="cls-7" points="363.54 170.03 363.28 174.23 363.28 174.23 368.75 177.93 398.31 166.65 363.54 170.03"/><path class="cls-9" d="M434.19,637.38s-8.06.17-10.64,10.83-1.06,38.46-1.06,38.46l-48.85,8.09a2.41,2.41,0,0,0-1.14,1.49s1.29.27,1.29,2.29v9h59.84c4.11,0,9.73-5.66,10-12.68.18-4.22.65-15.81,1-24.84C444.9,661.56,445.39,639.62,434.19,637.38Z" transform="translate(-14.1 -521.69)"/><polygon class="cls-5" points="392.42 113.74 398.49 119.4 406.44 111.27 404.48 107.56 404.48 109.27 392.42 113.74"/><polygon class="cls-5" points="387.52 109.61 392.42 113.74 387.87 118.05 385.68 110.92 387.52 108 387.52 109.61"/><path class="cls-10" d="M369.63,869.09l4.07,3.11-2.38,25.71s-.1,1.9-1,1.9h-1.42s-.67-.18-.6-1.32S369,873,369,873Z" transform="translate(-14.1 -521.69)"/><path class="cls-11" d="M368.05,860.4s5.33,3,5.79,4.07,1.6,6,.34,7.73-5,3.15-5.84,4.24-5.33,20-5.33,20a4.46,4.46,0,0,1-4.58,3.38H335.12a1.57,1.57,0,0,1-1.09-1.75,7,7,0,0,1,1.3-3,4.33,4.33,0,0,1,4.08-2l12.17-3.24,7.05-17.64,4.53-12.55S366.65,858.48,368.05,860.4Z" transform="translate(-14.1 -521.69)"/><path class="cls-12" d="M335.86,831c2.22,3.49,21.19,28.81,20.5,31.48-1,3.88-4.27,14.91-5.38,18.7-2.75,9.39-6.36,8.88-8,8.88a3.68,3.68,0,0,0-3.55,3H352.3a5.13,5.13,0,0,0,5-3.89c.8-2.41,6-23.89,6.47-26a4.06,4.06,0,0,1,4.24-2.81l-13.29-33.79Z" transform="translate(-14.1 -521.69)"/><path class="cls-8" d="M341.06,838.39c5.27,7.36,12.77,17.94,14.8,22.32l10.24-5.27-1.61-4.11-17.12-12.57Z" transform="translate(-14.1 -521.69)"/><path class="cls-13" d="M404,715.05l26.09,4.13a51.54,51.54,0,0,1,4.15,29.58c-2.52,17.19-9.85,25.67-32.53,25.67H340.07c-1.49,0,30,72.46,30.87,75.66s-41.7,16-60.71,8.94a4.1,4.1,0,0,1-1.49-3.09,45.56,45.56,0,0,1-.12-5.21s-32.31-9.28-37-16.73a4.49,4.49,0,0,1,0-2.78C272,830,285,785.73,298.47,759.48c16-31.08,42.39-27.53,73.45-27.08,0,0,1.19-10.73.84-15.77S404,715.05,404,715.05Z" transform="translate(-14.1 -521.69)"/><polygon class="cls-1" points="352.41 252.74 325.96 252.74 320.01 235.24 352.41 252.74"/><path class="cls-1" d="M404,715.05l26.09,4.13a51.54,51.54,0,0,1,4.15,29.58,41.43,41.43,0,0,1-3.62,12.69c-2-11.48-4.39-25.45-4.72-26.79-.58-2.31-3.79-2.26-3.79-2.26H371.92s1.19-10.73.84-15.77S404,715.05,404,715.05Z" transform="translate(-14.1 -521.69)"/><path class="cls-8" d="M389.46,596.55l-.44,0h0a5.88,5.88,0,1,0,6.49,6.51,5.83,5.83,0,0,0-1.72-4.86c0,1.74-.5,3.85-2.72,3.85l.39-3.37A2,2,0,0,0,389.46,596.55Z" transform="translate(-14.1 -521.69)"/><path class="cls-8" d="M428,600.5l.42.11h0a5.87,5.87,0,1,1-5,.71c-.31,1.71-.24,3.88,1.94,4.3l.26-3.38A2,2,0,0,1,428,600.5Z" transform="translate(-14.1 -521.69)"/><path class="cls-3" d="M405.75,627.8c10.91,1.12,21.39-11.41,22.48-22l1.45-14.12a20.17,20.17,0,0,0-17.95-22.06h0a20.18,20.18,0,0,0-22.07,17.95l-1.41,13.82C387.05,613,393.68,626.56,405.75,627.8Z" transform="translate(-14.1 -521.69)"/><path class="cls-14" d="M397.1,606.55A2.79,2.79,0,1,1,394,609,2.79,2.79,0,0,1,397.1,606.55Z" transform="translate(-14.1 -521.69)"/><path class="cls-14" d="M418.6,609.21a2.79,2.79,0,1,1-3.11,2.43A2.79,2.79,0,0,1,418.6,609.21Z" transform="translate(-14.1 -521.69)"/><path class="cls-1" d="M416,593.81a.84.84,0,1,0,.54,1.6,5.53,5.53,0,0,1,4.92.83.84.84,0,0,0,1-1.33A7.34,7.34,0,0,0,416,593.81Z" transform="translate(-14.1 -521.69)"/><path class="cls-1" d="M396.13,592.16a.83.83,0,0,0-.44,1.1.84.84,0,0,0,1.1.45,5.48,5.48,0,0,1,5,.42.84.84,0,1,0,.93-1.41A7.27,7.27,0,0,0,396.13,592.16Z" transform="translate(-14.1 -521.69)"/><path class="cls-15" d="M461.68,722.52c-3.18,1-5.7,3.16-8.36,7.86C449,738,431.47,769,431.47,769a10.47,10.47,0,0,1-9.19,5.38H393.22a10.47,10.47,0,0,0,9.19-5.38s17.55-31,21.86-38.58,8.27-8.61,15.23-8.61h22.18Z" transform="translate(-14.1 -521.69)"/><path class="cls-6" d="M423.07,732.5l.24-.43.27-.47.24-.44.23-.41.22-.37c3.34-5.93,6.49-7.84,11-8.4,2.27,7.16,5.6,18.46,7.38,27.25L432,768.1c-2.46-13.85-5.83-32.37-6.09-33.44A3.32,3.32,0,0,0,423.07,732.5Z" transform="translate(-14.1 -521.69)"/><path class="cls-12" d="M407.55,605a17.65,17.65,0,0,0-1.3,3c0,.44,2.21,1.07,2.85.56.43-.34.12-2-.19-3.2C408.5,603.84,408.19,603.69,407.55,605Z" transform="translate(-14.1 -521.69)"/><path class="cls-1" d="M399.27,603.46a2.4,2.4,0,0,1-2.14-2.63,2.71,2.71,0,0,1,.11-.51l-.26-.13a2.41,2.41,0,0,1-.78-.61.3.3,0,1,1,.45-.39,1.84,1.84,0,0,0,.78.54h0a1.94,1.94,0,0,1-.66-.85.3.3,0,0,1,.56-.22,1.38,1.38,0,0,0,.56.66l0,0a1.34,1.34,0,0,1-.37-.7.3.3,0,0,1,.25-.35.29.29,0,0,1,.34.25.75.75,0,0,0,.28.45,2.36,2.36,0,0,1,1.35-.26,2.4,2.4,0,0,1-.49,4.77Z" transform="translate(-14.1 -521.69)"/><path class="cls-1" d="M417,605.28a2.39,2.39,0,0,0,2.63-2.13,2.35,2.35,0,0,0,0-.53l.28-.07a2.46,2.46,0,0,0,.89-.44.29.29,0,0,0,.05-.42.3.3,0,0,0-.42-.06,1.75,1.75,0,0,1-.87.38h0a2,2,0,0,0,.82-.7.31.31,0,0,0-.09-.42.3.3,0,0,0-.41.09,1.33,1.33,0,0,1-.68.53l0,0a1.29,1.29,0,0,0,.5-.61.29.29,0,0,0-.17-.39.29.29,0,0,0-.38.16.74.74,0,0,1-.37.39,2.4,2.4,0,1,0-1.76,4.24Z" transform="translate(-14.1 -521.69)"/><path class="cls-5" d="M402.57,613.94a4.22,4.22,0,1,0,8.4.86.76.76,0,0,0-.69-.85l-6.86-.71A.78.78,0,0,0,402.57,613.94Z" transform="translate(-14.1 -521.69)"/><path class="cls-5" d="M409.86,613.9l-6-.61-.07.71a.67.67,0,0,0,.6.74l4.67.48a.67.67,0,0,0,.74-.6Z" transform="translate(-14.1 -521.69)"/><path class="cls-5" d="M403.43,617a4.23,4.23,0,1,0,3.18-1A4.24,4.24,0,0,0,403.43,617Z" transform="translate(-14.1 -521.69)"/><path class="cls-1" d="M388.25,601.35s3.41-1.84,3.16-6.94c0,0,12.84-8.56,4.77-19.1S385,593.91,385,593.91l1.14,3.83S388.6,597.87,388.25,601.35Z" transform="translate(-14.1 -521.69)"/><path class="cls-1" d="M428.27,605.45s-2.72-2.77-1-7.57c0,0-9.76-12,1.05-19.66s5.24,21.07,5.24,21.07l-2.22,3.32S429,602,428.27,605.45Z" transform="translate(-14.1 -521.69)"/><path class="cls-1" d="M401.37,583.21a14.82,14.82,0,1,0-14.82-14.82A14.85,14.85,0,0,0,401.37,583.21Z" transform="translate(-14.1 -521.69)"/><path class="cls-1" d="M419,588.81a10.54,10.54,0,1,0-10.54-10.54A10.55,10.55,0,0,0,419,588.81Z" transform="translate(-14.1 -521.69)"/><path class="cls-16" d="M261.5,554H201.94a12.92,12.92,0,0,0-12.88,12.88h0a12.92,12.92,0,0,0,12.88,12.88h-1.28a6,6,0,0,1,6,6h0a6.05,6.05,0,0,1-6,6h-31.3a12.92,12.92,0,0,0-12.88,12.88h0a12.92,12.92,0,0,0,12.88,12.88h59.57A12.91,12.91,0,0,0,241.8,604.7h0a12.91,12.91,0,0,0-12.87-12.88h-.1a6.06,6.06,0,0,1-6-6h0a6.05,6.05,0,0,1,6-6H261.5a12.92,12.92,0,0,0,12.88-12.88h0A12.92,12.92,0,0,0,261.5,554Z" transform="translate(-14.1 -521.69)"/><path class="cls-17" d="M53.38,785h60.94a13.22,13.22,0,0,1,13.18,13.17h0a13.22,13.22,0,0,1-13.18,13.18h1.32a6.2,6.2,0,0,0-6.18,6.18h0a6.19,6.19,0,0,0,6.18,6.17h32a13.22,13.22,0,0,1,13.18,13.18h0A13.22,13.22,0,0,1,147.65,850H86.72a13.22,13.22,0,0,1-13.18-13.18h0a13.22,13.22,0,0,1,13.18-13.18h.1A6.19,6.19,0,0,0,93,817.49h0a6.19,6.19,0,0,0-6.17-6.18H53.38a13.22,13.22,0,0,1-13.17-13.18h0A13.21,13.21,0,0,1,53.38,785Z" transform="translate(-14.1 -521.69)"/><path class="cls-17" d="M271.36,602.37H332.3a13.22,13.22,0,0,1,13.17,13.18h0a13.22,13.22,0,0,1-13.17,13.18h1.31a6.19,6.19,0,0,0-6.17,6.17h0a6.19,6.19,0,0,0,6.17,6.18h32a13.22,13.22,0,0,1,13.18,13.18h0a13.22,13.22,0,0,1-13.18,13.17H304.69a13.21,13.21,0,0,1-13.17-13.17h0a13.21,13.21,0,0,1,13.17-13.18h.1A6.2,6.2,0,0,0,311,634.9h0a6.19,6.19,0,0,0-6.18-6.17H271.36a13.22,13.22,0,0,1-13.18-13.18h0A13.22,13.22,0,0,1,271.36,602.37Z" transform="translate(-14.1 -521.69)"/><path class="cls-5" d="M290.43,535.37h0a1.36,1.36,0,0,1,1.36,1.35v6.43a1.36,1.36,0,0,1-1.36,1.36h0a1.36,1.36,0,0,1-1.35-1.36v-6.43A1.36,1.36,0,0,1,290.43,535.37Z" transform="translate(-14.1 -521.69)"/><path class="cls-5" d="M295,539.94h0a1.36,1.36,0,0,1-1.36,1.35h-6.43a1.36,1.36,0,0,1-1.36-1.35h0a1.36,1.36,0,0,1,1.36-1.36h6.43A1.36,1.36,0,0,1,295,539.94Z" transform="translate(-14.1 -521.69)"/><path class="cls-5" d="M45.42,843.61h0A1.36,1.36,0,0,1,46.78,845v6.44a1.36,1.36,0,0,1-1.36,1.35h0a1.36,1.36,0,0,1-1.35-1.35V845A1.36,1.36,0,0,1,45.42,843.61Z" transform="translate(-14.1 -521.69)"/><path class="cls-5" d="M50,848.18h0a1.37,1.37,0,0,1-1.36,1.36H42.21a1.36,1.36,0,0,1-1.36-1.36h0a1.36,1.36,0,0,1,1.36-1.36h6.43A1.37,1.37,0,0,1,50,848.18Z" transform="translate(-14.1 -521.69)"/><path class="cls-5" d="M402.4,856.78h0a1.36,1.36,0,0,1,1.36,1.36v6.43a1.36,1.36,0,0,1-1.36,1.36h0a1.36,1.36,0,0,1-1.35-1.36v-6.43A1.36,1.36,0,0,1,402.4,856.78Z" transform="translate(-14.1 -521.69)"/><path class="cls-5" d="M407,861.35h0a1.36,1.36,0,0,1-1.36,1.36h-6.43a1.36,1.36,0,0,1-1.36-1.36h0a1.36,1.36,0,0,1,1.36-1.35h6.43A1.36,1.36,0,0,1,407,861.35Z" transform="translate(-14.1 -521.69)"/><path class="cls-5" d="M248.28,615.72h0a1.36,1.36,0,0,1,1.36,1.36v6.43a1.36,1.36,0,0,1-1.36,1.36h0a1.37,1.37,0,0,1-1.36-1.36v-6.43A1.37,1.37,0,0,1,248.28,615.72Z" transform="translate(-14.1 -521.69)"/><path class="cls-5" d="M252.85,620.29h0a1.35,1.35,0,0,1-1.35,1.36h-6.43a1.36,1.36,0,0,1-1.36-1.36h0a1.37,1.37,0,0,1,1.36-1.36h6.43A1.36,1.36,0,0,1,252.85,620.29Z" transform="translate(-14.1 -521.69)"/><rect class="cls-18" x="100.94" y="180.14" width="30.67" height="2.81"/><path class="cls-9" d="M118.82,702.08a.61.61,0,0,0,.61-.61.61.61,0,0,0-.61-.61H97.16a2.38,2.38,0,0,0-1.68.7h0a2.35,2.35,0,0,0,0,3.35,2.32,2.32,0,0,0,1.68.7h21.66a.61.61,0,1,0,0-1.21h-1a4.81,4.81,0,0,1-.48-.42,1.25,1.25,0,0,1-.44-1,1.42,1.42,0,0,1,.57-.94Z" transform="translate(-14.1 -521.69)"/><path class="cls-19" d="M145.71,702.08a.61.61,0,0,0,.61-.61.61.61,0,0,0-.61-.61H118.54a2.38,2.38,0,0,0-1.68.7h0a2.38,2.38,0,0,0,1.68,4.05h27.17a.61.61,0,1,0,0-1.21H118.54a1.16,1.16,0,0,1,0-2.32Z" transform="translate(-14.1 -521.69)"/><rect class="cls-18" x="84.01" y="174.77" width="25.71" height="3.41"/><path class="cls-20" d="M119.24,696.75a.74.74,0,1,1,0-1.47h20a2.91,2.91,0,0,1,2,.84h0a2.88,2.88,0,0,1-2,4.91h-20a.74.74,0,1,1,0-1.47h1.2a4.61,4.61,0,0,0,.58-.51,1.54,1.54,0,0,0,.54-1.16,1.76,1.76,0,0,0-.69-1.15Z" transform="translate(-14.1 -521.69)"/><path class="cls-1" d="M98.11,696.75a.74.74,0,1,1,0-1.47h21.47a2.86,2.86,0,0,1,2,.84h0a2.88,2.88,0,0,1-2,4.91H98.11a.74.74,0,1,1,0-1.47h21.47a1.38,1.38,0,0,0,1-.42,1.37,1.37,0,0,0,.42-1,1.42,1.42,0,0,0-1.41-1.41Z" transform="translate(-14.1 -521.69)"/><rect class="cls-18" x="103.12" y="168.9" width="16.68" height="3.49"/><path class="cls-21" d="M121.92,690.89a.76.76,0,0,0,0-1.51h-12.3a2.94,2.94,0,0,0-2.08.86h0a3,3,0,0,0,2.08,5h12.3a.76.76,0,0,0,0-1.51h-1.23a5,5,0,0,1-.6-.52,1.61,1.61,0,0,1-.55-1.19,1.77,1.77,0,0,1,.71-1.17Z" transform="translate(-14.1 -521.69)"/><path class="cls-22" d="M133.91,690.89a.76.76,0,1,0,0-1.51H121.57a2.94,2.94,0,0,0-2.08.86h0a3,3,0,0,0,2.08,5h12.34a.76.76,0,1,0,0-1.51H121.57a1.4,1.4,0,0,1-1-.43,1.44,1.44,0,0,1,1-2.45Z" transform="translate(-14.1 -521.69)"/><path class="cls-23" d="M258.77,682.37a.3.3,0,0,1-.39.18.32.32,0,0,1-.18-.39s2.33-6.41,5.51-7.71a3.75,3.75,0,0,1,1.36-.31,3,3,0,0,1,2.05.71,5,5,0,0,1,1.37,2,11.5,11.5,0,0,1,.75,3.93.29.29,0,0,1-.29.31.29.29,0,0,1-.31-.29,10.8,10.8,0,0,0-.71-3.72,4.55,4.55,0,0,0-1.19-1.77,2.44,2.44,0,0,0-1.65-.57,3.29,3.29,0,0,0-1.15.27C261,676.21,258.78,682.35,258.77,682.37Z" transform="translate(-14.1 -521.69)"/><path class="cls-23" d="M260.28,662.67a.3.3,0,0,1-.34.26.29.29,0,0,1-.26-.34s.58-4.67,4.47-3.79c1.88.42,3.39,1.79,4.45,5.09s1.65,8.25,1.8,16.1a.31.31,0,0,1-.61,0c-.15-7.78-.76-12.78-1.77-15.92s-2.33-4.31-4-4.68C260.78,658.66,260.28,662.66,260.28,662.67Z" transform="translate(-14.1 -521.69)"/><path class="cls-23" d="M278.82,672.67a.3.3,0,0,1-.29.31.31.31,0,0,1-.32-.29s-.09-3.15-1.3-3.87a1.49,1.49,0,0,0-.8-.16,2.32,2.32,0,0,0-1.18.42,4.39,4.39,0,0,0-1.26,1.4c-1,1.68-1.71,4.69-1.42,9.84a.3.3,0,0,1-.29.31.29.29,0,0,1-.31-.28c-.3-5.28.45-8.41,1.5-10.18a4.82,4.82,0,0,1,1.44-1.59,3,3,0,0,1,1.48-.52,2,2,0,0,1,1.14.24C278.71,669.19,278.82,672.66,278.82,672.67Z" transform="translate(-14.1 -521.69)"/><path class="cls-23" d="M288.4,686.36a.29.29,0,0,1-.23.35.3.3,0,0,1-.36-.23s-2.32-11.42-6.78-12.31a6.64,6.64,0,0,0-1.48-.14,3.8,3.8,0,0,0-2.8,1.12,5.08,5.08,0,0,0-1.25,2.59v0a8.56,8.56,0,0,0-.15,1.75.3.3,0,0,1-.6,0,9.07,9.07,0,0,1,.16-1.88h0a5.74,5.74,0,0,1,1.41-2.9,4.45,4.45,0,0,1,3.23-1.31,7.19,7.19,0,0,1,1.61.16C286,674.54,288.4,686.32,288.4,686.36Z" transform="translate(-14.1 -521.69)"/><path class="cls-7" d="M282.08,705.61s5-2.32,6.31-7a14,14,0,0,0-2.8-12.48c-2.59-3.16-2.62-5-2.63-6.28v-1.2a.54.54,0,0,0-.54-.54H262.8a.54.54,0,0,0-.54.54v1.2c0,1.27-.18,3.29-2.63,6.28a13.74,13.74,0,0,0-2.8,12.48c1.3,4.63,6.31,7,6.31,7Z" transform="translate(-14.1 -521.69)"/><path class="cls-9" d="M278.21,678.16H262.8a.54.54,0,0,0-.54.54v1.2c0,1.27-.18,3.29-2.63,6.28a13.74,13.74,0,0,0-2.8,12.48c1.3,4.63,6.31,7,6.31,7h14.73s5-2.32,6.31-7a14,14,0,0,0-2.8-12.48c-2.59-3.16-2.62-5-2.63-6.28v-1.2A.54.54,0,0,0,278.21,678.16Z" transform="translate(-14.1 -521.69)"/><path class="cls-5" d="M262.25,680.09A7.37,7.37,0,0,1,262,682h17a7.18,7.18,0,0,1-.25-1.9Zm-.43,2.43c-.06.16-.12.33-.2.5h17.74l-.2-.5Z" transform="translate(-14.1 -521.69)"/><path class="cls-24" d="M271.53,678.54a7.53,7.53,0,0,0,2,4.34c.44.44,1.23-.49,1.58-1s1.25-1.08,1.75-.39-.24,1.39-.8,2.07-.14,1-.12,1a7.58,7.58,0,0,0,3.94.64l-1.44-13.51h0s-.26-1.49-1.26-1.34a7.56,7.56,0,0,0-2.62,1.25s-.33.46.33,1,1.56,1.07,1.22,1.85-1.33.39-1.79,0-1.42-1.14-1.75-.62a7.53,7.53,0,0,0-1,4.67Zm3.58.92a1.18,1.18,0,1,1,1.05-1.29A1.17,1.17,0,0,1,275.11,679.46Z" transform="translate(-14.1 -521.69)"/><path class="cls-23" d="M286.58,676.93a7.55,7.55,0,0,1-1,4.66c-.34.52-1.31-.22-1.76-.61s-1.44-.79-1.79,0,.53,1.3,1.22,1.85.36,1,.34,1a7.49,7.49,0,0,1-3.72,1.46l-1.44-13.51h0s-.07-1.51.95-1.58a7.67,7.67,0,0,1,2.82.67s.42.38-.12,1-1.3,1.37-.8,2.06,1.39.11,1.75-.39,1.14-1.41,1.58-1a7.52,7.52,0,0,1,2,4.35Zm-3.3,1.66a1.18,1.18,0,1,0-1.29-1.05A1.17,1.17,0,0,0,283.28,678.59Z" transform="translate(-14.1 -521.69)"/><path class="cls-24" d="M296,690.44a7.58,7.58,0,0,1-.93,4.69c-.33.52-1.31-.2-1.76-.58s-1.46-.77-1.79,0,.55,1.29,1.25,1.82.37,1,.35,1a7.49,7.49,0,0,1-3.68,1.53l-1.7-13.48h0s-.1-1.51.91-1.6a7.54,7.54,0,0,1,2.84.62s.43.37-.1,1-1.27,1.4-.76,2.08,1.39.08,1.74-.42,1.12-1.43,1.57-1a7.6,7.6,0,0,1,2.06,4.3Zm-3.27,1.73a1.18,1.18,0,1,0-1.32-1A1.18,1.18,0,0,0,292.7,692.17Z" transform="translate(-14.1 -521.69)"/><path class="cls-23" d="M281,692.34a7.48,7.48,0,0,0,2.06,4.3c.45.43,1.22-.51,1.57-1s1.22-1.1,1.74-.42-.22,1.39-.77,2.08-.12,1-.09,1a7.59,7.59,0,0,0,4,.56l-1.7-13.48h0s-.29-1.48-1.29-1.32a7.45,7.45,0,0,0-2.59,1.31s-.33.46.35,1,1.58,1,1.25,1.82-1.32.42-1.79,0-1.44-1.11-1.76-.59a7.58,7.58,0,0,0-.93,4.69Zm3.59.86a1.18,1.18,0,0,1-.29-2.34,1.18,1.18,0,1,1,.29,2.34Z" transform="translate(-14.1 -521.69)"/><path class="cls-24" d="M249.72,684.1a7.52,7.52,0,0,0-.18,4.77c.2.59,1.32.11,1.85-.16s1.6-.4,1.74.44-.84,1.13-1.64,1.48-.58.85-.57.88a7.48,7.48,0,0,0,3.24,2.33l4.76-12.72h0s.43-1.45-.53-1.77a7.46,7.46,0,0,0-2.9-.05s-.5.26-.15,1,.92,1.66.27,2.2-1.37-.24-1.6-.81-.76-1.65-1.29-1.34a7.61,7.61,0,0,0-3,3.72Zm2.78,2.43a1.18,1.18,0,1,1,1.52-.69A1.17,1.17,0,0,1,252.5,686.53Z" transform="translate(-14.1 -521.69)"/><path class="cls-23" d="M263.9,689.41a7.54,7.54,0,0,1-3,3.71c-.54.32-1.07-.78-1.29-1.33s-.94-1.36-1.6-.81-.11,1.4.26,2.19-.11,1-.14,1a7.65,7.65,0,0,1-4-.37l4.76-12.72h0s.62-1.38,1.55-1A7.37,7.37,0,0,1,262.7,682s.2.53-.57.87-1.78.65-1.64,1.49,1.19.71,1.73.43,1.66-.74,1.85-.15a7.52,7.52,0,0,1-.17,4.77Zm-3.7,0a1.18,1.18,0,1,0-.69-1.51A1.17,1.17,0,0,0,260.2,689.41Z" transform="translate(-14.1 -521.69)"/><path class="cls-24" d="M251.38,664.12a7.51,7.51,0,0,0-.13,4.77c.2.59,1.32.11,1.85-.17s1.59-.42,1.74.42-.83,1.14-1.63,1.5-.57.85-.56.88a7.55,7.55,0,0,0,3.26,2.3l4.64-12.76h0s.42-1.46-.54-1.77a7.45,7.45,0,0,0-2.9,0s-.51.27-.14,1,.94,1.65.28,2.2-1.37-.23-1.6-.8-.77-1.64-1.31-1.32a7.53,7.53,0,0,0-3,3.74Zm2.81,2.41a1.18,1.18,0,0,1-.71-1.51,1.18,1.18,0,0,1,2.22.81A1.18,1.18,0,0,1,254.19,666.53Z" transform="translate(-14.1 -521.69)"/><path class="cls-23" d="M265.61,669.3a7.59,7.59,0,0,1-3,3.74c-.53.32-1.07-.77-1.3-1.32s-.95-1.35-1.61-.8-.09,1.41.29,2.2-.11,1-.14,1a7.53,7.53,0,0,1-4-.33l4.64-12.76h0s.61-1.39,1.55-1a7.75,7.75,0,0,1,2.24,1.85s.21.53-.56.88-1.78.66-1.63,1.5,1.2.7,1.74.42,1.65-.76,1.85-.18a7.54,7.54,0,0,1-.13,4.78Zm-3.7,0a1.18,1.18,0,1,0-.7-1.51A1.18,1.18,0,0,0,261.91,669.34Z" transform="translate(-14.1 -521.69)"/><path class="cls-6" d="M422.29,686.66h-6.37a4.52,4.52,0,0,0-4.51,4.5v5.37a4.52,4.52,0,0,0,4.51,4.5h6.37a4.51,4.51,0,0,0,4.5-4.5v-5.37a4.51,4.51,0,0,0-4.5-4.5Zm-6.37,1.75h6.37a2.77,2.77,0,0,1,2.76,2.75v5.37a2.77,2.77,0,0,1-2.76,2.76h-6.37a2.77,2.77,0,0,1-2.76-2.76v-5.37a2.77,2.77,0,0,1,2.76-2.75Z" transform="translate(-14.1 -521.69)"/><path class="cls-15" d="M417,694.57v6.85a4.2,4.2,0,0,0,4.19,4.19h6.19a4.2,4.2,0,0,0,4.2-4.19V685.1a1.43,1.43,0,0,0-1.42-1.42H418.4A1.42,1.42,0,0,0,417,685.1Z" transform="translate(-14.1 -521.69)"/><path class="cls-5" d="M429.05,673.3H425.8a.7.7,0,0,1-.7-.7h0a.7.7,0,0,1,.7-.7h5a1.83,1.83,0,0,0,1.83-1.82h0a1.83,1.83,0,0,0-1.83-1.83H413a1.84,1.84,0,0,0-1.83,1.83h0A1.84,1.84,0,0,0,413,671.9h7.78a.71.71,0,0,1,.7.7h0a.7.7,0,0,1-.7.7h-4a1.42,1.42,0,0,0-1.41,1.41h0a1.42,1.42,0,0,0,1.41,1.42h3.95a2.81,2.81,0,0,1,2.8,2.8v1.29a.67.67,0,0,0,.66.66h0a.67.67,0,0,0,.67-.66v-2.45a1.65,1.65,0,0,1,1.64-1.64h2.48a1.42,1.42,0,0,0,1.41-1.42h0a1.41,1.41,0,0,0-1.41-1.41Zm-20.38-5h0a1.84,1.84,0,0,0-1.83,1.83h0a1.84,1.84,0,0,0,1.83,1.82h0a1.83,1.83,0,0,0,1.82-1.82h0A1.83,1.83,0,0,0,408.67,668.25Z" transform="translate(-14.1 -521.69)"/><path class="cls-1" d="M378.83,710.18H315.52a4.58,4.58,0,0,1-4.57-4.57h0a4.59,4.59,0,0,1,4.57-4.57h63.31a4.59,4.59,0,0,1,4.58,4.57h0A4.58,4.58,0,0,1,378.83,710.18Z" transform="translate(-14.1 -521.69)"/><path class="cls-20" d="M378.83,710.18H363.94a4.58,4.58,0,0,1-4.57-4.57h0a4.59,4.59,0,0,1,4.57-4.57h14.89a4.59,4.59,0,0,1,4.58,4.57h0A4.58,4.58,0,0,1,378.83,710.18Z" transform="translate(-14.1 -521.69)"/><path class="cls-5" d="M362.75,677.79s.52-1.87,2.1-1.95,2.17,1.87,1.71,2.11A18.61,18.61,0,0,1,362.75,677.79Z" transform="translate(-14.1 -521.69)"/><path class="cls-5" d="M364.12,681.12l-.43-.08h0l-1.46-.31c1.75,4.79,6.62,4.1,4.7.42l-2.4-.5v.25a.25.25,0,0,1-.33.24Z" transform="translate(-14.1 -521.69)"/><path class="cls-1" d="M289.08,635.4h68.38a4.42,4.42,0,0,1,4.12,3.41l9.64,46.3a2.7,2.7,0,0,1-2.7,3.42H300.14a4.45,4.45,0,0,1-4.13-3.42l-9.64-46.3A2.7,2.7,0,0,1,289.08,635.4Z" transform="translate(-14.1 -521.69)"/><path class="cls-20" d="M289.08,635.4h66.14a4.43,4.43,0,0,1,4.12,3.41l9.64,46.3a2.71,2.71,0,0,1-2.71,3.42H300.14a4.45,4.45,0,0,1-4.13-3.42l-9.64-46.3A2.7,2.7,0,0,1,289.08,635.4Z" transform="translate(-14.1 -521.69)"/><path class="cls-13" d="M343.54,688.53H326.78a6.36,6.36,0,0,1-.48-1.24c0-.66,3.85-12.19,9.44-14l3.25-.07Z" transform="translate(-14.1 -521.69)"/><path class="cls-1" d="M295.4,667.66h66.41a1.71,1.71,0,0,1,1.6,1.32h0a1,1,0,0,1-1.05,1.32H296a1.71,1.71,0,0,1-1.6-1.32h0A1,1,0,0,1,295.4,667.66Z" transform="translate(-14.1 -521.69)"/><path class="cls-13" d="M297,671.68H361.9a2.69,2.69,0,0,1,2.5,2.07l2.25,10.81a1.63,1.63,0,0,1-1.64,2.07H300.09a2.7,2.7,0,0,1-2.5-2.07l-2.25-10.81A1.64,1.64,0,0,1,297,671.68Z" transform="translate(-14.1 -521.69)"/><path class="cls-1" d="M343,686.63H326.46c.79-2.61,4.36-11.75,9.28-13.34l3.25-.07Z" transform="translate(-14.1 -521.69)"/><path class="cls-1" d="M296,646.17h11.27a1.63,1.63,0,0,1,1.53,1.26l3.4,16.33a1,1,0,0,1-1,1.27H299.94a1.64,1.64,0,0,1-1.53-1.27L295,647.43A1,1,0,0,1,296,646.17Z" transform="translate(-14.1 -521.69)"/><path class="cls-1" d="M289.53,639.48h66.41a1.71,1.71,0,0,1,1.6,1.32h0a1,1,0,0,1-1,1.32H290.08a1.71,1.71,0,0,1-1.59-1.32h0A1,1,0,0,1,289.53,639.48Z" transform="translate(-14.1 -521.69)"/><path class="cls-1" d="M353.73,654.45h1.17a1,1,0,0,1,.92.76l.71,3.38a.61.61,0,0,1-.61.77h-1.17a1,1,0,0,1-.92-.77l-.71-3.38A.61.61,0,0,1,353.73,654.45Z" transform="translate(-14.1 -521.69)"/><path class="cls-1" d="M351.71,647.18h2.18a1.86,1.86,0,0,1,1.74,1.44L357,655a1.13,1.13,0,0,1-1.14,1.43h-2.19a1.85,1.85,0,0,1-1.73-1.43l-1.32-6.33A1.14,1.14,0,0,1,351.71,647.18Z" transform="translate(-14.1 -521.69)"/><path class="cls-1" d="M314.85,644.94h29.09a1.42,1.42,0,0,1,1.32,1.09l3.64,17.48a.86.86,0,0,1-.87,1.09H318.94a1.42,1.42,0,0,1-1.32-1.09L314,646A.87.87,0,0,1,314.85,644.94Z" transform="translate(-14.1 -521.69)"/><path class="cls-1" d="M336.55,673.64c.54,0,1.39.14,1.39-.4a1,1,0,0,0-1-1h-19.4a3.84,3.84,0,0,0-4,3.88c-.08,1.25-.61,5.17-1.21,9.41s-1.26,8.77-1.65,11.35a16,16,0,0,0-.17,2.18,7.94,7.94,0,0,0,1,4.06,4.91,4.91,0,0,0,3.72,2.39,8.12,8.12,0,0,0,1.13.08h20.76a1,1,0,0,0,1-1c0-.55-.89-.32-1.43-.32l-3.5-.66a5.57,5.57,0,0,1-.85-.06,3,3,0,0,1-2.32-1.46,6,6,0,0,1-.68-3.06,13.26,13.26,0,0,1,.15-1.89c.36-2.46,1.24-7,1.87-11.37s1.13-8.26,1.22-9.55a2,2,0,0,1,2-2.06h.1Z" transform="translate(-14.1 -521.69)"/><path class="cls-20" d="M338,674.22a1,1,0,0,0,0-2h-2a3.84,3.84,0,0,0-4,3.88c-.08,1.25-.61,5.17-1.21,9.41s-1.26,8.77-1.64,11.35a14.55,14.55,0,0,0-.17,2.18,7.85,7.85,0,0,0,1,4.06,4.89,4.89,0,0,0,3.71,2.39,8.12,8.12,0,0,0,1.13.08h13a1,1,0,0,0,0-2h-13a5.57,5.57,0,0,1-.85-.06,3.06,3.06,0,0,1-2.32-1.46,6,6,0,0,1-.68-3.06,13.26,13.26,0,0,1,.15-1.89c.37-2.46,1-7,1.65-11.37s1.13-8.26,1.22-9.55a2,2,0,0,1,2-2.06H338Z" transform="translate(-14.1 -521.69)"/><path class="cls-4" d="M216.35,899.69a1.53,1.53,0,1,1-3,.5c-1.05-6.23-5.33-31.69-9.58-56.81s-8.45-49.94-9.32-54.63c-.82-4.48-2.06-7.37-3.75-9.11a8.33,8.33,0,0,0-6.31-2.24h-15.7c-2.64,0-4.73.55-6.29,2.13s-2.91,4.58-3.77,9.22-5,29.29-9.3,54.5-8.55,50.71-9.6,56.94a1.53,1.53,0,1,1-3-.5c1-6.23,5.34-31.78,9.59-56.94s8.44-49.82,9.31-54.55c1-5.29,2.49-8.7,4.61-10.83s5-3,8.46-3h15.7c3.45,0,6.26.88,8.5,3.17s3.62,5.58,4.57,10.69c.9,4.9,5.1,29.63,9.33,54.68S215.3,893.46,216.35,899.69Z" transform="translate(-14.1 -521.69)"/><path class="cls-5" d="M236.92,899.69a1.53,1.53,0,1,1-3,.5c-1-6.23-5.33-31.69-9.58-56.81s-8.45-49.94-9.32-54.63c-.83-4.48-2.06-7.37-3.76-9.11s-3.67-2.24-6.3-2.24H151.5c-2.65,0-4.73.55-6.29,2.13s-2.92,4.58-3.77,9.22-5,29.29-9.3,54.5-8.55,50.71-9.6,56.94a1.53,1.53,0,0,1-3-.5c1-6.23,5.35-31.78,9.6-56.94s8.44-49.82,9.31-54.55c1-5.29,2.49-8.7,4.61-10.83s5-3,8.46-3H205c3.45,0,6.26.88,8.5,3.17s3.62,5.58,4.57,10.69c.9,4.9,5.1,29.63,9.33,54.68S235.88,893.46,236.92,899.69Z" transform="translate(-14.1 -521.69)"/><path class="cls-25" d="M197.48,774.34h6c21.91,0,23.72-17.86,15.23-32.86l-6.29-11.1c-4.3-7.62-8.27-8.61-15.23-8.61H176.26c-12.55,0-11.4-3.07-18.68-10.85s-12.91-18.71-29.8-18.71-17.06,13.91-17.06,21.19-5.13,8.37-5.13,8.37l21.53,8,34.77,44.55Z" transform="translate(-14.1 -521.69)"/><path class="cls-1" d="M208.25,697.31l-.74,2.11s-4.59-1.83-4.45-1.85,3.85-1.53,3.85-1.53Z" transform="translate(-14.1 -521.69)"/><path class="cls-8" d="M204.84,696.29l1.19.29,2.72,3.17h2.71v2.39s-7.28,1.77-7.74,1.77-6.09-.75-6.09-.75S195.2,697.77,204.84,696.29Z" transform="translate(-14.1 -521.69)"/><path class="cls-1" d="M136.05,598.47s2,21.32-3.63,30.71a1.57,1.57,0,0,0,.83,1.89c1.23.58,13.89,5.52,25.51,5.52s24.28-4.94,25.51-5.52a1.57,1.57,0,0,0,.82-1.89c-5.6-9.39-3.62-31.93-3.62-31.93l-22.71-4.54Z" transform="translate(-14.1 -521.69)"/><path class="cls-15" d="M175.38,641.83a9.53,9.53,0,0,1,4.47,2.55c1.64,1.91,9.31,24.29,11.78,31.7a18.53,18.53,0,0,0,2.78,4.43c2,2.36,13.58,16,13.58,16s.42.46.26.85c0,0-7.28.82-10.68,5.45a6.49,6.49,0,0,0-.74,1.7L181.55,689Z" transform="translate(-14.1 -521.69)"/><polygon class="cls-6" points="169.48 169.37 167.44 167.31 167.04 164.24 171.63 162.13 186.12 166.84 169.48 169.37"/><path class="cls-1" d="M98.27,638.22l-2.77-2.44s4.6-1.85,14-1.78A11.15,11.15,0,0,1,98.27,638.22Z" transform="translate(-14.1 -521.69)"/><polygon class="cls-8" points="82.56 108.8 83.78 116.15 90.91 116.83 94.09 114.59 93.44 114.1 91.9 108.33 82.56 108.8"/><path class="cls-15" d="M136.35,645s-6.26-2.41-6.51-2.3a6.25,6.25,0,0,0-2.06,1.56c-2.94,3.13-12.42,17-12.42,17s-1.85-17.43-2.54-20.38-1-6.65-3.29-6.86c0,0-8.24,2.94-14,1.78a3.94,3.94,0,0,0-1,3c.07,2.06,7.28,39.11,7.28,39.11s1.92,7.82,8.5,7.68c8-.16,15.54-7.7,22.63-14.34,3-2.84,6.08-4.9,8.89-7.16Z" transform="translate(-14.1 -521.69)"/><path class="cls-6" d="M120.27,654.17c-2.65,3.76-4.91,7.07-4.91,7.07l.81,8.58Z" transform="translate(-14.1 -521.69)"/><path class="cls-6" d="M123.59,679.59c3.19-2.51,6.3-5.51,9.32-8.34s5.81-4.71,8.51-6.86a25.18,25.18,0,0,0-.26-2.56l-1.75-6.14-7-.74Z" transform="translate(-14.1 -521.69)"/><path class="cls-10" d="M278.28,869.09l4.07,3.11L280,897.91s-.09,1.9-1,1.9h-1.42s-.67-.18-.61-1.32.68-25.47.68-25.47Z" transform="translate(-14.1 -521.69)"/><path class="cls-11" d="M276.63,860.4s5.33,3,5.79,4.07,1.6,6,.34,7.73-5,3.15-5.84,4.24-5.33,20-5.33,20a4.47,4.47,0,0,1-4.58,3.38H243.69a1.58,1.58,0,0,1-1.09-1.75,7.22,7.22,0,0,1,1.3-3,4.35,4.35,0,0,1,4.09-2l12.17-3.24,7-17.64,4.52-12.55S275.23,858.48,276.63,860.4Z" transform="translate(-14.1 -521.69)"/><path class="cls-12" d="M276.22,832.19s-14.06,39.91-16.78,49.2-6.29,8.79-7.94,8.79a3.64,3.64,0,0,0-3.51,3h12.75a5.07,5.07,0,0,0,5-3.85c.79-2.38,5.89-23.64,6.4-25.74a4,4,0,0,1,4.2-2.77l10.88-21.66Z" transform="translate(-14.1 -521.69)"/><polygon class="cls-8" points="269.28 325.09 273.11 317.48 266.21 313.11 263.69 312.96 260.9 315.49 269.28 325.09"/><path class="cls-1" d="M272.85,827.21c1.55-5.09,4.5-14.52,8.27-25.34l17.26,19.77,2.87,11.83-11.93-1.71,3.21,5.31Z" transform="translate(-14.1 -521.69)"/><path class="cls-15" d="M170.35,640.62l4.51,1a2.42,2.42,0,0,1,1.08.65c.31.42,11.23,21.89,11.23,21.89s2.84,5.79-2.95,14.3c0,0-4.31,27-3.4,32.68H135.66l2.5-15.43-5.25-24.46s.45-23.14-3.07-28.59L144.08,639Z" transform="translate(-14.1 -521.69)"/><path class="cls-6" d="M186.42,674.51a23.87,23.87,0,0,1-2.2,4s-.88,5.5-1.76,12l-9.4-2L170.3,683H147.12c-2.78,0-6.68,5.85-9.4,10.62l-4.81-22.39s.06-3.09,0-7.27h0a8.53,8.53,0,0,0,1.57,4.12l4.28,4.78a8.06,8.06,0,0,0,4.37,1.64Z" transform="translate(-14.1 -521.69)"/><path class="cls-3" d="M150.85,623.94V635.5c-.1,1-1.49,2-3.71,2.69,0,0,3.2,8.2,16.46,9.55h0c7.15-1.8,6.35-7.85,6.35-7.85h0a5.17,5.17,0,0,1-3.65-2.1,5.11,5.11,0,0,1-.67-3.36V623.94Z" transform="translate(-14.1 -521.69)"/><path class="cls-8" d="M150.85,623.94V634a16.51,16.51,0,0,0,6.8,1.45,15.21,15.21,0,0,0,7.95-2.4v-9.13Z" transform="translate(-14.1 -521.69)"/><path class="cls-3" d="M108.68,625.33a10.36,10.36,0,0,1,3.28-4.47c.89-.65-2.33-3.47-4.39.08,0,0-1.52,1.21-2.17.67s.12-11.84.2-13.07a1.3,1.3,0,0,0-1.74-1.29c-.44.28-.54,2.07-.82,4.33a26.06,26.06,0,0,1-.85,5c-.23.19-.74.1-1.07-1.19s-1.87-8.52-2.41-9a1.28,1.28,0,0,0-1.85,1.14c-.09,1.16,1.73,8.38,1.68,9.38s-1,.79-1.38.18-3.43-8.16-3.92-8.59-1.72.05-1.51,1.27,2.87,8.57,2.74,9.13-.93.86-2-.23-3.1-3.62-3.56-3.71-1.31,1.2-.4,2.52,3.06,4.67,3.31,5.2c1.35,2.83,1.79,5.77,3.14,7.83a5.91,5.91,0,0,0,2,1.85,8.55,8.55,0,0,0,6.77.72C107.53,631.82,107.43,628.69,108.68,625.33Z" transform="translate(-14.1 -521.69)"/><path class="cls-3" d="M284.73,799.93c1.85,2.83,4.44,6.71,5.95,8.72,2.55,3.39,13.43,12.07,14.13,12.64s4,.4,4.67.19-3.67,6-3.67,6l-6.07,2.42-19.1-11-1.55-2.69s.47-5.58-1.17-9.23a39.32,39.32,0,0,0-2.35-3.52C278.32,802.38,281.46,801.16,284.73,799.93Z" transform="translate(-14.1 -521.69)"/><path class="cls-19" d="M284.3,825.83l-.25,1.47,12,13.87,1.46-1.27-6.42-7.39c-1.26-1.46-1.55-4.06-.9-5.07S284.3,825.83,284.3,825.83Z" transform="translate(-14.1 -521.69)"/><path class="cls-9" d="M308.12,821.65a2.26,2.26,0,0,1-.2,1.27,30,30,0,0,1-4.91,4.66c-1,.56-2.51,1.25-6.45-1.24s-17.09-10.43-17.44-10.69l0-1a6,6,0,0,0-1.11.54c-.2.2.39,3.48.79,4.8s3.89,6.58,4.77,7.14,4.17-.42,10.65,2.52,7.92,6.22,12.05,2.64l9.77-8.49a2.34,2.34,0,0,0,.44-3.39c-.57-.44-3.36-.08-6.81.35A3.36,3.36,0,0,0,308.12,821.65Z" transform="translate(-14.1 -521.69)"/><path class="cls-3" d="M240.43,854.55c-.41,3.66.1,11.05-.06,14.73s2.91,19.44,3.09,20.41,3.08,3.1,3.79,3.38-7.22,2.49-7.22,2.49l-6.78-2.18-8.41-22.46.57-3.33s.48-.49,1.16-1.3c.89-1.06-.15-9.13,0-11.51C229.65,855.78,236.83,853.32,240.43,854.55Z" transform="translate(-14.1 -521.69)"/><path class="cls-19" d="M223.1,879.29l-1.23,1.05.5,20,2.1-.05s-.21-8.55-.26-10.65,1.51-4.49,2.75-4.88S223.1,879.29,223.1,879.29Z" transform="translate(-14.1 -521.69)"/><path class="cls-9" d="M246,892.28a2.5,2.5,0,0,1-1,.93,32.88,32.88,0,0,1-7.36.51c-1.26-.26-3-.7-4.55-5.52s-7.12-20.59-7.22-21.05l.7-.81a6,6,0,0,0-1.31-.31c-.31,0-2.09,3.19-2.66,4.58s-1.3,8.21-1,9.29,3.79,2.54,7.2,9.5,2.33,10.71,8.28,10.56l14.07-.35a2.55,2.55,0,0,0,2.73-2.54c-.18-.76-2.77-2.4-6-4.42A3.55,3.55,0,0,0,246,892.28Z" transform="translate(-14.1 -521.69)"/><path class="cls-1" d="M173.42,766.16l2.92,8.18h37.25c5.53,0,6.2,5.14,6.29,9.42.6,29.46-11.5,40.1-11.68,79.35.13.95,1,1.57,2.22,1.49,12.56,1.21,16.52-3.92,26.11-4.19h1.56a34.71,34.71,0,0,1,3.84.34c1.69-.13,2.28-.2,2.38-1.62.41-14-.83-46,.44-67.49,2.31-39.23-7-50.06-25.25-58.28-9.27-4.17-25.74-5.81-31.88-7-2.3-.46-4.25-8-4.25-8l-13,5.22-7.86,3.78-25.19-5-2.91,1.13s1.5,10.69,6.88,19.12S173.42,766.16,173.42,766.16Z" transform="translate(-14.1 -521.69)"/><path class="cls-20" d="M134.39,723.43s-2.91,15.77-1.35,24,10.61,27,26.82,27h16.48c5.25,0,36.71-20.94,40.52-22s5.63-1.64,10.72,5.5,14.65,44.4,30.25,64.84a1.89,1.89,0,0,0,2.68.06c13.13-6.7,13-14.67,25.76-20.47,1.36-1,1.35-1.71.67-3-10.66-17.85-43.51-68.13-48.53-73.6s-14-11.9-27.5-9.56-36.53,8.18-36.53,8.18a23.56,23.56,0,0,0-3.58-2.59C164.74,722.22,144.33,723.09,134.39,723.43Z" transform="translate(-14.1 -521.69)"/><path class="cls-1" d="M134.39,723.43s-1.14,6.18-1.61,12.81l106.12-10-.49-.56c-5-5.47-14-11.9-27.5-9.56s-36.53,8.18-36.53,8.18a23.56,23.56,0,0,0-3.58-2.59C164.74,722.22,144.33,723.09,134.39,723.43Z" transform="translate(-14.1 -521.69)"/><path class="cls-8" d="M139.36,603.21l-.43.07h0a5.88,5.88,0,1,0,4.91,1.15c.16,1.73-.1,3.88-2.31,4.11l0-3.38A2,2,0,0,0,139.36,603.21Z" transform="translate(-14.1 -521.69)"/><path class="cls-8" d="M178.08,603.2l.43.07h0a5.88,5.88,0,1,1-4.89,1.22c-.14,1.73.15,3.88,2.37,4.08l-.09-3.39A2,2,0,0,1,178.08,603.2Z" transform="translate(-14.1 -521.69)"/><path class="cls-3" d="M158.76,632.63c11,0,20.11-13.54,20.11-24.22V594.22a20.17,20.17,0,0,0-20.11-20.12h0a20.17,20.17,0,0,0-20.11,20.12v13.89C138.65,619.82,146.63,632.63,158.76,632.63Z" transform="translate(-14.1 -521.69)"/><path class="cls-14" d="M148,612.38a2.79,2.79,0,1,1-2.84,2.73A2.79,2.79,0,0,1,148,612.38Z" transform="translate(-14.1 -521.69)"/><path class="cls-14" d="M169.64,612.82a2.79,2.79,0,1,1-2.84,2.74A2.8,2.8,0,0,1,169.64,612.82Z" transform="translate(-14.1 -521.69)"/><path class="cls-1" d="M165.44,597.78a.84.84,0,0,0-.42,1.11.83.83,0,0,0,1.11.42,5.56,5.56,0,0,1,5,.32.85.85,0,0,0,1.17-.26.86.86,0,0,0-.27-1.17A7.32,7.32,0,0,0,165.44,597.78Z" transform="translate(-14.1 -521.69)"/><path class="cls-1" d="M145.55,598.15a.85.85,0,1,0,.82,1.48,5.49,5.49,0,0,1,5-.09.84.84,0,0,0,1.14-.36.85.85,0,0,0-.36-1.14A7.3,7.3,0,0,0,145.55,598.15Z" transform="translate(-14.1 -521.69)"/><path class="cls-12" d="M158.22,609.76a17.68,17.68,0,0,0-1,3.17c.08.44,2.31.84,2.9.27.38-.38-.1-2-.52-3.16C159,608.51,158.72,608.39,158.22,609.76Z" transform="translate(-14.1 -521.69)"/><path class="cls-1" d="M140.63,602.9a4.21,4.21,0,0,0,.83-.27c2.36-1.74,8-2.59,16.79-2.53h.92c8.78-.06,14.43.79,16.79,2.53a4.78,4.78,0,0,0,.87.27c.83.15,2,.47,2,.47v1.85s-1.08-.07-1.36.58-.52,3.33-1.29,4.9a7,7,0,0,1-5.76,4.21c-3.31.39-5.74-.37-7.63-2-2.28-2-2.44-5-2.15-7.46a5,5,0,0,0-2-.34,5.14,5.14,0,0,0-2,.34c.29,2.51.13,5.43-2.15,7.46-1.88,1.67-4.31,2.43-7.62,2a7,7,0,0,1-5.75-4.21c-.78-1.57-1-4.25-1.25-4.9s-1.31-.58-1.31-.58v-1.85s1.16-.32,2-.47Zm21.94,8.27h0a7.53,7.53,0,0,0,6.61,3c3.35-.07,4.95-1.42,6-3.23s1.5-4.88.74-6.41-3.29-2.64-6.92-2.62-5.74,1.61-6.47,2.71a6.07,6.07,0,0,0,.07,6.58Zm-3.86-7.12h0a9.37,9.37,0,0,1,2.35.27s.89-2,4.29-2.78a17.22,17.22,0,0,1,4.47-.48,71.7,71.7,0,0,0-10.65-.57h-.93a71.7,71.7,0,0,0-10.65.57,17.22,17.22,0,0,1,4.47.48c3.4.8,4.29,2.78,4.29,2.78a9.47,9.47,0,0,1,2.36-.27Zm-16.45,6.86h0c1,1.81,2.62,3.16,6,3.23a7.56,7.56,0,0,0,6.62-3,6.11,6.11,0,0,0,.07-6.58c-.74-1.1-2.85-2.69-6.48-2.71s-6.15,1.09-6.92,2.62S141.19,609,142.26,610.91Z" transform="translate(-14.1 -521.69)"/><path class="cls-1" d="M149.83,609.08a2.4,2.4,0,0,1-2.4-2.4,2.24,2.24,0,0,1,.06-.52l-.27-.1a2.31,2.31,0,0,1-.85-.53.3.3,0,0,1,0-.42.3.3,0,0,1,.43,0,1.84,1.84,0,0,0,.82.46h0a2,2,0,0,1-.75-.78.31.31,0,0,1,.13-.41.3.3,0,0,1,.4.13,1.34,1.34,0,0,0,.63.6l0,0a1.35,1.35,0,0,1-.44-.66.3.3,0,0,1,.21-.37.3.3,0,0,1,.37.21.75.75,0,0,0,.32.42,2.4,2.4,0,1,1,1.32,4.4Z" transform="translate(-14.1 -521.69)"/><path class="cls-1" d="M167.69,609.08a2.4,2.4,0,0,0,2.4-2.4,2.24,2.24,0,0,0-.06-.52l.27-.1a2.31,2.31,0,0,0,.85-.53.3.3,0,0,0,0-.42.3.3,0,0,0-.43,0,1.84,1.84,0,0,1-.82.46h0a2,2,0,0,0,.75-.78.31.31,0,0,0-.13-.41.3.3,0,0,0-.4.13,1.38,1.38,0,0,1-.63.6l0,0a1.35,1.35,0,0,0,.44-.66.3.3,0,0,0-.21-.37.3.3,0,0,0-.37.21.75.75,0,0,1-.32.42,2.4,2.4,0,1,0-1.32,4.4Z" transform="translate(-14.1 -521.69)"/><path class="cls-1" d="M154.53,617.8a4.23,4.23,0,0,0,8.46,0,.77.77,0,0,0-.78-.77h-6.9A.77.77,0,0,0,154.53,617.8Z" transform="translate(-14.1 -521.69)"/><path class="cls-5" d="M161.78,617h-6v.71a.68.68,0,0,0,.67.68h4.69a.68.68,0,0,0,.68-.68Z" transform="translate(-14.1 -521.69)"/><path class="cls-26" d="M155.7,620.72a4.21,4.21,0,1,0,3.06-1.32A4.19,4.19,0,0,0,155.7,620.72Z" transform="translate(-14.1 -521.69)"/><path class="cls-27" d="M105.09,722.52c3.18,1,5.71,3.16,8.36,7.86C117.76,738,135.31,769,135.31,769a10.47,10.47,0,0,0,9.19,5.38h29.06a10.47,10.47,0,0,1-9.19-5.38s-17.55-31-21.86-38.58-8.28-8.61-15.23-8.61H105.09Z" transform="translate(-14.1 -521.69)"/><path class="cls-7" d="M105.09,722.52c3.18,1,5.71,3.16,8.36,7.86l4.7,8.3,27-3.61-2.66-4.69c-4.3-7.62-8.28-8.61-15.23-8.61H105.09Z" transform="translate(-14.1 -521.69)"/><path class="cls-1" d="M178.87,607a9,9,0,0,1-2.32-6.26s-2.71-1-4.2-7.08-2.14-9.88-5.1-10.7-6.09,1.15-9.55,5.76-10.87,17-20.42,12.68-8.4-19.92,2.14-29C148,565,169.16,560,173.34,576.82c0,0,7.25.41,9.63,5.93s-2.39,15.44-2.71,21.18C180.26,603.93,178.87,604.4,178.87,607Z" transform="translate(-14.1 -521.69)"/><path class="cls-5" d="M147.14,638.19s4.57,8.7,16.46,9.55l-4.09,8.42a2.67,2.67,0,0,1-3.25,1.16c-2.1-.83-13.21-16.27-13.21-16.27s-.8-1.29,0-2S147.14,638.19,147.14,638.19Z" transform="translate(-14.1 -521.69)"/><path class="cls-5" d="M163.6,647.74s5.51-.9,6.36-7.73l2.11.3a1.15,1.15,0,0,1,.88.76c.29.7.17,12.81.17,12.81s-.12,1.85-1.4,2.1-2.42-.79-2.94-1.26S163.6,647.74,163.6,647.74Z" transform="translate(-14.1 -521.69)"/><path class="cls-1" d="M155.14,709.63h55.58a4,4,0,0,0,4-4h0a4,4,0,0,0-4-4H155.14a4,4,0,0,0-4,4h0A4,4,0,0,0,155.14,709.63Z" transform="translate(-14.1 -521.69)"/><path class="cls-20" d="M155.14,709.63h13.07a4,4,0,0,0,4-4h0a4,4,0,0,0-4-4H155.14a4,4,0,0,0-4,4h0A4,4,0,0,0,155.14,709.63Z" transform="translate(-14.1 -521.69)"/><path class="cls-5" d="M178.33,677.79s-.52-1.87-2.09-1.95-2.18,1.87-1.71,2.11A18.51,18.51,0,0,0,178.33,677.79Z" transform="translate(-14.1 -521.69)"/><path class="cls-5" d="M177,681.12l.43-.08h0l1.46-.31c-1.74,4.79-6.62,4.1-4.7.42l2.41-.5v.25a.25.25,0,0,0,.32.24Z" transform="translate(-14.1 -521.69)"/><path class="cls-1" d="M252,635.4H183.63a4.44,4.44,0,0,0-4.13,3.41l-9.63,46.3a2.7,2.7,0,0,0,2.7,3.42H241a4.43,4.43,0,0,0,4.12-3.42l9.64-46.3A2.69,2.69,0,0,0,252,635.4Z" transform="translate(-14.1 -521.69)"/><path class="cls-20" d="M252,635.4H185.87a4.42,4.42,0,0,0-4.12,3.41l-9.64,46.3a2.7,2.7,0,0,0,2.7,3.42H241a4.43,4.43,0,0,0,4.12-3.42l9.64-46.3A2.69,2.69,0,0,0,252,635.4Z" transform="translate(-14.1 -521.69)"/><path class="cls-20" d="M197.55,688.53h16.76a6,6,0,0,0,.47-1.24c0-.66-3.85-12.19-9.43-14l-3.26-.07Z" transform="translate(-14.1 -521.69)"/><path class="cls-1" d="M245.69,667.66H179.28a1.71,1.71,0,0,0-1.6,1.32h0a1,1,0,0,0,1,1.32h66.41a1.73,1.73,0,0,0,1.6-1.32h0A1,1,0,0,0,245.69,667.66Z" transform="translate(-14.1 -521.69)"/><path class="cls-13" d="M244.1,671.68H179.19a2.68,2.68,0,0,0-2.5,2.07l-2.25,10.81a1.63,1.63,0,0,0,1.63,2.07H241a2.69,2.69,0,0,0,2.5-2.07l2.25-10.81A1.63,1.63,0,0,0,244.1,671.68Z" transform="translate(-14.1 -521.69)"/><path class="cls-1" d="M198.11,686.63h16.51c-.78-2.61-4.35-11.75-9.27-13.34l-3.26-.07Z" transform="translate(-14.1 -521.69)"/><path class="cls-1" d="M245.07,646.17H233.8a1.63,1.63,0,0,0-1.52,1.26l-3.4,16.33a1,1,0,0,0,1,1.27h11.27a1.66,1.66,0,0,0,1.53-1.27l3.4-16.33A1,1,0,0,0,245.07,646.17Z" transform="translate(-14.1 -521.69)"/><path class="cls-1" d="M251.55,639.48H185.14a1.72,1.72,0,0,0-1.6,1.32h0a1,1,0,0,0,1.05,1.32H251a1.71,1.71,0,0,0,1.6-1.32h0A1,1,0,0,0,251.55,639.48Z" transform="translate(-14.1 -521.69)"/><path class="cls-1" d="M187.36,654.45h-1.17a1,1,0,0,0-.93.76l-.7,3.38a.61.61,0,0,0,.61.77h1.16a1,1,0,0,0,.93-.77l.7-3.38A.6.6,0,0,0,187.36,654.45Z" transform="translate(-14.1 -521.69)"/><path class="cls-1" d="M189.38,647.18h-2.19a1.88,1.88,0,0,0-1.74,1.44L184.14,655a1.13,1.13,0,0,0,1.14,1.43h2.18A1.87,1.87,0,0,0,189.2,655l1.31-6.33A1.13,1.13,0,0,0,189.38,647.18Z" transform="translate(-14.1 -521.69)"/><path class="cls-1" d="M226.24,644.94h-29.1a1.4,1.4,0,0,0-1.31,1.09l-3.64,17.48a.86.86,0,0,0,.86,1.09h29.1a1.42,1.42,0,0,0,1.32-1.09L227.1,646A.86.86,0,0,0,226.24,644.94Z" transform="translate(-14.1 -521.69)"/><path class="cls-1" d="M204.54,673.64c-.54,0-1.4.14-1.4-.4a1,1,0,0,1,1-1h19.41a3.83,3.83,0,0,1,4,3.88c.09,1.25.62,5.17,1.21,9.41s1.27,8.77,1.65,11.35a14.55,14.55,0,0,1,.17,2.18,7.85,7.85,0,0,1-1,4.06,4.91,4.91,0,0,1-3.71,2.39,8.23,8.23,0,0,1-1.13.08H204a1,1,0,0,1-1-1c0-.55.9-.32,1.44-.32l3.5-.66a5.35,5.35,0,0,0,.84-.06,3.07,3.07,0,0,0,2.33-1.46,6,6,0,0,0,.68-3.06,13.26,13.26,0,0,0-.15-1.89c-.37-2.46-1.25-7-1.87-11.37s-1.14-8.26-1.23-9.55a2,2,0,0,0-2-2.06h-.1Z" transform="translate(-14.1 -521.69)"/><path class="cls-20" d="M203.07,674.22a1,1,0,1,1,0-2h2a3.83,3.83,0,0,1,4,3.88c.09,1.25.61,5.17,1.21,9.41s1.27,8.77,1.65,11.35a14.55,14.55,0,0,1,.17,2.18,7.94,7.94,0,0,1-1,4.06,4.91,4.91,0,0,1-3.72,2.39,8,8,0,0,1-1.12.08h-13a1,1,0,1,1,0-2h13a5.44,5.44,0,0,0,.84-.06,3.08,3.08,0,0,0,2.33-1.46,6,6,0,0,0,.67-3.06,13.25,13.25,0,0,0-.14-1.89c-.37-2.46-1-7-1.65-11.37s-1.14-8.26-1.23-9.55a2,2,0,0,0-2-2.06h-2.06Z" transform="translate(-14.1 -521.69)"/><polygon class="cls-28" points="431.13 193.95 445.73 378.13 439.25 378.13 419.62 202.63 309.66 202.63 290.04 378.13 283.56 378.13 298.16 193.95 431.13 193.95"/><polygon class="cls-29" points="213.85 193.95 228.45 378.13 221.97 378.13 202.35 202.63 92.39 202.63 72.76 378.13 66.28 378.13 80.89 193.95 213.85 193.95"/><rect class="cls-30" x="70.95" y="183.93" width="335.05" height="11.19" rx="5.59"/><rect class="cls-31" x="285.26" y="183.93" width="158.77" height="11.19" rx="5.59"/></g></svg>