<svg xmlns="http://www.w3.org/2000/svg" viewBox="0 0 958.02 500"><defs><style>.cls-1{isolation:isolate;}.cls-18,.cls-2{fill:#f05832;}.cls-3{fill:#c73c27;}.cls-4{fill:#fefefe;opacity:0.12;}.cls-5{fill:#34251e;}.cls-10,.cls-23,.cls-6{fill:#ecedee;}.cls-7{fill:#cfcfd0;}.cls-8{fill:#a4a4a4;}.cls-21,.cls-22,.cls-24,.cls-25,.cls-26,.cls-28,.cls-32,.cls-9{fill:none;stroke-miterlimit:10;}.cls-9{stroke:#777;}.cls-10,.cls-18{opacity:0.37;}.cls-11{fill:#49bd97;}.cls-12,.cls-13{fill:#1f9874;}.cls-13,.cls-18,.cls-28,.cls-30,.cls-34{mix-blend-mode:multiply;}.cls-14{fill:#4d3529;}.cls-15{fill:#f7a89c;}.cls-16{fill:#fec853;}.cls-17{fill:#ef7d6e;}.cls-19,.cls-30{fill:#fb9623;}.cls-20{fill:#fff0d7;}.cls-21,.cls-25{stroke:#983533;}.cls-22{stroke:#070707;}.cls-23{opacity:0.22;}.cls-24,.cls-26{stroke:#4d3529;}.cls-24,.cls-25{stroke-linecap:round;}.cls-27{fill:#fff;opacity:0.41;mix-blend-mode:overlay;}.cls-28{stroke:#1f9874;}.cls-29{fill:#b82d29;}.cls-30{opacity:0.45;}.cls-31{fill:#851619;}.cls-32{stroke:#851619;}.cls-33,.cls-34{fill:#e5bb83;}</style></defs><title>contact-us</title><g class="cls-1"><g id="BACKGROUND"><rect class="cls-2" width="500" height="500"/></g><g id="OBJECTS"><ellipse class="cls-3" cx="754.9" cy="430.94" rx="141.58" ry="16.12"/><path class="cls-4" d="M724.5,368c-3.81.28-7.64.42-11.48.39-42.12-.3-92.12-17.27-115.69-53.43-20.61-31.6-30.86-73.8-25.22-111.28,5.3-35.23,27.45-65.16,60.54-78.44,37.22-15,80.36-3.67,116.65-22.94C802.12,74.23,872,87.8,913.53,130.12c36.79,37.52,49.67,101.63,42.66,152.63-3.54,25.78-15.92,51.3-37.51,65.82-17.18,11.55-38.69,15.24-59.36,14.19-16.62-.85-32.19-5.24-48.36-8.6-13-2.69-23.25,0-36.05,3.72C758.43,362.62,741.62,366.73,724.5,368Z"/><path class="cls-5" d="M744.06,357.61l18,27.26s-9.59,23.42-30,33c-1.3-10.73,5.6-30,5.6-30l-12.22-19.17Z"/><path class="cls-5" d="M762.09,384.87l-4.85-7.34s-11.73,21.56-20.1,27.55a2.64,2.64,0,0,1-3.94-1v0c-1,4.85-1.61,9.92-1.13,13.85C752.5,408.29,762.09,384.87,762.09,384.87Z"/><path class="cls-5" d="M744.06,357.61l-18.62,11.17,6.6,10.35c9.16-6.42,14.46-17.83,14.46-17.83h0Z"/><path class="cls-5" d="M718.4,308.27l-35.94-1.39a25.63,25.63,0,0,0,3.66,15L719,376.4c23.91-6.8,30.42-22.15,30.42-22.15l-31.6-45.71Z"/><polygon class="cls-6" points="706.21 268.53 668.74 199.89 621.49 199.89 658.63 268.53 706.21 268.53"/><rect class="cls-7" x="704.21" y="268.53" width="55.65" height="6.36"/><path class="cls-8" d="M749.32,268.53a11.45,11.45,0,0,0-4.46,6.36H761v-6.36Z"/><rect class="cls-8" x="656.63" y="268.53" width="47.57" height="6.36"/><polygon class="cls-7" points="704.21 268.53 666.74 199.89 619.49 199.89 656.63 268.53 704.21 268.53"/><rect class="cls-8" x="713.49" y="270.39" width="7.83" height="2.25"/><rect class="cls-8" x="725.65" y="270.39" width="7.83" height="2.25"/><ellipse class="cls-8" cx="660.99" cy="236.06" rx="5.5" ry="10.75" transform="translate(-6.94 451.7) rotate(-37.55)"/><line class="cls-9" x1="704.21" y1="268.53" x2="666.74" y2="199.89"/><polygon class="cls-10" points="619.49 199.89 698.99 268.53 656.63 268.53 619.49 199.89"/><path class="cls-11" d="M816.88,312.86l25.6-138.1-37.91-4.26a14.7,14.7,0,0,0-16,11.53L760.63,312.86Z"/><path class="cls-12" d="M816.88,312.86l29.61-132.34a4.75,4.75,0,0,0-3.92-5.74l-.09,0a4.75,4.75,0,0,0-5.36,3.64L806.25,312.86Z"/><path class="cls-13" d="M802.49,173.45s26.5,5.75,29.62,8.09c6,4.52,8.5,25.29,8.5,25.29l-23.73,106H771.42Z"/><path class="cls-12" d="M816.88,312.86l-2,7.61a13.2,13.2,0,0,1-12.77,9.89H713.49v-17.5Z"/><path class="cls-5" d="M780.6,343.89H764.71a3.37,3.37,0,0,1-3.37-3.37V330.36H784v10.16A3.37,3.37,0,0,1,780.6,343.89Z"/><path class="cls-14" d="M772.62,413.1h.07a3.71,3.71,0,0,0,3.71-3.71v-65.5h-7.5v65.5A3.72,3.72,0,0,0,772.62,413.1Z"/><path class="cls-5" d="M803.35,422.39s-4.25-14.4-30.7-15.15v15.15Z"/><ellipse class="cls-5" cx="772.65" cy="422.39" rx="30.7" ry="3"/><path class="cls-5" d="M742,422.39s4.25-14.4,30.69-15.15v15.15Z"/><path class="cls-15" d="M725,377.32l5.72,37.49S709.23,434.81,683,435c3.87-11.94,20.51-28.83,20.51-28.83L700,380Z"/><path class="cls-16" d="M730.75,414.81l-1.54-10.08s-22.86,17-34.59,19.22a3.08,3.08,0,0,1-3.67-3v0c-3.39,4.63-6.52,9.67-7.94,14C709.23,434.81,730.75,414.81,730.75,414.81Z"/><path class="cls-5" d="M725,377.32,700,380l1.9,14.12c12.77-2.3,23.92-11.73,23.92-11.73h0Z"/><path class="cls-15" d="M779,177.89l-.11,0A19,19,0,0,0,766,191.43l-9,35.63-19.24-39.12a4.09,4.09,0,0,0-5.39-1.9l0,0-4.64-9.27a2.21,2.21,0,0,0-3-1l0,0a2.24,2.24,0,0,0-1.06,2.62l3.12,9.92-5.22-7a2.22,2.22,0,0,0-3.26-.33l-.09.07a2.24,2.24,0,0,0-.63,2.37l1.87,5.61v.07a23.52,23.52,0,0,0,3.14,12.93l28.38,49.1a10.21,10.21,0,0,0,18.63-2.22L779,216.72Z"/><path class="cls-17" d="M765.74,254.27a9.83,9.83,0,0,0-15.76-4.6l.86,1.49A10.22,10.22,0,0,0,765.74,254.27Z"/><path class="cls-18" d="M769.47,248.94,779,216.72V179.27l-.4.1c-4.68,10.86-9.73,21.89-11.29,33.73-.68,5.22-.42,10.48-1.13,15.72a71.84,71.84,0,0,1-3.2,14.43,19,19,0,0,1-3.11,6.08,20.42,20.42,0,0,1-6.5,4.73A10.21,10.21,0,0,0,769.47,248.94Z"/><path class="cls-16" d="M806.25,174.14l20.24,10.21s-14,18.43-7.5,35.36l-10.5,55.18H762.74s10.25-46,10.5-51.5-4.25-10.75,0-25.25S779,177.89,779,177.89l17.12-5.63Z"/><path class="cls-19" d="M817.06,204.14s-14.2,50.44-22.45,57.66c-3.2,2.81-5.52,7.9-7.16,13.09h21L819,219.71a28.64,28.64,0,0,1-1.19-15.43Z"/><polygon class="cls-20" points="796.62 198.14 812.37 199.64 810.74 204.14 795.24 202.39 796.62 198.14"/><path class="cls-21" d="M732.32,186.06l2.33,7.66s-4,3.17,0,10.42"/><line class="cls-21" x1="719.32" y1="189.06" x2="723.32" y2="195.1"/><line class="cls-21" x1="756.99" y1="227.06" x2="762.74" y2="236.06"/><path class="cls-15" d="M826.49,184.35s6.83,4,10.16,24C839,222.28,842.25,249,844,264a9.77,9.77,0,0,1-9.71,10.93H757s.75-4.17,2.87-6.17c-3.54,1.34-5.54,3.67-6.21,6.17h-4.33s4.67-17.5,22.33-17.17,51.25-1.3,51.25-1.3L819,219.71S810.32,204.65,826.49,184.35Z"/><line class="cls-21" x1="822.9" y1="256.42" x2="835.02" y2="255.74"/><path class="cls-17" d="M832.11,271.06a12.15,12.15,0,0,0,.63,3.83h1.59A9.77,9.77,0,0,0,844,264c-.18-1.51-.38-3.15-.59-4.87A12,12,0,0,0,832.11,271.06Z"/><path class="cls-14" d="M808.49,274.89l-3.85,17.86a25.49,25.49,0,0,1-24.91,20.11H721.32l11,63.53s-14.33,13-42.83,8.5l-8.08-73.4a29.93,29.93,0,0,1,27.8-33.13l53.53-3.47Z"/><line class="cls-22" x1="721.32" y1="312.86" x2="719.82" y2="304.37"/><path class="cls-19" d="M773.24,223.39c-.07,1.4-.78,5.45-1.82,10.7h0a112.32,112.32,0,0,1,7.57,9.69C783.59,250.24,773.24,223.39,773.24,223.39Z"/><path class="cls-18" d="M826.32,192.11a53.94,53.94,0,0,1,1.3,5.49,87.65,87.65,0,0,1,1.83,16.87c.26,10-1.45,20.87.84,30.69,2.11,9,6.92,17.16,12.82,24.24A9.78,9.78,0,0,0,844,264c-1.79-15-5.07-41.68-7.39-55.57-3.33-20-10.16-24-10.16-24l-20.24-10.21a143.55,143.55,0,0,1,15.34,12.12c1.21,1.11,2.78,2.1,3.66,3.48A10.94,10.94,0,0,1,826.32,192.11Z"/><path class="cls-23" d="M723.82,327.32c-23.09-.05-21.3,43.93-20.08,58.46,19-.73,28.58-9.39,28.58-9.39Z"/><path class="cls-21" d="M764.09,274.89s.65-4.72,4.24-6.36"/><path class="cls-14" d="M791.11,128.51s4.5-6.25,14.13-5.5,23,9.63,19.25,39.25a50.5,50.5,0,0,1-37.13,4.25,46.15,46.15,0,0,0,4-10.25Z"/><path class="cls-15" d="M809.27,149.75l-3,25.39s-7.41,11.29-13.89,8.87c-3.69-1.37,3.75-11.75,3.75-11.75l1.7-14.22Z"/><path class="cls-14" d="M809.15,150.78l0-.34-.49-.28L797.81,158l-.8,6.73h0C804.78,160.16,808.48,152.31,809.15,150.78Z"/><path class="cls-15" d="M791.11,128.51s-10.5,17.38-4.25,32.63c3.75,1.12,13.13.25,19.13-5.5,5.12-6.13,4.75-14.75,4.75-14.75S795.11,139.39,791.11,128.51Z"/><path class="cls-20" d="M811.49,138.63a6.85,6.85,0,0,0,2.75,3.63,23.88,23.88,0,0,0-.31-16.31,19,19,0,0,0-8.69-2.94,18.32,18.32,0,0,0-2.21,0C812.72,127.15,811.49,138.63,811.49,138.63Z"/><path class="cls-20" d="M808.49,155.89s-.64,1.26-2-.87-.74-13.38,2-17.26c.87-1.62,2-1,2.25,0C810.86,140,808.49,155.89,808.49,155.89Z"/><path class="cls-11" d="M810.74,137.76s6.5.8,6.12,7.28-3.12,11.72-8.37,10.85C806.61,149.76,809.37,140.14,810.74,137.76Z"/><path class="cls-24" d="M794.24,145.61s3.87-2.1,6.37.9"/><path class="cls-24" d="M787.86,144.89a3.51,3.51,0,0,0-2.38-.88"/><path class="cls-24" d="M795.49,140.27s4.63-2.12,7,1.38"/><path class="cls-24" d="M790,138.77a2.9,2.9,0,0,0-2.93-1"/><path class="cls-25" d="M787.06,152.64a11.3,11.3,0,0,0,5.93,0"/><path class="cls-26" d="M809.44,149.25s-5.83,5.21-10.7,6.73"/><path class="cls-11" d="M799,156a1.17,1.17,0,0,1-.88,1.42l-2.39.56a1.19,1.19,0,0,1-1.42-.88h0a1.19,1.19,0,0,1,.88-1.43l2.39-.56A1.18,1.18,0,0,1,799,156Z"/><path class="cls-27" d="M810.51,124.22h0l-.86-.3c-.09,0-.19-.06-.28-.09l-.76-.23-.32-.08-.72-.16-.33-.07c-.24-.05-.49-.09-.73-.12l-.29,0-1-.11c-.47,0-.92,0-1.36,0-8.68-.1-12.77,5.54-12.77,5.54a49.61,49.61,0,0,0-4.05,9.25h0a46.71,46.71,0,0,0-1.58,6.25h0a30.75,30.75,0,0,0,1.38,17.13,11.22,11.22,0,0,0,2.75.4c-.57,1.41-1.3,3.07-2.25,5,.52.14,1,.26,1.56.38a35.05,35.05,0,0,0,7.79-17.81C798.71,135.44,810.51,124.22,810.51,124.22Z"/><path class="cls-28" d="M813.61,138.77s-3.36,9.25-1.24,16.49"/><path class="cls-17" d="M787.36,148.51l2.63.74S788.49,150.51,787.36,148.51Z"/><circle class="cls-16" cx="852.58" cy="66.62" r="12.23"/><circle class="cls-29" cx="860.19" cy="127.91" r="7.61"/><circle class="cls-29" cx="931.99" cy="263.31" r="11.39" transform="translate(-34.32 328.02) rotate(-19.61)"/><circle class="cls-3" cx="610.07" cy="173.66" r="10.39" transform="translate(301.47 727.83) rotate(-76.78)"/><path class="cls-12" d="M778.24,66.62a6.82,6.82,0,1,1-6.82-6.82A6.82,6.82,0,0,1,778.24,66.62Z"/><path class="cls-12" d="M608.29,240.82a4.49,4.49,0,1,1-4.49-4.49A4.49,4.49,0,0,1,608.29,240.82Z"/><path class="cls-20" d="M690.4,82.16a40.28,40.28,0,0,0-7-16.56l5.18-5.17L679.11,51l-5.25,5.25a40.29,40.29,0,0,0-16.52-6.76V42.35H644V49.5a40,40,0,0,0-16.46,6.73l-4.4-4.39-9.41,9.41,4.3,4.3A40.14,40.14,0,0,0,610.82,83H605.1V96.33H611a40.13,40.13,0,0,0,7.39,17.11l-4.64,4.63,9.42,9.42,4.84-4.84a40.13,40.13,0,0,0,16.93,6.59v6.91H658.2V129a40.07,40.07,0,0,0,16.17-7l4.69,4.69,9.41-9.41-4.76-4.77a40.07,40.07,0,0,0,6.86-17h6.56V82.16Zm-39.23,36.11a29,29,0,1,1,29-29A29,29,0,0,1,651.17,118.27Z"/><path class="cls-20" d="M764.16,137.93l-16.3-19V90.05A9.07,9.07,0,0,0,738.79,81H652.71a9.07,9.07,0,0,0-9.07,9.07v54.86a9.07,9.07,0,0,0,9.07,9.07h86.08a9.07,9.07,0,0,0,9.07-9.07V130.42Z"/><rect class="cls-2" x="653.9" y="94.42" width="84.62" height="3.69"/><rect class="cls-2" x="653.9" y="105.03" width="84.62" height="3.69"/><rect class="cls-2" x="653.9" y="115.63" width="84.62" height="3.69"/><rect class="cls-2" x="653.9" y="126.24" width="84.62" height="3.69"/><rect class="cls-2" x="653.9" y="136.85" width="61.06" height="3.69"/><path class="cls-20" d="M728.17,54.44a19.53,19.53,0,0,0-3.47-8.13l2.55-2.55-4.63-4.63L720,41.72a19.78,19.78,0,0,0-8.12-3.33V34.88h-6.54v3.51a19.68,19.68,0,0,0-8.09,3.31l-2.16-2.16-4.63,4.63,2.12,2.11a19.59,19.59,0,0,0-3.56,8.58h-2.81v6.55h2.87a19.83,19.83,0,0,0,3.63,8.4l-2.27,2.28,4.62,4.63,2.38-2.38a19.69,19.69,0,0,0,8.32,3.24V81h6.54V77.44A19.77,19.77,0,0,0,720.29,74l2.3,2.3,4.63-4.62-2.34-2.34A19.68,19.68,0,0,0,728.25,61h3.23V54.44ZM708.89,72.19a14.27,14.27,0,1,1,14.26-14.26A14.26,14.26,0,0,1,708.89,72.19Z"/><path class="cls-20" d="M714.52,57.93a5.66,5.66,0,1,1-5.66-5.66A5.66,5.66,0,0,1,714.52,57.93Z"/><path class="cls-19" d="M858,246.55A44.07,44.07,0,0,1,851.2,215c7.81,4.28,21.62,22.33,18,38.77Z"/><path class="cls-30" d="M856.69,219.38a70.77,70.77,0,0,0,12.68,32.77,1.34,1.34,0,0,1,.11-.14C871.33,239.54,863.71,226.46,856.69,219.38Z"/><path class="cls-19" d="M881,250.22s12.6-9.61,18.2-28.39.4-28.1,2.81-43.65c-12.81,21.67-27.68,57.54-27.65,75C876.38,254.27,881,250.22,881,250.22Z"/><path class="cls-30" d="M876.47,252.15c3.67-4.18,7.87-20.69,9.88-42.36-6.07,14.51-10.8,29.23-11.81,39.57C875.7,251.16,876.47,252.15,876.47,252.15Z"/><path class="cls-16" d="M873.17,252.15s-15.6-20.11-12.6-45S881.84,162.9,881,142.69C889.18,190.78,880.23,244.14,873.17,252.15Z"/><path class="cls-19" d="M872.22,248.62s8.69-50.27,6.56-67.91c-2,20.34-9.21,66.22-9.21,66.22Z"/><path class="cls-30" d="M858,246.55l11.17,7.22c.13-.58.23-1.17.32-1.76h0c.11-.74.18-1.48.22-2.22,0-.07,0-.14,0-.21,0-.76,0-1.51,0-2.26h0a2.83,2.83,0,0,0,0-.29l.16.1a53.36,53.36,0,0,0,3.28,5,11,11,0,0,0,1.3-1.94c-.08,1-.13,2-.13,3,2,1.07,6.64-3,6.64-3a53.63,53.63,0,0,0,11.43-13.38c-10.8,5-29.38,4.54-37.63,4A34,34,0,0,0,858,246.55Z"/><polygon class="cls-3" points="870.99 243.78 850.84 243.78 858.24 271.37 870.99 271.37 883.73 271.37 891.13 243.78 870.99 243.78"/><rect class="cls-3" x="858.24" y="271.37" width="25.5" height="3.52"/><polygon class="cls-31" points="866.76 274.89 866.76 271.37 862.22 243.78 850.84 243.78 858.24 271.37 858.24 274.89 866.76 274.89"/><line class="cls-32" x1="858.24" y1="271.37" x2="883.73" y2="271.37"/><rect class="cls-14" x="670.93" y="295.89" width="7" height="138.92"/><rect class="cls-14" x="858.37" y="295.89" width="7" height="138.92"/><rect class="cls-14" x="854.99" y="284.89" width="22.5" height="11"/><rect class="cls-20" x="653.13" y="295.89" width="7" height="138.92"/><rect class="cls-33" x="653.13" y="295.89" width="7" height="16.97"/><rect class="cls-20" x="840.61" y="295.89" width="7" height="138.92"/><rect class="cls-33" x="840.61" y="295.89" width="7" height="16.97"/><rect class="cls-20" x="624.99" y="274.89" width="271.5" height="10"/><rect class="cls-33" x="870.99" y="274.89" width="25.5" height="10"/><rect class="cls-33" x="644.49" y="284.89" width="210.5" height="11"/><rect class="cls-34" x="644.49" y="284.89" width="233" height="3.5"/><line class="cls-21" x1="644.49" y1="288.39" x2="854.78" y2="288.39"/></g></g></svg>