<svg xmlns="http://www.w3.org/2000/svg" viewBox="0 0 387.45 412.18"><defs><style>.cls-1{isolation:isolate;}.cls-2{fill:#c73c27;}.cls-3{fill:#fefefe;opacity:0.12;}.cls-4{fill:#34251e;}.cls-22,.cls-5,.cls-9{fill:#ecedee;}.cls-6{fill:#cfcfd0;}.cls-7{fill:#a4a4a4;}.cls-20,.cls-21,.cls-23,.cls-24,.cls-25,.cls-27,.cls-32,.cls-8{fill:none;stroke-miterlimit:10;}.cls-8{stroke:#777;}.cls-17,.cls-9{opacity:0.37;}.cls-10{fill:#49bd97;}.cls-11,.cls-12{fill:#1f9874;}.cls-12,.cls-17,.cls-27,.cls-30,.cls-34{mix-blend-mode:multiply;}.cls-13{fill:#4d3529;}.cls-14{fill:#f7a89c;}.cls-15{fill:#fec853;}.cls-16{fill:#ef7d6e;}.cls-17,.cls-29{fill:#f05832;}.cls-18,.cls-30{fill:#fb9623;}.cls-19{fill:#fff0d7;}.cls-20,.cls-24{stroke:#983533;}.cls-21{stroke:#070707;}.cls-22{opacity:0.22;}.cls-23,.cls-25{stroke:#4d3529;}.cls-23,.cls-24{stroke-linecap:round;}.cls-26{fill:#fff;opacity:0.41;mix-blend-mode:overlay;}.cls-27{stroke:#1f9874;}.cls-28{fill:#b82d29;}.cls-30{opacity:0.45;}.cls-31{fill:#851619;}.cls-32{stroke:#851619;}.cls-33,.cls-34{fill:#e5bb83;}</style></defs><title>contact</title><g class="cls-1"><g id="OBJECTS"><ellipse class="cls-2" cx="184.33" cy="396.06" rx="141.58" ry="16.12"/><path class="cls-3" d="M841.12,406.42c-3.82.28-7.64.42-11.49.39-42.12-.3-92.11-17.27-115.69-53.43-20.61-31.6-30.85-73.8-25.22-111.28,5.3-35.23,27.45-65.16,60.55-78.44,37.21-14.94,80.35-3.67,116.64-22.94,52.82-28.06,122.74-14.49,164.23,27.83,36.79,37.52,49.68,101.63,42.67,152.63-3.55,25.78-15.93,51.3-37.52,65.82-17.17,11.55-38.68,15.24-59.36,14.19-16.62-.85-32.18-5.24-48.36-8.6-13-2.69-23.25,0-36.05,3.72C875,401.05,858.23,405.16,841.12,406.42Z" transform="translate(-687.19 -73.31)"/><path class="cls-4" d="M860.67,396l18,27.26s-9.59,23.42-30,33c-1.29-10.73,5.61-30,5.61-30l-12.22-19.17Z" transform="translate(-687.19 -73.31)"/><path class="cls-4" d="M878.71,423.3,873.85,416s-11.72,21.56-20.09,27.55a2.65,2.65,0,0,1-4-1v0c-1,4.85-1.61,9.92-1.14,13.85C869.12,446.72,878.71,423.3,878.71,423.3Z" transform="translate(-687.19 -73.31)"/><path class="cls-4" d="M860.67,396l-18.61,11.17,6.6,10.35c9.15-6.42,14.45-17.82,14.45-17.82h0Z" transform="translate(-687.19 -73.31)"/><path class="cls-4" d="M835,346.7l-35.93-1.39a25.62,25.62,0,0,0,3.65,15l32.88,54.48C859.53,408,866,392.68,866,392.68L834.44,347Z" transform="translate(-687.19 -73.31)"/><polygon class="cls-5" points="135.63 233.65 98.16 165.01 50.91 165.01 88.06 233.65 135.63 233.65"/><rect class="cls-6" x="133.63" y="233.65" width="55.65" height="6.36"/><path class="cls-7" d="M865.93,307a11.5,11.5,0,0,0-4.46,6.36H877.6V307Z" transform="translate(-687.19 -73.31)"/><rect class="cls-7" x="86.06" y="233.65" width="47.57" height="6.36"/><polygon class="cls-6" points="133.63 233.65 96.16 165.01 48.91 165.01 86.06 233.65 133.63 233.65"/><rect class="cls-7" x="142.91" y="235.51" width="7.83" height="2.25"/><rect class="cls-7" x="155.08" y="235.51" width="7.83" height="2.25"/><ellipse class="cls-7" cx="777.6" cy="274.49" rx="5.5" ry="10.75" transform="translate(-693.39 457.41) rotate(-37.55)"/><line class="cls-8" x1="133.63" y1="233.65" x2="96.16" y2="165.01"/><polygon class="cls-9" points="48.91 165.01 128.41 233.65 86.06 233.65 48.91 165.01"/><path class="cls-10" d="M933.49,351.29l25.6-138.1-37.91-4.26a14.68,14.68,0,0,0-16,11.53L877.24,351.29Z" transform="translate(-687.19 -73.31)"/><path class="cls-11" d="M933.49,351.29,963.11,219a4.76,4.76,0,0,0-3.92-5.74l-.1,0a4.76,4.76,0,0,0-5.36,3.64L922.86,351.29Z" transform="translate(-687.19 -73.31)"/><path class="cls-12" d="M919.11,211.88s26.49,5.75,29.61,8.09c6,4.52,8.5,25.29,8.5,25.29l-23.73,106H888Z" transform="translate(-687.19 -73.31)"/><path class="cls-11" d="M933.49,351.29l-2,7.61a13.19,13.19,0,0,1-12.77,9.89H830.1v-17.5Z" transform="translate(-687.19 -73.31)"/><path class="cls-4" d="M897.21,382.32H881.32A3.37,3.37,0,0,1,878,379V368.79h22.63V379A3.37,3.37,0,0,1,897.21,382.32Z" transform="translate(-687.19 -73.31)"/><path class="cls-13" d="M889.23,451.53h.07a3.72,3.72,0,0,0,3.72-3.71v-65.5h-7.5v65.5A3.71,3.71,0,0,0,889.23,451.53Z" transform="translate(-687.19 -73.31)"/><path class="cls-4" d="M920,460.82s-4.25-14.4-30.69-15.15v15.15Z" transform="translate(-687.19 -73.31)"/><ellipse class="cls-4" cx="202.08" cy="387.51" rx="30.7" ry="3"/><path class="cls-4" d="M858.57,460.82s4.25-14.4,30.7-15.15v15.15Z" transform="translate(-687.19 -73.31)"/><path class="cls-14" d="M841.65,415.75l5.71,37.5s-21.52,20-47.74,20.16c3.87-11.94,20.51-28.83,20.51-28.83l-3.53-26.14Z" transform="translate(-687.19 -73.31)"/><path class="cls-15" d="M847.36,453.25l-1.54-10.09s-22.85,17-34.59,19.22a3.07,3.07,0,0,1-3.66-3v0c-3.4,4.63-6.53,9.67-8,14C825.84,473.24,847.36,453.25,847.36,453.25Z" transform="translate(-687.19 -73.31)"/><path class="cls-4" d="M841.65,415.75l-25,2.69,1.91,14.12c12.76-2.3,23.91-11.73,23.91-11.73h0Z" transform="translate(-687.19 -73.31)"/><path class="cls-14" d="M895.6,216.32l-.1,0a19,19,0,0,0-12.86,13.51l-9,35.63-19.23-39.11a4.09,4.09,0,0,0-5.4-1.91l0,0-4.63-9.27a2.22,2.22,0,0,0-3.06-1l0,0a2.22,2.22,0,0,0-1.05,2.62l3.12,9.92-5.22-7a2.23,2.23,0,0,0-3.27-.33l-.08.07a2.22,2.22,0,0,0-.64,2.37l1.87,5.61v.07a23.52,23.52,0,0,0,3.14,12.93l28.39,49.1a10.2,10.2,0,0,0,18.62-2.22l9.52-32.22Z" transform="translate(-687.19 -73.31)"/><path class="cls-16" d="M882.35,292.7a9.82,9.82,0,0,0-15.75-4.6l.86,1.49A10.2,10.2,0,0,0,882.35,292.7Z" transform="translate(-687.19 -73.31)"/><path class="cls-17" d="M886.08,287.37l9.52-32.22V217.7l-.4.1c-4.68,10.86-9.73,21.89-11.28,33.73-.69,5.22-.43,10.48-1.13,15.72a72.56,72.56,0,0,1-3.21,14.43,18.64,18.64,0,0,1-3.11,6.08,20.31,20.31,0,0,1-6.5,4.73A10.21,10.21,0,0,0,886.08,287.37Z" transform="translate(-687.19 -73.31)"/><path class="cls-15" d="M922.86,212.57l20.24,10.21s-14,18.43-7.5,35.36l-10.5,55.18H879.35s10.25-46,10.5-51.5-4.25-10.75,0-25.25,5.75-20.25,5.75-20.25l17.12-5.63Z" transform="translate(-687.19 -73.31)"/><path class="cls-18" d="M933.67,242.57s-14.2,50.44-22.45,57.66c-3.2,2.81-5.51,7.9-7.15,13.09h21l10.5-55.18a28.63,28.63,0,0,1-1.19-15.43Z" transform="translate(-687.19 -73.31)"/><polygon class="cls-19" points="226.04 163.26 241.79 164.76 240.16 169.26 224.66 167.51 226.04 163.26"/><path class="cls-20" d="M848.93,224.49l2.34,7.66s-4,3.17,0,10.42" transform="translate(-687.19 -73.31)"/><line class="cls-20" x1="148.74" y1="154.18" x2="152.74" y2="160.22"/><line class="cls-20" x1="186.41" y1="192.18" x2="192.16" y2="201.18"/><path class="cls-14" d="M943.1,222.78s6.83,4,10.17,24c2.31,13.89,5.59,40.57,7.38,55.57a9.77,9.77,0,0,1-9.71,10.93H873.6s.75-4.17,2.87-6.17c-3.54,1.34-5.54,3.67-6.2,6.17h-4.34s4.67-17.5,22.34-17.17,51.24-1.3,51.24-1.3l-3.91-36.71S926.93,243.08,943.1,222.78Z" transform="translate(-687.19 -73.31)"/><line class="cls-20" x1="252.32" y1="221.55" x2="264.44" y2="220.86"/><path class="cls-16" d="M948.72,309.49a11.88,11.88,0,0,0,.64,3.83h1.58a9.77,9.77,0,0,0,9.71-10.93c-.18-1.51-.38-3.15-.58-4.87A12,12,0,0,0,948.72,309.49Z" transform="translate(-687.19 -73.31)"/><path class="cls-13" d="M925.1,313.32l-3.85,17.86a25.49,25.49,0,0,1-24.91,20.11H837.93l11,63.53s-14.33,13-42.83,8.5L798,349.92a29.93,29.93,0,0,1,27.81-33.13l53.52-3.47Z" transform="translate(-687.19 -73.31)"/><line class="cls-21" x1="150.74" y1="277.98" x2="149.25" y2="269.5"/><path class="cls-18" d="M889.85,261.82c-.06,1.4-.78,5.45-1.81,10.7h0a113.85,113.85,0,0,1,7.56,9.69C900.2,288.67,889.85,261.82,889.85,261.82Z" transform="translate(-687.19 -73.31)"/><path class="cls-17" d="M942.93,230.54a53.94,53.94,0,0,1,1.3,5.49,87.66,87.66,0,0,1,1.84,16.87c.25,10-1.46,20.87.83,30.69,2.12,9,6.92,17.16,12.82,24.24a9.69,9.69,0,0,0,.93-5.44c-1.79-15-5.07-41.68-7.38-55.57-3.34-20-10.17-24-10.17-24l-20.24-10.21a144.67,144.67,0,0,1,15.35,12.12c1.2,1.11,2.78,2.1,3.65,3.48A10.48,10.48,0,0,1,942.93,230.54Z" transform="translate(-687.19 -73.31)"/><path class="cls-22" d="M840.44,365.75c-23.1-.05-21.3,43.93-20.08,58.46,19-.73,28.57-9.39,28.57-9.39Z" transform="translate(-687.19 -73.31)"/><path class="cls-20" d="M880.71,313.32s.64-4.72,4.24-6.36" transform="translate(-687.19 -73.31)"/><path class="cls-13" d="M907.72,166.94s4.5-6.25,14.13-5.5,23,9.63,19.25,39.25A50.5,50.5,0,0,1,904,204.94a46.15,46.15,0,0,0,4-10.25Z" transform="translate(-687.19 -73.31)"/><path class="cls-14" d="M925.88,188.18l-3,25.39s-7.4,11.29-13.89,8.87c-3.68-1.37,3.75-11.75,3.75-11.75l1.7-14.22Z" transform="translate(-687.19 -73.31)"/><path class="cls-13" d="M925.76,189.21l0-.34-.49-.28-10.89,7.88-.8,6.73h0C921.39,198.59,925.09,190.74,925.76,189.21Z" transform="translate(-687.19 -73.31)"/><path class="cls-14" d="M907.72,166.94s-10.5,17.38-4.25,32.63c3.75,1.12,13.13.25,19.13-5.5,5.12-6.13,4.75-14.75,4.75-14.75S911.72,177.82,907.72,166.94Z" transform="translate(-687.19 -73.31)"/><path class="cls-19" d="M928.1,177.06a6.85,6.85,0,0,0,2.75,3.63,23.88,23.88,0,0,0-.31-16.31,19,19,0,0,0-8.69-2.94,18.27,18.27,0,0,0-2.21,0C929.33,165.58,928.1,177.06,928.1,177.06Z" transform="translate(-687.19 -73.31)"/><path class="cls-19" d="M925.1,194.32s-.64,1.26-2-.87-.74-13.38,2-17.26c.87-1.62,2-1,2.26,0C927.47,178.44,925.1,194.32,925.1,194.32Z" transform="translate(-687.19 -73.31)"/><path class="cls-10" d="M927.36,176.19s6.49.8,6.11,7.28-3.12,11.72-8.37,10.85C923.22,188.19,926,178.57,927.36,176.19Z" transform="translate(-687.19 -73.31)"/><path class="cls-23" d="M910.85,184s3.87-2.1,6.37.9" transform="translate(-687.19 -73.31)"/><path class="cls-23" d="M904.47,183.32a3.51,3.51,0,0,0-2.38-.88" transform="translate(-687.19 -73.31)"/><path class="cls-23" d="M912.11,178.7s4.62-2.12,7,1.38" transform="translate(-687.19 -73.31)"/><path class="cls-23" d="M906.6,177.2a2.88,2.88,0,0,0-2.93-1" transform="translate(-687.19 -73.31)"/><path class="cls-24" d="M903.67,191.07a11.3,11.3,0,0,0,5.93,0" transform="translate(-687.19 -73.31)"/><path class="cls-25" d="M926.05,187.68s-5.83,5.21-10.7,6.74" transform="translate(-687.19 -73.31)"/><path class="cls-10" d="M915.58,194.46a1.18,1.18,0,0,1-.89,1.42l-2.38.56a1.19,1.19,0,0,1-1.43-.88h0a1.19,1.19,0,0,1,.89-1.43l2.38-.56a1.19,1.19,0,0,1,1.43.89Z" transform="translate(-687.19 -73.31)"/><path class="cls-26" d="M927.12,162.65h0c-.29-.11-.57-.21-.86-.3l-.27-.09-.77-.23-.31-.08-.73-.16-.32-.07-.73-.12-.29,0-1-.11c-.47,0-.91,0-1.35,0-8.69-.1-12.78,5.54-12.78,5.54a49.61,49.61,0,0,0-4.05,9.25h0a48.28,48.28,0,0,0-1.58,6.25h0a30.84,30.84,0,0,0,1.38,17.13,11.22,11.22,0,0,0,2.75.4c-.56,1.41-1.29,3.07-2.25,5,.52.14,1,.26,1.56.38a35,35,0,0,0,7.8-17.81C915.33,173.87,927.12,162.65,927.12,162.65Z" transform="translate(-687.19 -73.31)"/><path class="cls-27" d="M930.22,177.2s-3.36,9.25-1.24,16.49" transform="translate(-687.19 -73.31)"/><path class="cls-16" d="M904,186.94l2.63.74S905.1,188.94,904,186.94Z" transform="translate(-687.19 -73.31)"/><circle class="cls-15" cx="282" cy="31.75" r="12.23"/><circle class="cls-28" cx="289.61" cy="93.03" r="7.61"/><circle class="cls-28" cx="1048.6" cy="301.74" r="11.39" transform="translate(-727.64 296.08) rotate(-19.61)"/><circle class="cls-2" cx="726.68" cy="212.09" r="10.39" transform="translate(-333.19 797.69) rotate(-76.78)"/><path class="cls-11" d="M894.86,105.05A6.82,6.82,0,1,1,888,98.23,6.82,6.82,0,0,1,894.86,105.05Z" transform="translate(-687.19 -73.31)"/><path class="cls-11" d="M724.91,279.25a4.49,4.49,0,1,1-4.49-4.49A4.49,4.49,0,0,1,724.91,279.25Z" transform="translate(-687.19 -73.31)"/><path class="cls-19" d="M807,120.59A40.16,40.16,0,0,0,800,104l5.18-5.17-9.41-9.42-5.26,5.25A40.2,40.2,0,0,0,774,87.93V80.78H760.64v7.15a40,40,0,0,0-16.46,6.73l-4.39-4.39-9.42,9.41,4.3,4.3a40.14,40.14,0,0,0-7.24,17.47h-5.72v13.31h5.85A40.38,40.38,0,0,0,735,151.87l-4.63,4.63,9.41,9.42,4.84-4.84a40.18,40.18,0,0,0,16.93,6.59v6.91h13.31v-7.2a40.07,40.07,0,0,0,16.17-7l4.69,4.69,9.41-9.41-4.76-4.76a40.05,40.05,0,0,0,6.87-17h6.56V120.59ZM767.78,156.7a29,29,0,1,1,29-29A29,29,0,0,1,767.78,156.7Z" transform="translate(-687.19 -73.31)"/><path class="cls-19" d="M880.77,176.36l-16.29-19V128.48a9.08,9.08,0,0,0-9.08-9.07H769.33a9.07,9.07,0,0,0-9.08,9.07v54.86a9.07,9.07,0,0,0,9.08,9.07H855.4a9.08,9.08,0,0,0,9.08-9.07V168.85Z" transform="translate(-687.19 -73.31)"/><rect class="cls-29" x="83.33" y="59.54" width="84.62" height="3.69"/><rect class="cls-29" x="83.33" y="70.15" width="84.62" height="3.69"/><rect class="cls-29" x="83.33" y="80.76" width="84.62" height="3.69"/><rect class="cls-29" x="83.33" y="91.37" width="84.62" height="3.69"/><rect class="cls-29" x="83.33" y="101.97" width="61.06" height="3.69"/><path class="cls-19" d="M844.78,92.87a19.65,19.65,0,0,0-3.46-8.13l2.54-2.55-4.62-4.63-2.59,2.59a19.74,19.74,0,0,0-8.11-3.33V73.31H822v3.51a19.68,19.68,0,0,0-8.09,3.31L811.74,78l-4.62,4.63,2.11,2.11a19.83,19.83,0,0,0-3.56,8.58h-2.81v6.55h2.88a19.59,19.59,0,0,0,3.63,8.4l-2.28,2.28,4.63,4.63,2.37-2.38a19.69,19.69,0,0,0,8.32,3.24v3.4H829v-3.54a19.79,19.79,0,0,0,7.94-3.43l2.31,2.3,4.63-4.62-2.34-2.34a19.75,19.75,0,0,0,3.37-8.36h3.22V92.87ZM825.5,110.62a14.26,14.26,0,1,1,14.26-14.26A14.27,14.27,0,0,1,825.5,110.62Z" transform="translate(-687.19 -73.31)"/><path class="cls-19" d="M831.14,96.36a5.67,5.67,0,1,1-5.66-5.66A5.67,5.67,0,0,1,831.14,96.36Z" transform="translate(-687.19 -73.31)"/><path class="cls-18" d="M974.6,285a44.07,44.07,0,0,1-6.79-31.55c7.81,4.28,21.63,22.33,18,38.77Z" transform="translate(-687.19 -73.31)"/><path class="cls-30" d="M973.31,257.81A70.7,70.7,0,0,0,986,290.58a.76.76,0,0,0,.11-.14C987.94,278,980.32,264.89,973.31,257.81Z" transform="translate(-687.19 -73.31)"/><path class="cls-18" d="M997.59,288.65s12.61-9.61,18.21-28.39.4-28.1,2.8-43.65c-12.81,21.67-27.68,57.54-27.65,75C993,292.7,997.59,288.65,997.59,288.65Z" transform="translate(-687.19 -73.31)"/><path class="cls-30" d="M993.08,290.58c3.68-4.18,7.87-20.69,9.88-42.36-6.07,14.51-10.8,29.23-11.8,39.57C992.31,289.59,993.08,290.58,993.08,290.58Z" transform="translate(-687.19 -73.31)"/><path class="cls-15" d="M989.79,290.58s-15.6-20.11-12.61-45,21.27-44.24,20.41-64.45C1005.79,229.21,996.84,282.57,989.79,290.58Z" transform="translate(-687.19 -73.31)"/><path class="cls-18" d="M988.83,287.05s8.69-50.27,6.56-67.91c-2,20.34-9.21,66.22-9.21,66.22Z" transform="translate(-687.19 -73.31)"/><path class="cls-30" d="M974.6,285l11.17,7.22c.13-.58.24-1.17.32-1.76h0c.11-.74.18-1.48.23-2.22,0-.07,0-.14,0-.21,0-.76,0-1.51,0-2.26h0c0-.1,0-.19,0-.29l.15.1a52,52,0,0,0,3.29,5,11,11,0,0,0,1.29-1.94c-.08,1-.13,2.05-.13,3,2,1.07,6.64-3,6.64-3A53.77,53.77,0,0,0,1009,275.27c-10.81,5-29.39,4.54-37.64,4A34,34,0,0,0,974.6,285Z" transform="translate(-687.19 -73.31)"/><polygon class="cls-2" points="300.41 208.91 280.26 208.91 287.66 236.5 300.41 236.5 313.16 236.5 320.56 208.91 300.41 208.91"/><rect class="cls-2" x="287.66" y="236.5" width="25.5" height="3.52"/><polygon class="cls-31" points="296.18 240.01 296.18 236.5 291.64 208.91 280.26 208.91 287.66 236.5 287.66 240.01 296.18 240.01"/><line class="cls-32" x1="287.66" y1="236.5" x2="313.16" y2="236.5"/><rect class="cls-13" x="100.35" y="261.01" width="7" height="138.92"/><rect class="cls-13" x="287.79" y="261.01" width="7" height="138.92"/><rect class="cls-13" x="284.41" y="250.01" width="22.5" height="11"/><rect class="cls-19" x="82.56" y="261.01" width="7" height="138.92"/><rect class="cls-33" x="82.56" y="261.01" width="7" height="16.97"/><rect class="cls-19" x="270.03" y="261.01" width="7" height="138.92"/><rect class="cls-33" x="270.03" y="261.01" width="7" height="16.97"/><rect class="cls-19" x="54.41" y="240.01" width="271.5" height="10"/><rect class="cls-33" x="300.41" y="240.01" width="25.5" height="10"/><rect class="cls-33" x="73.91" y="250.01" width="210.5" height="11"/><rect class="cls-34" x="73.91" y="250.01" width="233" height="3.5"/><line class="cls-20" x1="73.91" y1="253.51" x2="284.2" y2="253.51"/></g></g></svg>