<svg xmlns="http://www.w3.org/2000/svg" xmlns:xlink="http://www.w3.org/1999/xlink" viewBox="0 0 253.5 83.9"><defs><style>.cls-1{isolation:isolate;}.cls-2{mix-blend-mode:multiply;}.cls-3{fill:url(#linear-gradient);}.cls-11,.cls-12,.cls-4,.cls-5,.cls-7,.cls-8{opacity:0.5;mix-blend-mode:screen;}.cls-4{fill:url(#linear-gradient-2);}.cls-5{fill:url(#linear-gradient-3);}.cls-6{fill:url(#linear-gradient-4);}.cls-7{fill:url(#linear-gradient-5);}.cls-8{fill:url(#linear-gradient-6);}.cls-9{fill:url(#linear-gradient-7);}.cls-10{fill:url(#linear-gradient-8);}.cls-11{fill:url(#linear-gradient-9);}.cls-12{fill:url(#linear-gradient-10);}.cls-13{fill:url(#linear-gradient-11);}</style><linearGradient id="linear-gradient" x1="1357.96" y1="-3554.32" x2="1357.96" y2="-2342.62" gradientTransform="matrix(-0.88, -0.2, 0.31, -0.93, 2186.69, -2225.77)" gradientUnits="userSpaceOnUse"><stop offset="0" stop-color="#cdecf7"/><stop offset="0.11" stop-color="#c4e9f7"/><stop offset="0.29" stop-color="#ace0f8"/><stop offset="0.51" stop-color="#85d2fa"/><stop offset="0.77" stop-color="#50befd"/><stop offset="1" stop-color="#19aaff"/></linearGradient><linearGradient id="linear-gradient-2" x1="-733.27" y1="2773.07" x2="-369.38" y2="3080.72" gradientTransform="matrix(0.4, 0.79, -0.84, 0.52, 2819.1, -1028.96)" xlink:href="#linear-gradient"/><linearGradient id="linear-gradient-3" x1="-973.2" y1="2505.35" x2="-441.29" y2="3037.25" gradientTransform="matrix(0.4, 0.79, -0.84, 0.52, 2819.1, -1028.96)" xlink:href="#linear-gradient"/><linearGradient id="linear-gradient-4" x1="-2357.11" y1="1414.26" x2="-2357.11" y2="185.77" gradientTransform="matrix(0.81, -0.58, 0.47, 0.75, 1833.83, -1657.31)" xlink:href="#linear-gradient"/><linearGradient id="linear-gradient-5" x1="-127.05" y1="1845.52" x2="1010.2" y2="2806.99" gradientTransform="matrix(0.03, 0.94, -0.93, 0.15, 2364.06, -758.92)" xlink:href="#linear-gradient"/><linearGradient id="linear-gradient-6" x1="-643.48" y1="1246.49" x2="745.87" y2="2635.84" gradientTransform="matrix(0.03, 0.94, -0.93, 0.15, 2364.06, -758.92)" xlink:href="#linear-gradient"/><linearGradient id="linear-gradient-7" x1="-2616.29" y1="-408.6" x2="-2616.29" y2="359.18" gradientTransform="matrix(0.5, -0.86, -0.79, -0.4, 1808.66, -2031.95)" xlink:href="#linear-gradient"/><linearGradient id="linear-gradient-8" x1="-2693.41" y1="-1206.35" x2="-2693.41" y2="636.11" gradientTransform="matrix(0.5, -0.86, -0.79, -0.4, 1808.66, -2031.95)" xlink:href="#linear-gradient"/><linearGradient id="linear-gradient-9" x1="-193.94" y1="-2338.61" x2="616.9" y2="-1653.1" gradientTransform="matrix(0.2, 0.89, 0.91, -0.32, 2091.48, -666.98)" xlink:href="#linear-gradient"/><linearGradient id="linear-gradient-10" x1="-581.87" y1="-2771.92" x2="449.86" y2="-1740.19" gradientTransform="matrix(0.2, 0.89, 0.91, -0.32, 2091.48, -666.98)" xlink:href="#linear-gradient"/><linearGradient id="linear-gradient-11" x1="-2093.6" y1="-151.18" x2="-2093.6" y2="1673.43" gradientTransform="matrix(0.14, -0.95, -0.92, -0.02, 1758.72, -1906.88)" xlink:href="#linear-gradient"/></defs><title>Asset 2</title><g class="cls-1"><g id="Layer_2" data-name="Layer 2"><g id="Layer_1-2" data-name="Layer 1"><g class="cls-2"><path class="cls-3" d="M253.5,83.9V37.13c-16.94,2-34.38,3.12-52.25,4.37-47,3.31-91,7.62-131.1,18.94A330.22,330.22,0,0,0,10.61,83.9Z"/><path class="cls-4" d="M125.43,83.9q12.8-1.94,25.81-4.11c34.16-5.74,69.53-13.48,102.26-25.3V37.16c-16.91,2-34.41,3.09-52.25,4.34-47,3.31-91,7.62-131.1,18.94A330.22,330.22,0,0,0,10.61,83.9Z"/><path class="cls-5" d="M39.17,83.9C64,76.56,89.82,70.2,116.48,65c45.86-8.93,91.76-14,137-25.87V37c-17.1,2-34.49,3.22-52.25,4.47-47,3.31-91,7.62-131.1,18.94A330.22,330.22,0,0,0,10.61,83.9Z"/></g><g class="cls-2"><path class="cls-6" d="M253.5,83.9V33.2c-8.45,3.34-17,6.42-25.57,9.19-43.35,14-86.66,23.06-128.8,32.62Q79.65,79.43,60.87,83.9Z"/><path class="cls-7" d="M235,83.9c6.26-3.18,12.44-6.65,18.47-10.38V33c-8.46,3.45-17,6.62-25.57,9.39-43.35,14-86.66,23.06-128.8,32.62Q79.65,79.43,60.87,83.9Z"/><path class="cls-8" d="M133.91,83.9c9-1.94,17.91-4,26.87-6.38A447.1,447.1,0,0,0,253.5,41.86v-8.6q-12.65,4.93-25.57,9.13c-43.35,14-86.66,23.06-128.8,32.62Q79.65,79.43,60.87,83.9Z"/></g><g class="cls-2"><path class="cls-9" d="M253.5,80.32V78.51a119.7,119.7,0,0,1-19.85,5.1C240.31,82.82,247,81.72,253.5,80.32Z"/><path class="cls-10" d="M151,83.9c-23.41-2-44.77-4.71-64-6-26-1.75-48.87-.83-69.28,4.29-2.05.52-4.09,1.1-6.11,1.72Z"/><path class="cls-11" d="M11.75,83.9c3.68-1.12,7.4-2.12,11.15-2.92C42,76.92,63.2,76.29,87,77.89c18.68,1.26,39.14,4,61.42,6h83.33A145.5,145.5,0,0,0,253.5,79V0a388.43,388.43,0,0,1-70.09,25.79c-37.57,9.82-76.27,17.22-113.73,29C45.72,62.32,22.31,72.3,2.31,83.9Z"/><path class="cls-12" d="M11.6,83.9c2-.62,4.06-1.2,6.11-1.72C38.12,77.06,61,76.14,87,77.89c18.68,1.26,39.14,4,61.42,6h83.33A145.5,145.5,0,0,0,253.5,79V19.82c-17,7.17-35.2,12.05-54.36,15.37C165.49,41,130.13,42.53,90,50,59.14,55.82,26.48,68,0,83.9Z"/></g><g class="cls-2"><path class="cls-13" d="M253.5,83.9V9.09c-16,14.22-32.59,27.21-50.75,38.1-28.63,17.17-62.08,28.73-97.2,36.71Z"/></g></g></g></g></svg>
