<svg xmlns="http://www.w3.org/2000/svg" xmlns:xlink="http://www.w3.org/1999/xlink" viewBox="0 0 6584.08 3710"><defs><style>.cls-1,.cls-14,.cls-15,.cls-29,.cls-30,.cls-4,.cls-41{fill:#fff;}.cls-2,.cls-34{opacity:0.3;}.cls-2{fill:url(#linear-gradient);}.cls-3{opacity:0.81;fill:url(#linear-gradient-2);}.cls-4{opacity:0.62;}.cls-5{opacity:0.79;}.cls-6{fill:url(#New_Gradient_Swatch_20);}.cls-7{opacity:0.76;}.cls-8{fill:url(#New_Gradient_Swatch_20-2);}.cls-9{fill:url(#linear-gradient-3);}.cls-10{fill:url(#linear-gradient-4);}.cls-11{opacity:0.61;fill:url(#linear-gradient-5);}.cls-12{fill:url(#linear-gradient-6);}.cls-13{opacity:0.71;}.cls-14{opacity:0.65;}.cls-15,.cls-16{opacity:0.75;}.cls-17{fill:url(#linear-gradient-7);}.cls-18{fill:url(#linear-gradient-8);}.cls-19{fill:url(#linear-gradient-9);}.cls-20{fill:url(#linear-gradient-10);}.cls-21{fill:url(#linear-gradient-11);}.cls-22{fill:url(#linear-gradient-12);}.cls-23{fill:url(#linear-gradient-13);}.cls-24{fill:url(#linear-gradient-14);}.cls-25{fill:url(#linear-gradient-15);}.cls-26{fill:url(#linear-gradient-16);}.cls-27{fill:url(#linear-gradient-17);}.cls-28{fill:url(#linear-gradient-18);}.cls-29{opacity:0.6;}.cls-30{opacity:0.72;}.cls-31{fill:url(#linear-gradient-19);}.cls-32{fill:url(#linear-gradient-20);}.cls-33{fill:url(#linear-gradient-21);}.cls-35{fill:url(#linear-gradient-22);}.cls-36{fill:url(#linear-gradient-23);}.cls-37{fill:url(#linear-gradient-24);}.cls-38{fill:url(#linear-gradient-25);}.cls-39{fill:url(#linear-gradient-26);}.cls-40{fill:url(#linear-gradient-27);}.cls-41{opacity:0.56;}.cls-42{fill:url(#linear-gradient-28);}.cls-43{fill:url(#linear-gradient-29);}.cls-44{fill:url(#linear-gradient-30);}.cls-45{fill:url(#linear-gradient-31);}.cls-46{fill:url(#linear-gradient-32);}</style><linearGradient id="linear-gradient" x1="6915.63" y1="3896.25" x2="4440.38" y2="822.14" gradientUnits="userSpaceOnUse"><stop offset="0" stop-color="#b37cff"/><stop offset="1" stop-color="#f895e7"/></linearGradient><linearGradient id="linear-gradient-2" x1="-6988.11" y1="1152.88" x2="-5724.48" y2="1152.88" gradientTransform="matrix(-1, -0.08, -0.08, 1, -350.88, 511.57)" xlink:href="#linear-gradient"/><linearGradient id="New_Gradient_Swatch_20" x1="-5338.93" y1="-1120.66" x2="-4574.97" y2="-1120.66" gradientTransform="matrix(-0.95, -0.31, -0.31, 0.95, 671.35, 820.16)" gradientUnits="userSpaceOnUse"><stop offset="0" stop-color="#a737d5"/><stop offset="1" stop-color="#ef497a"/></linearGradient><linearGradient id="New_Gradient_Swatch_20-2" x1="7803.55" y1="2251.62" x2="8468.71" y2="2251.62" gradientTransform="translate(-4269.26 590.23) rotate(-10.97)" xlink:href="#New_Gradient_Swatch_20"/><linearGradient id="linear-gradient-3" x1="5652.54" y1="291.19" x2="2701.47" y2="5645.29" gradientUnits="userSpaceOnUse"><stop offset="0" stop-color="#2b3582"/><stop offset="1" stop-color="#150e42"/></linearGradient><linearGradient id="linear-gradient-4" x1="5049.22" y1="612.71" x2="4494.67" y2="4111.44" gradientUnits="userSpaceOnUse"><stop offset="0" stop-color="#53d8ff"/><stop offset="1" stop-color="#3840f7"/></linearGradient><linearGradient id="linear-gradient-5" x1="4767.25" y1="-1242.75" x2="4868.1" y2="-214.15" xlink:href="#linear-gradient-4"/><linearGradient id="linear-gradient-6" x1="4994.79" y1="236.86" x2="4751.34" y2="1721.87" xlink:href="#linear-gradient-4"/><linearGradient id="linear-gradient-7" x1="-9175.07" y1="3019.58" x2="-8810.09" y2="2079.99" gradientTransform="matrix(-1, 0, 0, 1, -3446.32, 0)" gradientUnits="userSpaceOnUse"><stop offset="0" stop-color="#f9b776"/><stop offset="1" stop-color="#f47960"/></linearGradient><linearGradient id="linear-gradient-8" x1="-9180.61" y1="6041.85" x2="-7974.29" y2="-8057.04" xlink:href="#linear-gradient-7"/><linearGradient id="linear-gradient-9" x1="-9137.25" y1="1533.15" x2="-8982.54" y2="1533.15" xlink:href="#linear-gradient-7"/><linearGradient id="linear-gradient-10" x1="-8634.42" y1="3046.23" x2="-8266.39" y2="2481.59" gradientTransform="matrix(-1, 0, 0, 1, -3211.16, 0)" gradientUnits="userSpaceOnUse"><stop offset="0" stop-color="#cb236d"/><stop offset="1" stop-color="#4c246d"/></linearGradient><linearGradient id="linear-gradient-11" x1="-8966.01" y1="3218.18" x2="-8557.66" y2="2512.39" xlink:href="#linear-gradient-10"/><linearGradient id="linear-gradient-12" x1="6468.41" y1="1761.95" x2="5954.1" y2="2760.3" gradientTransform="translate(-893.1)" xlink:href="#linear-gradient-10"/><linearGradient id="linear-gradient-13" x1="-8968.3" y1="1187.96" x2="-8858.42" y2="1187.96" xlink:href="#linear-gradient-7"/><linearGradient id="linear-gradient-14" x1="-8770.33" y1="1307.01" x2="-9352.18" y2="2053.46" gradientTransform="matrix(-1, 0, 0, 1, -3446.32, 0)" gradientUnits="userSpaceOnUse"><stop offset="0" stop-color="#fdf53f"/><stop offset="1" stop-color="#d93c65"/></linearGradient><linearGradient id="linear-gradient-15" x1="-8323.63" y1="1250.61" x2="-9273.93" y2="1795.02" xlink:href="#linear-gradient-7"/><linearGradient id="linear-gradient-16" x1="-8229.2" y1="1415.43" x2="-9179.51" y2="1959.84" xlink:href="#linear-gradient-7"/><linearGradient id="linear-gradient-17" x1="-8785.29" y1="1187.92" x2="-8998.81" y2="875.7" xlink:href="#linear-gradient-7"/><linearGradient id="linear-gradient-18" x1="-8663.22" y1="964.85" x2="-8965.7" y2="1358.08" gradientTransform="matrix(-1, 0, 0, 1, -3211.16, 0)" xlink:href="#linear-gradient-3"/><linearGradient id="linear-gradient-19" x1="6383.96" y1="-165.55" x2="5957.95" y2="1407.4" gradientTransform="matrix(1, 0, 0, 1, 0, 0)" xlink:href="#linear-gradient-14"/><linearGradient id="linear-gradient-20" x1="6269.83" y1="423.3" x2="5750.95" y2="1644.04" gradientTransform="matrix(1, 0, 0, 1, 0, 0)" xlink:href="#linear-gradient-14"/><linearGradient id="linear-gradient-21" x1="6219.95" y1="12.31" x2="6099.79" y2="1178.43" gradientTransform="matrix(1, 0, 0, 1, 0, 0)" xlink:href="#linear-gradient-14"/><linearGradient id="linear-gradient-22" x1="-455.53" y1="12940.23" x2="183.18" y2="12940.23" gradientTransform="translate(-7542.56 8227.37) rotate(-116.39)" xlink:href="#linear-gradient"/><linearGradient id="linear-gradient-23" x1="215.14" y1="12783.96" x2="253.08" y2="12783.96" gradientTransform="translate(-7542.56 8227.37) rotate(-116.39)" xlink:href="#linear-gradient"/><linearGradient id="linear-gradient-24" x1="416.34" y1="13066.95" x2="442.58" y2="13066.95" gradientTransform="translate(-7542.56 8227.37) rotate(-116.39)" xlink:href="#linear-gradient"/><linearGradient id="linear-gradient-25" x1="-209.05" y1="13348.51" x2="449.48" y2="13348.51" gradientTransform="translate(-7542.56 8227.37) rotate(-116.39)" xlink:href="#linear-gradient"/><linearGradient id="linear-gradient-26" x1="-276.18" y1="13475.51" x2="-238.71" y2="13475.51" gradientTransform="translate(-7542.56 8227.37) rotate(-116.39)" xlink:href="#linear-gradient"/><linearGradient id="linear-gradient-27" x1="4303.64" y1="2096.12" x2="4066.7" y2="2963.24" gradientTransform="matrix(1, 0, 0, 1, 0, 0)" xlink:href="#linear-gradient-14"/><linearGradient id="linear-gradient-28" x1="-834" y1="13450.63" x2="-815.26" y2="13450.63" gradientTransform="translate(-7542.56 8227.37) rotate(-116.39)" xlink:href="#linear-gradient"/><linearGradient id="linear-gradient-29" x1="-842.73" y1="13252.62" x2="-487" y2="13252.62" gradientTransform="translate(-7542.56 8227.37) rotate(-116.39)" xlink:href="#linear-gradient"/><linearGradient id="linear-gradient-30" x1="-676.67" y1="13593.25" x2="-266.99" y2="13593.25" gradientTransform="translate(-7542.56 8227.37) rotate(-116.39)" xlink:href="#linear-gradient"/><linearGradient id="linear-gradient-31" x1="-722.5" y1="13612.55" x2="-694.13" y2="13612.55" gradientTransform="translate(-7542.56 8227.37) rotate(-116.39)" xlink:href="#linear-gradient"/><linearGradient id="linear-gradient-32" x1="4786.36" y1="2421.1" x2="4549.41" y2="3217.64" gradientTransform="matrix(1, 0, 0, 1, 0, 0)" xlink:href="#linear-gradient-14"/></defs><title>login</title><g id="Background"><rect class="cls-1" width="3710" height="3710"/></g><g id="Illustration"><path class="cls-2" d="M6242.32,2678.62c-57.28,59.57-111.47,98-154.29,128.33-503.29,356.75-1098.83,252.76-1225.4,227.37-186.9-37.51-548.18-110-809.38-413.44-395.16-459.08-333.63-1182.35-27.11-1659.79,56.07-87.33,352.23-572,954.18-649.78,364.3-47,789,47.84,1096.47,302.36C6722.3,1147.93,6676.34,2227.23,6242.32,2678.62Z"/><path class="cls-3" d="M5191,2954.15s549.59-1388.39,1366-1540.06a22.87,22.87,0,0,1,27,23.61C6575.79,1609,6471.21,2515.32,5191,2954.15Z"/><path class="cls-4" d="M6410.39,1639.29c-41.69,59.49-85.38,117.42-129.67,174.92-11.05,14.38-22.36,28.57-33.52,42.87s-22.28,28.64-33.73,42.71l-34.24,42.31c-11.46,14.06-22.69,28.32-34.43,42.15-23.33,27.79-46.43,55.78-69.94,83.41L6003.59,2150c-48.36,54.11-96.67,108.27-146.51,161L5820,2350.84c-12.21,13.43-25.17,26.15-37.71,39.26l-75.7,78.28-77.66,76.36c-13,12.7-25.82,25.54-39,38l-40.06,36.91c-26.75,24.54-53.24,49.4-80.44,73.44l-82.73,70.88-20.77,17.6c-7,5.8-13.77,11.84-20.91,17.44l-42.73,33.78c-14.21,11.3-28.61,22.36-42.91,33.54s-28.63,22.31-43,33.33a2.51,2.51,0,0,1-3.17-3.9l.07-.06q20.66-17.73,41.49-35.19c13.88-11.66,27.65-23.44,41.62-35l41.79-34.75c13.78-11.76,27.13-24,40.8-35.91l81.83-71.52,80.15-73.4,40.1-36.67c6.7-6.1,13.09-12.53,19.65-18.77l19.66-18.76,78.63-75.06c51.14-51.35,103.14-101.9,152.52-155,24.94-26.3,50.18-52.33,74.27-79.42,24.3-26.91,48.82-53.62,72.94-80.68l71.51-81.93c23.6-27.53,46.79-55.39,70.21-83.07,11.78-13.78,23.05-28,34.56-42l34.37-42.15c11.5-14,22.56-28.38,33.86-42.55s22.57-28.38,33.67-42.71c44.25-57.42,87.87-115.4,129.42-174.74l0,0a2.52,2.52,0,1,1,4.12,2.89Z"/><g class="cls-5"><path class="cls-6" d="M5057.85,2157.89S5325,931.87,6131.57,296.33a18.4,18.4,0,0,1,29.3,9.95C6211.6,511.57,6475.75,1821,5057.85,2157.89Z"/><path class="cls-4" d="M6045.94,650c-9.27,35.56-20,70.6-31.41,105.48s-23.36,69.55-36.08,104q-38.27,103.18-83.23,203.74c-7.43,16.77-15.26,33.37-22.87,50.06s-15.93,33.06-23.86,49.61-16.39,32.83-24.66,49.21l-12.51,24.52-12.94,24.29c-34.47,64.8-70.8,128.65-109.94,190.78s-80.06,123.15-124.08,181.93c-5.45,7.39-10.8,14.85-16.34,22.17l-16.88,21.76-16.89,21.75c-5.66,7.22-11.16,14.58-17.09,21.59l-35.07,42.46-8.81,10.59-9.12,10.31-18.24,20.63a2145.84,2145.84,0,0,1-322.31,299,2.19,2.19,0,0,1-2.71-3.44l.05,0,42.54-34.69,21.3-17.29,20.61-18.1,41.18-36.24,39.81-37.73c6.58-6.33,13.37-12.46,19.86-18.89l19.28-19.5c12.79-13.06,25.85-25.85,38.41-39.12,24.7-27,50-53.36,73.5-81.36l17.92-20.74,9-10.36,8.64-10.64,34.68-42.45c5.89-7,11.33-14.34,16.93-21.55l16.73-21.71,16.73-21.72c5.49-7.3,10.78-14.75,16.18-22.13,43.6-58.67,84-119.68,122.86-181.57,39.07-61.79,75.58-125.19,110.14-189.63l13-24.15,12.55-24.38c8.29-16.29,16.84-32.46,24.75-48.94,16.23-32.77,31.9-65.81,47.33-99q45.91-99.65,85.32-202.16,20-51.11,37.92-103,9-25.91,17.44-52c5.7-17.37,11.15-34.87,16.18-52.4v0a2.19,2.19,0,0,1,4.23,1.16Z"/></g><g class="cls-7"><path class="cls-8" d="M4638.7,2092.09S4534.51,1004.5,3902.94,371.63a16,16,0,0,0-26.35,5.57C3811.49,549.45,3447.7,1654.2,4638.7,2092.09Z"/><path class="cls-4" d="M3944.46,685.7c10.78,62.71,24.73,125,40.67,186.63q23.55,92.59,53,183.52c9.93,30.24,20.07,60.41,30.72,90.41,5.14,15.07,10.86,29.92,16.35,44.86l8.33,22.37,8.73,22.21c23.23,59.26,48.25,117.82,75.63,175.26,27.18,57.52,55.77,114.43,87.37,169.65,3.9,6.93,7.71,13.92,11.69,20.8l12.21,20.5,12.2,20.5c4.1,6.82,8,13.73,12.4,20.38l25.57,40.29,6.36,10.09,6.67,9.89,13.34,19.78c17.4,26.65,36.5,52.1,55,78,9.48,12.77,19.43,25.19,29.12,37.8l14.63,18.86c4.94,6.24,10.17,12.23,15.2,18.4l30.46,36.77,31.79,35.62,15.92,17.8,16.6,17.17,33.12,34.45,0,0a2.19,2.19,0,0,1-3.09,3.1,1858.29,1858.29,0,0,1-248.14-291.61l-13.66-19.71-6.83-9.86-6.53-10.06-25.95-40.35c-4.41-6.67-8.4-13.6-12.55-20.43l-12.36-20.56-12.36-20.55c-4-6.91-7.89-13.91-11.84-20.86-32-55.39-61-112.46-88.54-170.16s-52.2-116.77-75.3-176.38l-8.67-22.35-8.27-22.5c-5.45-15-11.13-30-16.22-45.11s-10.6-30.16-15.49-45.37-9.89-30.39-14.56-45.67c-37.55-122.15-68.74-246.41-87.15-373a2.19,2.19,0,0,1,4.32-.69Z"/></g><path class="cls-9" d="M4078.64,436.31c-9,426.79-38.37,1899-24.37,2420.64,1.48,55.27,39.36,99.63,86.6,101.44,233.66,8.94,1090.23,31.61,1472.42,12.86,79.6-3.91,142.9-79.34,144.56-172.53,7.94-448,25.46-1707.94-16.19-2285.14-5-69.15-51.39-124.22-110.42-131.13-254.46-29.78-1114.72-102.58-1444.91-77.51C4126.79,309.46,4080.12,366.52,4078.64,436.31Z"/><path class="cls-10" d="M4182.9,567.25c-12.57,344.49-52.25,1490.5-39.65,1914.27,1.84,61.94,43.57,112,96.45,115.65,217.76,14.91,960.7,47.78,1280.09,17.86,57.51-5.39,102.65-59.8,105.75-127.2,16.19-351.45,62.66-1418.55,50.59-1837.57-1.93-66.85-46.19-121.44-103.13-127.42-235.58-24.75-1025-83.62-1296.45-66.3C4225.6,459.79,4185.08,507.61,4182.9,567.25Z"/><path class="cls-11" d="M4767,389.6h0c0,13.09,8.72,23.89,19.9,24.58,55.19,3.38,210.65,12.95,280.14,17.66,13.7.93,24.45-13.47,21.85-29.24l-.44-2.69c-1.78-10.75-9.4-18.85-18.73-19.85-47-5-188.68-19-282.57-15.07C4775.89,365.46,4767,376.39,4767,389.6Z"/><circle class="cls-12" cx="4875.61" cy="963.85" r="325.91"/><path class="cls-1" d="M4975.39,840.7c0,55.18-44.73,114.76-99.92,114.76s-99.92-59.58-99.92-114.76,44.74-94.34,99.92-94.34S4975.39,785.51,4975.39,840.7Z"/><path class="cls-1" d="M4751.47,1167.93h243.92a59.06,59.06,0,0,0,56.24-41l13.12-41c9.61-30-6-62.56-35.63-73.39-99.27-36.29-201.92-31.64-307.07,3.35-29.45,9.8-45.8,41.31-37.67,71.27l10.1,37.26A59,59,0,0,0,4751.47,1167.93Z"/><g class="cls-13"><rect class="cls-14" x="4304.67" y="1625.23" width="1202.61" height="185.02" rx="6.75"/><rect class="cls-14" x="4298.18" y="1927.1" width="1202.61" height="185.02" rx="6.75"/><rect class="cls-14" x="4493.2" y="2236.28" width="776.9" height="235.88" rx="8.33"/></g><rect class="cls-15" x="4357.94" y="1667.14" width="716.3" height="102.79" rx="12"/><g class="cls-16"><circle class="cls-1" cx="4382.82" cy="2014.46" r="42.2" transform="translate(-437.28 1830.57) rotate(-22.5)"/><circle class="cls-1" cx="4498.6" cy="2016.63" r="42.2" transform="translate(-429.29 1875.05) rotate(-22.5)"/><circle class="cls-1" cx="4610.04" cy="2022.04" r="42.2" transform="translate(-422.88 1918.11) rotate(-22.5)"/><circle class="cls-1" cx="4725.83" cy="2024.2" r="42.2" transform="translate(-47.16 3934.54) rotate(-45)"/><circle class="cls-1" cx="4841.6" cy="2023.12" r="42.2" transform="translate(1760.23 6270.38) rotate(-76.72)"/><circle class="cls-1" cx="4957.38" cy="2025.28" r="42.2" transform="translate(2164.17 6594.24) rotate(-80.78)"/></g><path class="cls-17" d="M5439.27,2163l129.28,32.32-32.32,242.4s48.48,48.48,64.64,113.12,31.06,336.06,31.06,336.06l30.67,18.54,3.73,15.48-89.24,120,14.8-95.51c2.35-15.16-1.72-45.91-.44-46.55-48.48-129.28-152.18-493.46-152.18-493.46Z"/><path class="cls-18" d="M5401.49,2922.61c1.4,0,2.78.09,4.18,0-6.24-77.93-34.79-420.94-63.36-549.5-32.32-145.44,48.48-436.32,48.48-436.32l145.44,145.44L5455.43,2357c55.37,83.06-9,569.46-7.65,569.25l-.09,1.08,21.09,29-2.57,15.72-128.79,76,50.67-82.29A92.47,92.47,0,0,0,5401.49,2922.61Z"/><path class="cls-19" d="M5565.08,1291.75s283.17,319.16,0,482.8l-28.85-20.9s140.58-134.62,0-299.42Z"/><path class="cls-20" d="M5328.93,3059.91H5370a24.74,24.74,0,0,0,19.64-9.63c12.81-16.64,39.36-49.13,52-50,17.09-1.15,14.9,59.6,14.9,59.6h9.58l12.14-75.49a44.68,44.68,0,0,0-23.45-46.7h0s-3.91,28.88-25.09,41.66-86.19,58.54-86.19,58.54a58.87,58.87,0,0,0-16.71.45C5314,3040.71,5315.76,3059.91,5328.93,3059.91Z"/><path class="cls-21" d="M5573.89,3055.23l37.89-15.94a24.73,24.73,0,0,0,14.37-16.49c5.35-20.32,17.23-60.55,28.6-66.26,15.31-7.67,36.85,49.17,36.85,49.17l8.83-3.71-18.09-74.29a44.69,44.69,0,0,0-39.73-34h0s7.6,28.14-7,48.13-56.75,87.38-56.75,87.38a58.7,58.7,0,0,0-15.23,6.89C5552.63,3043.34,5561.74,3060.34,5573.89,3055.23Z"/><path class="cls-22" d="M5353.75,1690.87s4.75,29.13-2.21,109.21-40.25,268.09-33.47,448c0,0,94.62,22,259,11.61,0,0,69.38-280.86,52.47-387.63S5521,1688.66,5521,1688.66Z"/><polygon class="cls-23" points="5423.67 1155.77 5412.1 1291.76 5521.98 1291.76 5494.66 1084.17 5423.67 1155.77"/><path class="cls-24" d="M5554.53,1273c-37.92-2.09-122.71-6-182.77-2.69a69.77,69.77,0,0,0-64.58,55.42l-14.65,70.2a169.07,169.07,0,0,0,2.38,79l58.84,216s52.33,31.45,167.23-2.21c0,0,100.9-240.61,59.6-394.53A28.6,28.6,0,0,0,5554.53,1273Z"/><path class="cls-25" d="M5310.05,1313.08c-16.19,42.64-30.81,87.34-46.51,129.21-8,21-16.08,41.5-24.75,60.37-4.38,9.39-9.2,18-13.62,25.85a114.75,114.75,0,0,1-12,17.17c-.51.43,1.19.77,1.76.8.34,0-10.94,1.85-14.4,2.43l-13.53-.08c-19.39-1-41.34-4.42-63.37-8.7-44.42-8.28-90.61-19.91-138-28.71l-.36-.06a16.71,16.71,0,0,0-14.09,29c19.12,16.83,39.39,30.66,60.42,44.12,10.58,6.47,21.35,12.82,32.29,18.91,11.16,5.68,22.36,11.42,34,16.72,23.41,10.2,47.59,19.59,75.44,25.63,7.32,1.22,14.54,2.51,22.07,3.52,8.45.29,16.12,1,25.35.51,4.9-.49,9.82-1.09,14.73-1.81a67,67,0,0,0,7.72-1.38c3.36-1,6.72-2.14,10-3.38,6.92-2.49,11.39-5.49,17-8.62,4.66-3.07,8.92-6.29,13-9.59,15.23-13,24.68-25.84,33-38.2a301.46,301.46,0,0,0,20.81-36.85,502.94,502.94,0,0,0,28.64-72.38c15.23-48.42,25.55-96,29.9-146.56a44,44,0,0,0-85-19.44Z"/><path class="cls-26" d="M5000.53,1533.15l-19.61-46.54-103.19-25.72s-8.26,17.89,35.08,25.72c0,0-15.48,17.11-7.22,37.23S5001.56,1564.13,5000.53,1533.15Z"/><path class="cls-27" d="M5377.14,998.71c-3.92,2.31-34.83,111.34-8.93,157s105-5.48,126.45-71.59S5481.65,937.08,5377.14,998.71Z"/><path class="cls-28" d="M5582.17,1084.17c17.74,86.94,76.53,63.15,118.17,101.82,67.48,62.69,164-1.93,257.88,57.47,67.76,42.88,100.4,152.6,67.89,241.18-45,122.68-198.94,173.13-278.69,135.77-76.23-35.71-65.37-142.67-167.93-184-43.54-17.55-65-6.15-91.11-32.16-45.65-45.53-33.33-133.89-28.59-167.93,10.3-73.86,35.06-87.23,23.23-119.69-23-63.14-130.4-50.11-139.35-94.69-8.15-40.59,69.68-117.52,142.92-105.4C5599.91,935.29,5574.26,1045.45,5582.17,1084.17Z"/><path class="cls-29" d="M5992.27,1463.86a3,3,0,0,0,2.88-2.27c14.51-60.23,7.93-109.63-19.57-146.82-45.64-61.73-134.33-67.84-135.22-67.89a3,3,0,0,0-3.14,2.78,3,3,0,0,0,2.78,3.14c.86,0,86.87,6,130.83,65.53,26.39,35.71,32.63,83.44,18.55,141.87a3,3,0,0,0,2.19,3.58A3.34,3.34,0,0,0,5992.27,1463.86Z"/><path class="cls-30" d="M5701.78,1519a1.73,1.73,0,0,0,.38,0,1.5,1.5,0,0,0,1.06-1.81c-14.14-54.23-38.94-91.88-73.7-111.94-25.29-14.59-49-15.94-69.87-17.14-20.15-1.16-37.55-2.16-51.56-14.62-28.94-25.74-27.27-87.63,5-184a1.49,1.49,0,0,0-2.82-.94c-32.67,97.56-34.06,160.51-4.14,187.12,14.78,13.14,32.65,14.17,53.36,15.36s43.87,2.52,68.56,16.76c34.05,19.63,58.38,56.68,72.3,110.11A1.48,1.48,0,0,0,5701.78,1519Z"/><path class="cls-30" d="M5540.19,1062.6a1.53,1.53,0,0,0,.47-.07,1.5,1.5,0,0,0,.94-1.89c-11.24-33.42-43.61-28.45-77.9-23.18-21.71,3.34-44.15,6.77-63.18,1.14-14.2-4.21-22.64-10.74-25.08-19.4-4.16-14.74,10.42-31.19,10.57-31.36a1.48,1.48,0,1,0-2.2-2c-.65.72-15.83,17.81-11.23,34.14,2.73,9.71,11.85,16.92,27.09,21.44,19.69,5.83,42.45,2.34,64.48-1,34.42-5.28,64.19-9.87,74.63,21.2A1.49,1.49,0,0,0,5540.19,1062.6Z"/><path class="cls-31" d="M5867.24,725c0-153,129.6-277,285.12-277,150.93,0,270,117.5,270,262.4S6303.29,979,6152.36,987C5996.84,995.18,5867.24,878,5867.24,725Z"/><path class="cls-32" d="M5893.25,724.3c0-138.65,117.45-251,258.4-251,136.79,0,244.74,106.49,244.74,237.81s-108,243.47-244.74,250.67C6010.7,969.18,5893.25,863,5893.25,724.3Z"/><path class="cls-1" d="M6067.94,708.58h-23.16V616.29A71.85,71.85,0,0,1,6107.9,545l47.34-5.75a71.77,71.77,0,0,1,80.44,71.25v80.57h-23.16V610.54A48.62,48.62,0,0,0,6158,562.28L6110.69,568a48.66,48.66,0,0,0-42.75,48.26Z"/><path class="cls-1" d="M6037.93,687.86l203-11.25A14.39,14.39,0,0,1,6256.11,691V851.79a14.38,14.38,0,0,1-14.38,14.39H6043.61a14.38,14.38,0,0,1-14.38-13.92l-4.88-149.57A14.39,14.39,0,0,1,6037.93,687.86Z"/><path class="cls-33" d="M6173.32,820.11,6161,784.79a11.82,11.82,0,0,1,2.68-12.2,33.45,33.45,0,1,0-44.87,2.5,11.92,11.92,0,0,1,3.88,13.17l-11.08,31.85A11.93,11.93,0,0,0,6122.91,836h39.15A11.92,11.92,0,0,0,6173.32,820.11Z"/><g class="cls-34"><path class="cls-35" d="M4463.23,2762.34a11.74,11.74,0,0,1-3.91,14.72c-10.37,6.9-21.19,13.42-32.14,19.4a10.65,10.65,0,0,1-14.68-4.88l-.1-.2a11.7,11.7,0,0,1,4.71-15.21c10.41-5.68,20.68-11.88,30.54-18.43a10.59,10.59,0,0,1,15,3.55A11.81,11.81,0,0,1,4463.23,2762.34Zm-85.18,43.49a12.57,12.57,0,0,1,.51,1.25,11.56,11.56,0,0,1-6.57,14.6c-11.62,4.35-23.54,8.21-35.41,11.49a10.87,10.87,0,0,1-13.31-8.15,11.47,11.47,0,0,1,7.73-14c11.29-3.12,22.6-6.79,33.65-10.92A10.7,10.7,0,0,1,4378.05,2805.83Zm-92.22,22.69a11.81,11.81,0,0,1,1.06,3.73,11.29,11.29,0,0,1-9.5,12.69c-12.23,1.52-24.68,2.49-37,2.89-6,.2-11-4.76-11.24-11.06s4.5-11.59,10.51-11.78c11.69-.39,23.51-1.31,35.13-2.75A10.81,10.81,0,0,1,4285.83,2828.52Zm-94.8.45a11.87,11.87,0,0,1,1.07,6.29,11,11,0,0,1-12,10.13c-12.26-1.4-24.61-3.37-36.71-5.87a11.46,11.46,0,0,1-8.61-13.41,10.91,10.91,0,0,1,12.76-9c11.48,2.37,23.21,4.25,34.86,5.57A11,11,0,0,1,4191,2829Zm-92.57-21.77a11.92,11.92,0,0,1,.55,8.79,10.73,10.73,0,0,1-13.82,7.08c-11.63-4.21-23.26-9-34.55-14.25a11.67,11.67,0,0,1-5.59-15.07,10.67,10.67,0,0,1,14.34-5.83c10.74,5,21.79,9.54,32.85,13.55A11.07,11.07,0,0,1,4098.46,2807.2Zm-85.72-42.72a11.91,11.91,0,0,1-.48,11.1,10.56,10.56,0,0,1-15,3.69c-10.49-6.81-20.82-14.19-30.72-21.92a11.81,11.81,0,0,1-2.27-16,10.54,10.54,0,0,1,15.22-2.34c9.41,7.34,19.23,14.35,29.19,20.83A11.23,11.23,0,0,1,4012.74,2764.48Zm-200.87-363.3a11.94,11.94,0,0,1,1.13,4.69c.41,12.27,1.34,24.69,2.76,36.91.72,6.27-3.52,12-9.48,12.7a11,11,0,0,1-12.12-10c-1.5-12.88-2.48-26-2.92-38.88a11.19,11.19,0,0,1,10.5-11.8A10.88,10.88,0,0,1,3811.87,2401.18Zm126.29,301.75a11.88,11.88,0,0,1-2,13.11,10.52,10.52,0,0,1-15.39.1c-8.79-9.1-17.3-18.7-25.31-28.55a11.84,11.84,0,0,1,1.19-16.11,10.53,10.53,0,0,1,15.34,1.29c7.61,9.35,15.69,18.47,24,27.1A11.63,11.63,0,0,1,3938.16,2702.93Zm-112.29-203.25a12,12,0,0,1,.78,2.15c3,11.88,6.57,23.78,10.54,35.37a11.56,11.56,0,0,1-6.54,14.61,10.75,10.75,0,0,1-13.93-6.91c-4.18-12.19-7.92-24.72-11.1-37.21a11.48,11.48,0,0,1,7.71-14A10.73,10.73,0,0,1,3825.87,2499.68Zm52.64,125.79a11.74,11.74,0,0,1-3.89,14.7,10.59,10.59,0,0,1-15-3.52c-6.62-10.91-12.89-22.27-18.61-33.76l-.11-.21a11.69,11.69,0,0,1,4.7-15.2,10.63,10.63,0,0,1,14.68,4.85c5.44,10.92,11.39,21.7,17.69,32.07C3878.14,2624.75,3878.34,2625.11,3878.51,2625.47Z"/><path class="cls-36" d="M3816.09,2321.06a11.88,11.88,0,0,1,1,6.74c-.82,5.83-1.53,11.77-2.12,17.67a11,11,0,0,1-12,10.13,11.31,11.31,0,0,1-9.67-12.59c.62-6.2,1.37-12.45,2.23-18.58a10.74,10.74,0,0,1,20.51-3.37Z"/></g><g class="cls-34"><path class="cls-37" d="M3988.64,2023.89a11.78,11.78,0,0,1-3.41,14.37c-4.57,3.42-9.14,7-13.59,10.62a10.54,10.54,0,0,1-15.27-2,11.78,11.78,0,0,1,1.89-16c4.69-3.83,9.5-7.59,14.31-11.19a10.57,10.57,0,0,1,15.18,2.69A11.68,11.68,0,0,1,3988.64,2023.89Z"/><path class="cls-38" d="M4614.62,2188.62q3.35,7.07,6.48,14.31a11.64,11.64,0,0,1-5.38,15.13,10.71,10.71,0,0,1-14.42-5.69c-4.83-11.14-10.09-22-15.68-32.54a11.73,11.73,0,0,1,4.17-15.55,10.62,10.62,0,0,1,14.81,4.42C4608.06,2175.19,4611.43,2181.89,4614.62,2188.62Zm26.71,70.84a11.85,11.85,0,0,1,.68,1.81c3.5,12.22,6.55,24.73,9.06,37.18a11.4,11.4,0,0,1-8.39,13.52,10.92,10.92,0,0,1-12.9-8.84c-2.38-11.83-5.28-23.71-8.6-35.32a11.49,11.49,0,0,1,7.28-14.22A10.72,10.72,0,0,1,4641.33,2259.46Zm-68.12-141.14a11.8,11.8,0,0,1-3.18,14.19,10.57,10.57,0,0,1-15.25-2.26c-6.93-9.64-14.36-19.11-22.07-28.13a11.84,11.84,0,0,1,.81-16.14,10.53,10.53,0,0,1,15.37.89c8.12,9.51,15.94,19.47,23.25,29.63A11.56,11.56,0,0,1,4573.21,2118.32Zm85,237.56a11.91,11.91,0,0,1,1.1,4.28c.86,12.71,1.22,25.61,1.06,38.34a10.89,10.89,0,1,1-21.76-.36c.15-12.09-.18-24.34-1-36.41a11.22,11.22,0,0,1,10.08-12.19A10.86,10.86,0,0,1,4658.24,2355.88Zm-149.19-308.77a11.86,11.86,0,0,1-1.42,12.46,10.52,10.52,0,0,1-15.34,1.33c-8.78-7.81-18-15.33-27.41-22.36a11.81,11.81,0,0,1-2.58-15.94,10.54,10.54,0,0,1,15.17-2.67c9.91,7.4,19.62,15.32,28.86,23.54A11.29,11.29,0,0,1,4509.05,2047.11Zm-77.44-54.74a11.93,11.93,0,0,1-.09,10.38,10.61,10.61,0,0,1-14.68,4.81c-10.22-5.62-20.78-10.85-31.4-15.56a11.65,11.65,0,0,1-5.82-15,10.66,10.66,0,0,1,14.24-6.08c11.17,5,22.29,10.46,33,16.37A11.2,11.2,0,0,1,4431.61,1992.37Zm-86.93-35.74a12,12,0,0,1,.77,8,10.8,10.8,0,0,1-13.32,8c-11.15-3.16-22.53-5.86-33.86-8a11.42,11.42,0,0,1-8.78-13.29,10.9,10.9,0,0,1,12.63-9.2c11.91,2.28,23.9,5.12,35.63,8.44A11,11,0,0,1,4344.68,1956.63Zm-92.22-15a11.85,11.85,0,0,1,1.12,5.56,11.07,11.07,0,0,1-11.31,10.92c-11.52-.53-23.19-.54-34.68,0a11.44,11.44,0,0,1-1-22.83c12.11-.53,24.4-.52,36.52,0A10.91,10.91,0,0,1,4252.46,1941.64Zm-93.1,6.64a11.49,11.49,0,0,1,1,3,11.37,11.37,0,0,1-8.74,13.28c-11.31,2.15-22.68,4.83-33.8,8a10.89,10.89,0,0,1-13.36-8.06,11.47,11.47,0,0,1,7.65-14c11.7-3.32,23.68-6.15,35.58-8.41A10.78,10.78,0,0,1,4159.36,1948.28ZM4070,1976.21c.1.21.19.43.28.65a11.63,11.63,0,0,1-5.77,15c-7.81,3.45-15.61,7.2-23.19,11.15q-4.12,2.13-8.17,4.37a10.64,10.64,0,0,1-14.69-4.85,11.56,11.56,0,0,1,4.57-15.42q4.26-2.34,8.59-4.59c8-4.15,16.18-8.09,24.4-11.73A10.68,10.68,0,0,1,4070,1976.21Z"/><path class="cls-39" d="M4654.48,2454.06a11.94,11.94,0,0,1,1,6.81c-.88,6.11-1.91,12.32-3.05,18.46a10.88,10.88,0,0,1-12.75,9,11.44,11.44,0,0,1-8.61-13.42c1.08-5.82,2.05-11.72,2.89-17.53a10.75,10.75,0,0,1,20.51-3.32Z"/></g><path class="cls-40" d="M4534.94,2499a5.55,5.55,0,0,0-1.14-6.09l-45-44.74a297,297,0,0,0,2.81-91.7l47.6-41.38a5.53,5.53,0,0,0,1.51-6l-26.22-73a5.11,5.11,0,0,0-4.9-3.47l-61.84,1.72a278.76,278.76,0,0,0-59.8-67l5.72-64.72a5.41,5.41,0,0,0-3-5.37L4323,2064.93a4.9,4.9,0,0,0-5.79,1.19l-42.49,47.17a257,257,0,0,0-87.32-3.17L4147.92,2060a5,5,0,0,0-5.71-1.6l-69.47,27.36a5.32,5.32,0,0,0-3.28,5.15l1.78,64.95a274.31,274.31,0,0,0-63.69,62.64l-61.63-6.16a5.06,5.06,0,0,0-5.11,3.11l-30.58,71a5.57,5.57,0,0,0,1.14,6.09l45,44.74a297,297,0,0,0-2.81,91.7l-47.6,41.38a5.53,5.53,0,0,0-1.51,6l26.22,73a5.11,5.11,0,0,0,4.91,3.47l61.83-1.72a279.18,279.18,0,0,0,59.8,67l-5.72,64.72a5.42,5.42,0,0,0,3,5.37l67.66,32.29a4.91,4.91,0,0,0,5.79-1.19l42.49-47.17a257,257,0,0,0,87.32,3.17l39.51,50.09a5,5,0,0,0,5.71,1.6l69.47-27.36a5.35,5.35,0,0,0,3.29-5.15l-1.79-65a274.31,274.31,0,0,0,63.69-62.64l61.63,6.16a5.06,5.06,0,0,0,5.11-3.11Z"/><path class="cls-41" d="M4289.43,2358c16.21,34.25,6.53,76.76-24.2,99.15-33.78,24.61-80.38,15.73-103.89-19.8a81.11,81.11,0,0,1-12.22-58.64,78.06,78.06,0,0,1,30.82-50.43c33.78-24.62,80.38-15.73,103.9,19.8A80.49,80.49,0,0,1,4289.43,2358Zm-118.13,61.26a63.26,63.26,0,0,0,4.32,7.68c18,27.24,53.77,34.05,79.66,15.18s32.31-56.38,14.27-83.63-53.76-34.05-79.66-15.18a59.9,59.9,0,0,0-23.63,38.67A62.39,62.39,0,0,0,4171.3,2419.29Z"/><path class="cls-41" d="M4385.25,2306.39q4.17,8.82,7.54,18.17h0c.7,2,1.38,3.93,2,5.92a202,202,0,0,1,7.25,29.93c0,.14,0,.27.07.41l.18,1.18c.12.76.23,1.53.34,2.29a4.61,4.61,0,0,1-2.36,4.76,4.15,4.15,0,0,1-1.3.43,4.41,4.41,0,0,1-4.95-3.86,192.09,192.09,0,0,0-9.4-37.85c-21.86-60.93-71.41-102.61-128-115.2a165.78,165.78,0,0,0-97.31,7.69,171.62,171.62,0,0,0-16.49,7.51c-35.9,18.69-64.33,49.53-81.07,88.39a190.86,190.86,0,0,0-4.26,140.44c34.06,94.84,135.1,143,225.27,107.51a171.78,171.78,0,0,0,16.28-7.42,175.66,175.66,0,0,0,58.95-50,4.47,4.47,0,0,1,1.47-1.25,4.2,4.2,0,0,1,4.65.52,4.73,4.73,0,0,1,.7,6.43,184.24,184.24,0,0,1-61.89,52.51,180,180,0,0,1-17.08,7.79c-94.68,37.29-200.77-13.37-236.49-112.86a200.3,200.3,0,0,1,4.47-147.43c17.57-40.8,47.42-73.18,85.11-92.8a181.55,181.55,0,0,1,17.31-7.88c45.86-18.07,95.72-16.27,140.38,5C4335.58,2235.3,4366.48,2266.74,4385.25,2306.39Z"/><g class="cls-34"><path class="cls-42" d="M4885.41,2978.35a7.29,7.29,0,0,1-1.45,8.32c-4.18,4.06-8.54,8-13,11.84a6.49,6.49,0,0,1-9.45-1,7.28,7.28,0,0,1,.93-9.93c4.2-3.62,8.36-7.41,12.35-11.29a6.51,6.51,0,0,1,9.5.4A6.76,6.76,0,0,1,4885.41,2978.35Z"/><path class="cls-43" d="M4844.43,3011.35a7.25,7.25,0,0,1-2.43,9.1,287.72,287.72,0,0,1-25.77,15.16c-1.85,1-3.72,1.91-5.6,2.84-3.36,1.65-7.32-.12-8.95-3.39a7.21,7.21,0,0,1,3.21-9.39q2.7-1.34,5.35-2.71a274.52,274.52,0,0,0,24.58-14.46,6.53,6.53,0,0,1,9.27,2.21C4844.21,3010.92,4844.33,3011.13,4844.43,3011.35Zm-63.12,31.1a7.64,7.64,0,0,1,.37.94,7.13,7.13,0,0,1-4.28,8.91,278.87,278.87,0,0,1-34.59,9.48,6.78,6.78,0,0,1-7.9-5.57,7,7,0,0,1,5.28-8.28,266.44,266.44,0,0,0,33-9A6.63,6.63,0,0,1,4781.31,3042.45Zm-68.45,14.08a7.52,7.52,0,0,1,.69,2.65,6.94,6.94,0,0,1-6.23,7.52,275.9,275.9,0,0,1-35.8.26,6.94,6.94,0,0,1-6.35-7.44,6.83,6.83,0,0,1,7.06-6.66,262.61,262.61,0,0,0,34.13-.24A6.71,6.71,0,0,1,4712.86,3056.53Zm-69.69-4a7.45,7.45,0,0,1,.6,4.38,6.75,6.75,0,0,1-7.8,5.69,279.84,279.84,0,0,1-34.78-8.94,7.16,7.16,0,0,1-4.43-8.84,6.64,6.64,0,0,1,8.4-4.64,267,267,0,0,0,33.16,8.53A6.76,6.76,0,0,1,4643.17,3052.5Zm-66.69-21.78a7.34,7.34,0,0,1,.12,6,6.58,6.58,0,0,1-8.89,3.52,291.75,291.75,0,0,1-31.66-17.53,7.25,7.25,0,0,1-2.27-9.7,6.53,6.53,0,0,1,9.23-2.36,276.34,276.34,0,0,0,30.21,16.72A6.85,6.85,0,0,1,4576.48,3030.72Zm-59.65-38.11a7.36,7.36,0,0,1-.74,7.52,6.52,6.52,0,0,1-9.44,1.15,295.18,295.18,0,0,1-26.65-25.11,7.31,7.31,0,0,1,.06-10,6.49,6.49,0,0,1,9.5.09,284.12,284.12,0,0,0,25.41,23.93A7,7,0,0,1,4516.83,2992.61Zm-49-52.23a7.29,7.29,0,0,1-1.93,8.73,6.51,6.51,0,0,1-9.42-1.32,308.81,308.81,0,0,1-20-31.21,7.3,7.3,0,0,1,2.39-9.66,6.56,6.56,0,0,1,9.2,2.53,291.16,291.16,0,0,0,19.07,29.76A7.79,7.79,0,0,1,4467.83,2940.38Zm-47.26-97.84a7.4,7.4,0,0,1,.43,1.17,302.38,302.38,0,0,0,9.9,29.41c.56,1.46,1.14,2.89,1.73,4.31a7.19,7.19,0,0,1-3.49,9.28,6.55,6.55,0,0,1-8.84-3.68c-.63-1.52-1.24-3-1.84-4.57a321,321,0,0,1-10.35-30.8,7.09,7.09,0,0,1,4.55-8.75A6.62,6.62,0,0,1,4420.57,2842.54Z"/></g><g class="cls-34"><path class="cls-44" d="M4944.73,2623.57a7.23,7.23,0,0,1-2.95,9.41,6.58,6.58,0,0,1-9.05-3.07,296.55,296.55,0,0,0-17.11-30.36,7.3,7.3,0,0,1,1.79-9.8,6.53,6.53,0,0,1,9.33,1.9,313.8,313.8,0,0,1,17.95,31.83Zm13.85,33.09a7.33,7.33,0,0,1,.29.7,320.29,320.29,0,0,1,10.23,35.39,7.07,7.07,0,0,1-5,8.5A6.76,6.76,0,0,1,4956,2696a307.59,307.59,0,0,0-9.75-33.78,7.14,7.14,0,0,1,4-9.06A6.61,6.61,0,0,1,4958.58,2656.66Zm-52.38-92.83a7.3,7.3,0,0,1-1.6,8.45,6.5,6.5,0,0,1-9.48-.69,286.73,286.73,0,0,0-23.6-25.14,7.32,7.32,0,0,1-.51-10,6.5,6.5,0,0,1,9.49-.52,301.37,301.37,0,0,1,24.74,26.36A7.13,7.13,0,0,1,4906.2,2563.83Zm68.31,163a7.25,7.25,0,0,1,.66,2.35,318.93,318.93,0,0,1,1.79,36.94,6.86,6.86,0,0,1-6.79,7,6.94,6.94,0,0,1-6.65-7.14,302.39,302.39,0,0,0-1.71-35.22,7,7,0,0,1,5.93-7.79A6.69,6.69,0,0,1,4974.51,2726.85Zm-119.42-211.24a7.37,7.37,0,0,1-.5,7.19,6.51,6.51,0,0,1-9.36,1.73,274.63,274.63,0,0,0-28.64-18.45,7.25,7.25,0,0,1-2.78-9.56,6.55,6.55,0,0,1,9.08-2.9,290.58,290.58,0,0,1,30,19.35A7,7,0,0,1,4855.09,2515.61Zm-60.61-34a7.3,7.3,0,0,1,.26,5.68,6.6,6.6,0,0,1-8.68,4,272.83,272.83,0,0,0-32-10.75,7.11,7.11,0,0,1-4.87-8.58,6.68,6.68,0,0,1,8.15-5.1,285.43,285.43,0,0,1,33.55,11.26A6.82,6.82,0,0,1,4794.48,2481.65Zm-66.57-17.75a7.35,7.35,0,0,1,.65,4,6.78,6.78,0,0,1-7.51,6.1,261.5,261.5,0,0,0-33.51-2.36,6.94,6.94,0,0,1-6.69-7.11,6.86,6.86,0,0,1,6.75-7,274.11,274.11,0,0,1,35.13,2.48A6.75,6.75,0,0,1,4727.91,2463.9Z"/><path class="cls-45" d="M4973.78,2799.28a7.29,7.29,0,0,1,.64,4.08c-.76,6-1.69,12-2.77,17.8a6.74,6.74,0,0,1-7.88,5.57,7.1,7.1,0,0,1-5.32-8.3c1-5.55,1.92-11.27,2.65-17a6.64,6.64,0,0,1,12.68-2.17Z"/></g><path class="cls-46" d="M4893.57,2834.46a3.73,3.73,0,0,0-.77-4.08l-30.12-29.93a198.65,198.65,0,0,0,1.88-61.36l31.85-27.7a3.7,3.7,0,0,0,1-4l-17.55-48.86a3.41,3.41,0,0,0-3.28-2.32l-41.37,1.15a186.91,186.91,0,0,0-40-44.86l3.83-43.31a3.62,3.62,0,0,0-2-3.59L4751.77,2544a3.29,3.29,0,0,0-3.88.8l-28.43,31.56a172,172,0,0,0-58.43-2.12l-26.44-33.52a3.32,3.32,0,0,0-3.82-1.07l-46.49,18.31a3.59,3.59,0,0,0-2.2,3.44l1.2,43.46a184,184,0,0,0-42.62,41.92l-41.24-4.12a3.38,3.38,0,0,0-3.42,2.08l-20.46,47.5a3.71,3.71,0,0,0,.76,4.07l30.13,29.94a198.64,198.64,0,0,0-1.88,61.36l-31.85,27.69a3.68,3.68,0,0,0-1,4l17.54,48.87a3.41,3.41,0,0,0,3.28,2.32l41.38-1.15a186.87,186.87,0,0,0,40,44.86l-3.82,43.31a3.59,3.59,0,0,0,2,3.59l45.27,21.61a3.29,3.29,0,0,0,3.88-.8l28.43-31.56a172,172,0,0,0,58.42,2.12l26.45,33.52a3.3,3.3,0,0,0,3.82,1.06l46.48-18.3a3.58,3.58,0,0,0,2.2-3.45l-1.19-43.46a183.51,183.51,0,0,0,42.61-41.91l41.25,4.12a3.39,3.39,0,0,0,3.41-2.08Z"/><path class="cls-41" d="M4730.12,2739.76a55.39,55.39,0,0,1,4.47,33.12,53.16,53.16,0,0,1-21,34.35c-23,16.76-54.74,10.71-70.76-13.49s-10.33-57.53,12.68-74.29a48.46,48.46,0,0,1,38-8.65,50.52,50.52,0,0,1,32.77,22.14A55.85,55.85,0,0,1,4730.12,2739.76Zm-79.06,41a41.45,41.45,0,0,0,2.8,5c11.79,17.8,35.14,22.25,52.06,9.92a39.17,39.17,0,0,0,15.44-25.27,40.71,40.71,0,0,0-6.12-29.39h0a37.16,37.16,0,0,0-24.09-16.28,35.75,35.75,0,0,0-28,6.36C4647.79,2742.27,4642.94,2763.58,4651.06,2780.74Z"/><path class="cls-41" d="M4796.86,2703.9q2.84,6,5.15,12.41a139.72,139.72,0,0,1,6.62,26.2l.18,1.21a7.13,7.13,0,0,1-3.65,7.35,6.42,6.42,0,0,1-2,.66,6.81,6.81,0,0,1-7.64-6,123.67,123.67,0,0,0-6.08-24.5h0c-.15-.44-.32-.87-.48-1.3a118.13,118.13,0,0,0-32.15-47.49,113.77,113.77,0,0,0-25.7-17.26l-.23-.11-.7-.33a107.49,107.49,0,0,0-86.57-3.11,109.45,109.45,0,0,0-10.68,4.86c-23.24,12.09-41.64,32.06-52.48,57.22a123.48,123.48,0,0,0-2.75,90.91c10.67,29.71,31.72,53.34,59.26,66.49a107.49,107.49,0,0,0,86.57,3.11,108.6,108.6,0,0,0,10.53-4.8,113.57,113.57,0,0,0,38.17-32.38,6.71,6.71,0,0,1,2.27-1.93,6.47,6.47,0,0,1,7.17.8,7.32,7.32,0,0,1,1.09,9.93,126.14,126.14,0,0,1-54.48,41.61,120.29,120.29,0,0,1-96.86-3.49c-30.81-14.71-54.38-41.09-66.3-74.38a138.14,138.14,0,0,1,3.08-101.71c12.13-28.15,32.72-50.49,58.72-64a130.16,130.16,0,0,1,11.94-5.44C4700.11,2614.32,4768.29,2643.54,4796.86,2703.9Z"/></g></svg>