<svg xmlns="http://www.w3.org/2000/svg" xmlns:xlink="http://www.w3.org/1999/xlink" viewBox="0 0 2810.45 2775.68"><defs><style>.cls-1,.cls-34{opacity:0.3;}.cls-1{fill:url(#linear-gradient);}.cls-2{opacity:0.81;fill:url(#linear-gradient-2);}.cls-12,.cls-14,.cls-15,.cls-29,.cls-3,.cls-30,.cls-41{fill:#fff;}.cls-3{opacity:0.62;}.cls-4{opacity:0.79;}.cls-5{fill:url(#New_Gradient_Swatch_20);}.cls-6{opacity:0.76;}.cls-7{fill:url(#New_Gradient_Swatch_20-2);}.cls-8{fill:url(#linear-gradient-3);}.cls-9{fill:url(#linear-gradient-4);}.cls-10{opacity:0.61;fill:url(#linear-gradient-5);}.cls-11{fill:url(#linear-gradient-6);}.cls-13{opacity:0.71;}.cls-14{opacity:0.65;}.cls-15,.cls-16{opacity:0.75;}.cls-17{fill:url(#linear-gradient-7);}.cls-18{fill:url(#linear-gradient-8);}.cls-19{fill:url(#linear-gradient-9);}.cls-20{fill:url(#linear-gradient-10);}.cls-21{fill:url(#linear-gradient-11);}.cls-22{fill:url(#linear-gradient-12);}.cls-23{fill:url(#linear-gradient-13);}.cls-24{fill:url(#linear-gradient-14);}.cls-25{fill:url(#linear-gradient-15);}.cls-26{fill:url(#linear-gradient-16);}.cls-27{fill:url(#linear-gradient-17);}.cls-28{fill:url(#linear-gradient-18);}.cls-29{opacity:0.6;}.cls-30{opacity:0.72;}.cls-31{fill:url(#linear-gradient-19);}.cls-32{fill:url(#linear-gradient-20);}.cls-33{fill:url(#linear-gradient-21);}.cls-35{fill:url(#linear-gradient-22);}.cls-36{fill:url(#linear-gradient-23);}.cls-37{fill:url(#linear-gradient-24);}.cls-38{fill:url(#linear-gradient-25);}.cls-39{fill:url(#linear-gradient-26);}.cls-40{fill:url(#linear-gradient-27);}.cls-41{opacity:0.56;}.cls-42{fill:url(#linear-gradient-28);}.cls-43{fill:url(#linear-gradient-29);}.cls-44{fill:url(#linear-gradient-30);}.cls-45{fill:url(#linear-gradient-31);}.cls-46{fill:url(#linear-gradient-32);}</style><linearGradient id="linear-gradient" x1="7257.67" y1="3833.73" x2="4782.42" y2="759.62" gradientUnits="userSpaceOnUse"><stop offset="0" stop-color="#b37cff"/><stop offset="1" stop-color="#f895e7"/></linearGradient><linearGradient id="linear-gradient-2" x1="-7323.82" y1="1062.36" x2="-6060.19" y2="1062.36" gradientTransform="matrix(-1, -0.08, -0.08, 1, -350.88, 511.57)" xlink:href="#linear-gradient"/><linearGradient id="New_Gradient_Swatch_20" x1="-5645.51" y1="-1284.68" x2="-4881.55" y2="-1284.68" gradientTransform="matrix(-0.95, -0.31, -0.31, 0.95, 671.35, 820.16)" gradientUnits="userSpaceOnUse"><stop offset="0" stop-color="#a737d5"/><stop offset="1" stop-color="#ef497a"/></linearGradient><linearGradient id="New_Gradient_Swatch_20-2" x1="8151.24" y1="2255.34" x2="8816.4" y2="2255.34" gradientTransform="translate(-4269.26 590.23) rotate(-10.97)" xlink:href="#New_Gradient_Swatch_20"/><linearGradient id="linear-gradient-3" x1="5994.58" y1="228.67" x2="3043.5" y2="5582.77" gradientUnits="userSpaceOnUse"><stop offset="0" stop-color="#2b3582"/><stop offset="1" stop-color="#150e42"/></linearGradient><linearGradient id="linear-gradient-4" x1="5391.25" y1="550.19" x2="4836.7" y2="4048.92" gradientUnits="userSpaceOnUse"><stop offset="0" stop-color="#53d8ff"/><stop offset="1" stop-color="#3840f7"/></linearGradient><linearGradient id="linear-gradient-5" x1="5109.29" y1="-1305.27" x2="5210.13" y2="-276.67" xlink:href="#linear-gradient-4"/><linearGradient id="linear-gradient-6" x1="1221.16" y1="-55.48" x2="977.72" y2="1429.54" xlink:href="#linear-gradient-4"/><linearGradient id="linear-gradient-7" x1="-9517.11" y1="2957.07" x2="-9152.12" y2="2017.47" gradientTransform="matrix(-1, 0, 0, 1, -3446.32, 0)" gradientUnits="userSpaceOnUse"><stop offset="0" stop-color="#f9b776"/><stop offset="1" stop-color="#f47960"/></linearGradient><linearGradient id="linear-gradient-8" x1="-9522.65" y1="5979.33" x2="-8316.33" y2="-8119.56" xlink:href="#linear-gradient-7"/><linearGradient id="linear-gradient-9" x1="-9479.29" y1="1470.63" x2="-9324.58" y2="1470.63" xlink:href="#linear-gradient-7"/><linearGradient id="linear-gradient-10" x1="-8976.45" y1="2983.71" x2="-8608.43" y2="2419.08" gradientTransform="matrix(-1, 0, 0, 1, -3211.16, 0)" gradientUnits="userSpaceOnUse"><stop offset="0" stop-color="#cb236d"/><stop offset="1" stop-color="#4c246d"/></linearGradient><linearGradient id="linear-gradient-11" x1="-9308.05" y1="3155.67" x2="-8899.69" y2="2449.87" xlink:href="#linear-gradient-10"/><linearGradient id="linear-gradient-12" x1="6810.44" y1="1699.43" x2="6296.14" y2="2697.78" gradientTransform="translate(-893.1)" xlink:href="#linear-gradient-10"/><linearGradient id="linear-gradient-13" x1="-9310.33" y1="1125.45" x2="-9200.45" y2="1125.45" gradientTransform="matrix(-1, 0, 0, 1, -7561.98, -229.82)" xlink:href="#linear-gradient-7"/><linearGradient id="linear-gradient-14" x1="-9112.37" y1="1244.49" x2="-9694.22" y2="1990.94" gradientTransform="matrix(-1, 0, 0, 1, -3446.32, 0)" gradientUnits="userSpaceOnUse"><stop offset="0" stop-color="#fdf53f"/><stop offset="1" stop-color="#d93c65"/></linearGradient><linearGradient id="linear-gradient-15" x1="-8665.67" y1="1188.09" x2="-9615.97" y2="1732.5" xlink:href="#linear-gradient-7"/><linearGradient id="linear-gradient-16" x1="-8571.24" y1="1352.91" x2="-9521.54" y2="1897.33" xlink:href="#linear-gradient-7"/><linearGradient id="linear-gradient-17" x1="-9127.32" y1="1125.4" x2="-9340.85" y2="813.18" xlink:href="#linear-gradient-7"/><linearGradient id="linear-gradient-18" x1="-9005.26" y1="902.33" x2="-9307.74" y2="1295.56" gradientTransform="matrix(-1, 0, 0, 1, -3211.16, 0)" xlink:href="#linear-gradient-3"/><linearGradient id="linear-gradient-19" x1="6726" y1="-228.07" x2="6299.99" y2="1344.88" gradientTransform="matrix(1, 0, 0, 1, 0, 0)" xlink:href="#linear-gradient-14"/><linearGradient id="linear-gradient-20" x1="6611.87" y1="360.78" x2="6092.99" y2="1581.52" gradientTransform="matrix(1, 0, 0, 1, 0, 0)" xlink:href="#linear-gradient-14"/><linearGradient id="linear-gradient-21" x1="6561.99" y1="-50.21" x2="6441.83" y2="1115.91" gradientTransform="matrix(1, 0, 0, 1, 0, 0)" xlink:href="#linear-gradient-14"/><linearGradient id="linear-gradient-22" x1="-551.56" y1="13274.4" x2="87.16" y2="13274.4" gradientTransform="translate(-7542.56 8227.37) rotate(-116.39)" xlink:href="#linear-gradient"/><linearGradient id="linear-gradient-23" x1="119.11" y1="13118.13" x2="157.05" y2="13118.13" gradientTransform="translate(-7542.56 8227.37) rotate(-116.39)" xlink:href="#linear-gradient"/><linearGradient id="linear-gradient-24" x1="320.31" y1="13401.12" x2="346.55" y2="13401.12" gradientTransform="translate(-7542.56 8227.37) rotate(-116.39)" xlink:href="#linear-gradient"/><linearGradient id="linear-gradient-25" x1="-305.07" y1="13682.69" x2="353.45" y2="13682.69" gradientTransform="translate(-7542.56 8227.37) rotate(-116.39)" xlink:href="#linear-gradient"/><linearGradient id="linear-gradient-26" x1="-372.21" y1="13809.69" x2="-334.74" y2="13809.69" gradientTransform="translate(-7542.56 8227.37) rotate(-116.39)" xlink:href="#linear-gradient"/><linearGradient id="linear-gradient-27" x1="4645.68" y1="2033.6" x2="4408.73" y2="2900.72" gradientTransform="matrix(1, 0, 0, 1, 0, 0)" xlink:href="#linear-gradient-14"/><linearGradient id="linear-gradient-28" x1="-930.03" y1="13784.8" x2="-911.29" y2="13784.8" gradientTransform="translate(-7542.56 8227.37) rotate(-116.39)" xlink:href="#linear-gradient"/><linearGradient id="linear-gradient-29" x1="-938.76" y1="13586.79" x2="-583.03" y2="13586.79" gradientTransform="translate(-7542.56 8227.37) rotate(-116.39)" xlink:href="#linear-gradient"/><linearGradient id="linear-gradient-30" x1="-772.7" y1="13927.42" x2="-363.02" y2="13927.42" gradientTransform="translate(-7542.56 8227.37) rotate(-116.39)" xlink:href="#linear-gradient"/><linearGradient id="linear-gradient-31" x1="-818.53" y1="13946.72" x2="-790.16" y2="13946.72" gradientTransform="translate(-7542.56 8227.37) rotate(-116.39)" xlink:href="#linear-gradient"/><linearGradient id="linear-gradient-32" x1="5128.39" y1="2358.58" x2="4891.45" y2="3155.12" gradientTransform="matrix(1, 0, 0, 1, 0, 0)" xlink:href="#linear-gradient-14"/></defs><title>login1</title><g id="Illustration"><path class="cls-1" d="M6584.36,2616.11c-57.28,59.56-111.47,98-154.29,128.32-503.3,356.75-1098.83,252.76-1225.4,227.37-186.9-37.5-548.18-110-809.38-413.43-395.17-459.09-333.63-1182.36-27.11-1659.8,56.06-87.33,352.23-572,954.18-649.78,364.29-47,788.94,47.84,1096.46,302.36C7064.33,1085.41,7018.38,2164.71,6584.36,2616.11Z" transform="translate(-4115.66 -229.82)"/><path class="cls-2" d="M5533.07,2891.63s549.59-1388.39,1366-1540.06a22.86,22.86,0,0,1,27,23.61C6917.83,1546.44,6813.25,2452.8,5533.07,2891.63Z" transform="translate(-4115.66 -229.82)"/><path class="cls-3" d="M6752.42,1576.77c-41.69,59.49-85.37,117.42-129.66,174.92-11.06,14.38-22.36,28.57-33.53,42.87s-22.27,28.64-33.73,42.72l-34.23,42.31c-11.47,14.05-22.69,28.32-34.43,42.14-23.33,27.79-46.43,55.78-69.95,83.41l-71.26,82.29c-48.36,54.11-96.68,108.27-146.51,161L6162,2288.32c-12.22,13.43-25.17,26.15-37.72,39.26l-75.7,78.28L5971,2482.22c-13,12.7-25.82,25.54-39,38l-40.06,36.91c-26.76,24.54-53.24,49.4-80.45,73.44l-82.72,70.88-20.77,17.6c-7,5.8-13.77,11.84-20.91,17.44l-42.74,33.78c-14.2,11.31-28.61,22.36-42.9,33.54s-28.63,22.31-43,33.33a2.51,2.51,0,0,1-3.17-3.9l.07-.06q20.66-17.73,41.48-35.19c13.89-11.66,27.66-23.44,41.63-35l41.79-34.75c13.77-11.76,27.13-24,40.8-35.91l81.83-71.52,80.14-73.4,40.11-36.67c6.7-6.1,13.08-12.53,19.65-18.77l19.66-18.76,78.63-75.06c51.14-51.35,103.14-101.9,152.52-155,24.94-26.31,50.18-52.34,74.27-79.43,24.3-26.91,48.82-53.61,72.93-80.68l71.52-81.93c23.6-27.53,46.79-55.39,70.2-83.07,11.79-13.78,23.06-28,34.57-42l34.37-42.15c11.5-14,22.56-28.37,33.86-42.55s22.56-28.38,33.66-42.71c44.25-57.42,87.88-115.4,129.42-174.74l0,0a2.52,2.52,0,0,1,4.12,2.89Z" transform="translate(-4115.66 -229.82)"/><g class="cls-4"><path class="cls-5" d="M5399.89,2095.37s267.17-1226,1073.72-1861.56a18.39,18.39,0,0,1,29.29,9.95C6553.64,449.06,6817.79,1758.49,5399.89,2095.37Z" transform="translate(-4115.66 -229.82)"/><path class="cls-3" d="M6388,587.5c-9.26,35.56-20,70.6-31.41,105.48s-23.36,69.55-36.07,103.95q-38.27,103.19-83.23,203.74c-7.43,16.78-15.26,33.37-22.87,50.07s-15.93,33-23.86,49.6-16.4,32.83-24.66,49.21l-12.51,24.52-12.94,24.29c-34.48,64.8-70.8,128.66-109.94,190.78s-80.07,123.15-124.09,181.94c-5.45,7.38-10.79,14.85-16.33,22.16L5873.17,1615l-16.88,21.75c-5.67,7.22-11.16,14.58-17.09,21.59l-35.08,42.46-8.8,10.59-9.12,10.31L5768,1742.33a2145.87,2145.87,0,0,1-322.3,299,2.19,2.19,0,0,1-2.71-3.45l.05,0,42.53-34.69,21.3-17.29,20.62-18.1,41.17-36.24,39.81-37.73c6.59-6.33,13.38-12.46,19.87-18.89l19.28-19.5c12.79-13.06,25.84-25.85,38.41-39.12,24.7-27,50-53.36,73.49-81.36l17.93-20.73,9-10.37,8.65-10.63,34.68-42.46c5.88-7,11.32-14.34,16.93-21.55l16.73-21.71,16.73-21.72c5.48-7.3,10.78-14.75,16.18-22.12,43.6-58.68,84-119.68,122.86-181.58,39.07-61.79,75.58-125.19,110.14-189.63l13-24.15,12.55-24.38c8.3-16.29,16.85-32.45,24.76-48.94,16.23-32.77,31.9-65.81,47.32-99q45.93-99.65,85.32-202.16,20-51.1,37.93-103,9-25.9,17.44-52c5.7-17.37,11.14-34.87,16.18-52.4v0a2.19,2.19,0,0,1,4.22,1.16Z" transform="translate(-4115.66 -229.82)"/></g><g class="cls-6"><path class="cls-7" d="M4980.74,2029.57S4876.55,942,4245,309.11a16,16,0,0,0-26.36,5.58C4153.53,486.93,3789.74,1591.68,4980.74,2029.57Z" transform="translate(-4115.66 -229.82)"/><path class="cls-3" d="M4286.5,623.19c10.78,62.7,24.72,125,40.67,186.62q23.53,92.6,53,183.52c9.94,30.24,20.08,60.42,30.73,90.41,5.13,15.07,10.85,29.92,16.35,44.86l8.33,22.37,8.73,22.21c23.22,59.26,48.25,117.82,75.63,175.26,27.17,57.52,55.77,114.43,87.37,169.66,3.9,6.92,7.7,13.91,11.68,20.8l12.21,20.49,12.21,20.5c4.1,6.82,8,13.73,12.4,20.38l25.57,40.29,6.36,10.09,6.67,9.89,13.33,19.78c17.41,26.65,36.5,52.11,55.05,78,9.47,12.77,19.42,25.19,29.11,37.81l14.64,18.85c4.93,6.24,10.17,12.24,15.2,18.4l30.45,36.77,31.8,35.62,15.92,17.8,16.6,17.17,33.12,34.45,0,0a2.19,2.19,0,0,1-3.1,3.1,1858.61,1858.61,0,0,1-248.13-291.6L4684.78,1667l-6.83-9.86-6.53-10.06-25.95-40.34c-4.41-6.68-8.41-13.61-12.56-20.44l-12.36-20.55-12.36-20.56c-4-6.9-7.88-13.91-11.83-20.86-32-55.39-61-112.46-88.54-170.16s-52.2-116.77-75.3-176.38l-8.67-22.34-8.27-22.51c-5.45-15-11.13-30-16.23-45.11s-10.6-30.16-15.49-45.37-9.88-30.39-14.55-45.67c-37.55-122.15-68.75-246.41-87.15-373a2.19,2.19,0,0,1,4.32-.69Z" transform="translate(-4115.66 -229.82)"/></g><path class="cls-8" d="M4420.68,373.79c-9,426.79-38.37,1899-24.37,2420.64,1.48,55.27,39.35,99.63,86.6,101.44,233.65,8.94,1090.23,31.62,1472.41,12.86,79.61-3.91,142.91-79.34,144.56-172.53,7.95-448,25.47-1707.94-16.18-2285.14-5-69.15-51.39-124.22-110.42-131.13-254.46-29.78-1114.72-102.58-1444.91-77.51C4468.82,246.94,4422.16,304,4420.68,373.79Z" transform="translate(-4115.66 -229.82)"/><path class="cls-9" d="M4524.94,504.73c-12.58,344.49-52.25,1490.5-39.66,1914.27,1.84,61.94,43.57,112,96.46,115.65,217.76,14.91,960.69,47.78,1280.09,17.86,57.51-5.39,102.64-59.8,105.75-127.2,16.18-351.45,62.66-1418.55,50.59-1837.57C6016.24,520.89,5972,466.3,5915,460.32,5679.46,435.58,4890,376.7,4618.59,394,4567.64,397.28,4527.12,445.09,4524.94,504.73Z" transform="translate(-4115.66 -229.82)"/><path class="cls-10" d="M5109.05,327.08h0c0,13.09,8.73,23.89,19.91,24.58,55.18,3.38,210.65,12.95,280.13,17.66,13.7.93,24.45-13.47,21.86-29.24l-.45-2.69c-1.77-10.75-9.4-18.85-18.72-19.85-47-5-188.68-19-282.58-15.07C5117.93,302.94,5109.05,313.87,5109.05,327.08Z" transform="translate(-4115.66 -229.82)"/><circle class="cls-11" cx="1101.98" cy="671.52" r="325.91"/><path class="cls-12" d="M5317.43,778.18c0,55.18-44.74,114.76-99.92,114.76s-99.92-59.58-99.92-114.76,44.73-94.34,99.92-94.34S5317.43,723,5317.43,778.18Z" transform="translate(-4115.66 -229.82)"/><path class="cls-12" d="M5093.51,1105.41h243.92a59,59,0,0,0,56.23-41.05l13.13-41c9.61-30-6-62.56-35.63-73.39-99.27-36.29-201.92-31.64-307.07,3.35-29.46,9.8-45.8,41.31-37.68,71.28l10.11,37.25A59,59,0,0,0,5093.51,1105.41Z" transform="translate(-4115.66 -229.82)"/><g class="cls-13"><rect class="cls-14" x="531.04" y="1332.9" width="1202.61" height="185.02" rx="6.75"/><rect class="cls-14" x="524.55" y="1634.77" width="1202.61" height="185.02" rx="6.75"/><rect class="cls-14" x="719.57" y="1943.95" width="776.9" height="235.88" rx="8.33"/></g><rect class="cls-15" x="584.31" y="1374.8" width="716.3" height="102.79" rx="12"/><g class="cls-16"><circle class="cls-12" cx="4724.86" cy="1951.94" r="42.2" transform="translate(-4502.98 1726.89) rotate(-22.5)"/><circle class="cls-12" cx="4840.64" cy="1954.11" r="42.2" transform="translate(-4495 1771.37) rotate(-22.5)"/><circle class="cls-12" cx="4952.08" cy="1959.52" r="42.2" transform="translate(-4488.58 1814.42) rotate(-22.5)"/><circle class="cls-12" cx="5067.86" cy="1961.68" r="42.2" transform="translate(-4018.44 3928.27) rotate(-45)"/><circle class="cls-12" cx="5183.63" cy="1960.6" r="42.2" transform="translate(-2031.13 6325.29) rotate(-76.72)"/><circle class="cls-12" cx="5299.42" cy="1962.76" r="42.2" transform="translate(-1602.54 6649.54) rotate(-80.78)"/></g><path class="cls-17" d="M5781.3,2100.51l129.28,32.32-32.32,242.4s48.48,48.48,64.64,113.12S5974,2824.41,5974,2824.41l30.68,18.54,3.73,15.48-89.25,120,14.8-95.51c2.35-15.16-1.72-45.91-.44-46.55-48.47-129.28-152.18-493.46-152.18-493.46Z" transform="translate(-4115.66 -229.82)"/><path class="cls-18" d="M5743.53,2860.1c1.4,0,2.77.08,4.18,0-6.25-77.94-34.8-420.95-63.37-549.51-32.32-145.44,48.48-436.32,48.48-436.32l145.44,145.44-80.8,274.72c55.38,83.06-9,569.47-7.64,569.25l-.09,1.09,21.08,29-2.56,15.72-128.8,76,50.68-82.29A92.46,92.46,0,0,0,5743.53,2860.1Z" transform="translate(-4115.66 -229.82)"/><path class="cls-19" d="M5907.12,1229.24s283.17,319.15,0,482.79l-28.86-20.89s140.59-134.63,0-299.43Z" transform="translate(-4115.66 -229.82)"/><path class="cls-20" d="M5671,2997.39h41.1a24.74,24.74,0,0,0,19.64-9.62c12.82-16.65,39.36-49.14,52.06-50,17.09-1.15,14.9,59.6,14.9,59.6h9.58l12.13-75.48a44.67,44.67,0,0,0-23.45-46.71h0s-3.9,28.89-25.08,41.66-86.19,58.54-86.19,58.54a58.89,58.89,0,0,0-16.71.45C5656,2978.19,5657.79,2997.39,5671,2997.39Z" transform="translate(-4115.66 -229.82)"/><path class="cls-21" d="M5915.93,2992.71l37.88-15.94a24.73,24.73,0,0,0,14.37-16.49c5.36-20.31,17.23-60.55,28.6-66.25,15.31-7.68,36.86,49.16,36.86,49.16l8.82-3.71-18.08-74.29a44.7,44.7,0,0,0-39.73-34h0s7.6,28.14-7,48.13-56.75,87.38-56.75,87.38a59.12,59.12,0,0,0-15.22,6.89C5894.66,2980.82,5903.78,2997.82,5915.93,2992.71Z" transform="translate(-4115.66 -229.82)"/><path class="cls-22" d="M5695.78,1628.35s4.76,29.13-2.2,109.21-40.25,268.09-33.48,448c0,0,94.63,22,259,11.61,0,0,69.38-280.86,52.48-387.63S5863,1626.15,5863,1626.15Z" transform="translate(-4115.66 -229.82)"/><polygon class="cls-23" points="1650.04 863.43 1638.47 999.42 1748.35 999.42 1721.03 791.84 1650.04 863.43"/><path class="cls-24" d="M5896.56,1210.43c-37.92-2.09-122.7-6-182.76-2.69a69.78,69.78,0,0,0-64.59,55.42l-14.65,70.2a169.2,169.2,0,0,0,2.38,79l58.84,216s52.34,31.45,167.24-2.2c0,0,100.9-240.62,59.59-394.54A28.59,28.59,0,0,0,5896.56,1210.43Z" transform="translate(-4115.66 -229.82)"/><path class="cls-25" d="M5652.08,1250.57c-16.18,42.63-30.8,87.33-46.5,129.2-8,21-16.09,41.5-24.75,60.37-4.39,9.39-9.2,18-13.62,25.85a113.9,113.9,0,0,1-12,17.17c-.51.44,1.2.77,1.77.8.34,0-10.94,1.85-14.41,2.43l-13.52-.08c-19.39-1-41.35-4.42-63.37-8.7-44.43-8.28-90.61-19.91-138-28.71l-.36-.06a16.71,16.71,0,0,0-14.09,29c19.12,16.84,39.39,30.66,60.41,44.12,10.59,6.47,21.35,12.82,32.3,18.91,11.16,5.69,22.35,11.42,34,16.72,23.4,10.2,47.58,19.6,75.44,25.63,7.32,1.23,14.54,2.51,22.07,3.52,8.45.29,16.12,1,25.35.51,4.9-.49,9.82-1.09,14.73-1.8a68.92,68.92,0,0,0,7.71-1.39c3.37-1,6.73-2.14,10-3.38,6.91-2.49,11.38-5.49,17-8.62,4.67-3.07,8.92-6.29,13.05-9.59,15.23-13,24.68-25.84,33-38.2a303.44,303.44,0,0,0,20.81-36.84,503.51,503.51,0,0,0,28.64-72.39c15.23-48.42,25.54-96,29.9-146.56a44,44,0,0,0-85-19.44Z" transform="translate(-4115.66 -229.82)"/><path class="cls-26" d="M5342.57,1470.63,5323,1424.09l-103.2-25.72s-8.25,17.89,35.09,25.72c0,0-15.48,17.11-7.22,37.23S5343.6,1501.61,5342.57,1470.63Z" transform="translate(-4115.66 -229.82)"/><path class="cls-27" d="M5719.18,936.19c-3.92,2.32-34.84,111.34-8.93,157s105-5.48,126.44-71.58S5823.69,874.56,5719.18,936.19Z" transform="translate(-4115.66 -229.82)"/><path class="cls-28" d="M5924.2,1021.66c17.75,86.93,76.54,63.14,118.18,101.81,67.48,62.69,164-1.93,257.88,57.47,67.75,42.88,100.4,152.6,67.89,241.18-45,122.68-198.94,173.14-278.7,135.77-76.22-35.71-65.37-142.67-167.93-184-43.54-17.55-65-6.14-91.11-32.16-45.64-45.53-33.33-133.89-28.58-167.93,10.3-73.86,35.06-87.23,23.22-119.69-23-63.14-130.39-50.11-139.34-94.68-8.15-40.59,69.68-117.53,142.92-105.41C5942,872.77,5916.3,982.93,5924.2,1021.66Z" transform="translate(-4115.66 -229.82)"/><path class="cls-29" d="M6334.3,1401.34a3,3,0,0,0,2.89-2.27c14.51-60.23,7.93-109.63-19.58-146.82-45.63-61.73-134.32-67.84-135.21-67.89a3,3,0,0,0-3.14,2.78,3,3,0,0,0,2.78,3.14c.86.06,86.87,6,130.83,65.53,26.39,35.71,32.63,83.44,18.55,141.87a3,3,0,0,0,2.19,3.58A3.32,3.32,0,0,0,6334.3,1401.34Z" transform="translate(-4115.66 -229.82)"/><path class="cls-30" d="M6043.82,1456.48a1.57,1.57,0,0,0,.37,0,1.49,1.49,0,0,0,1.06-1.81c-14.13-54.23-38.93-91.88-73.7-111.94-25.29-14.59-49-15.94-69.87-17.14-20.14-1.16-37.54-2.16-51.55-14.61-28.95-25.75-27.27-87.64,5-184a1.48,1.48,0,1,0-2.81-.94c-32.67,97.56-34.06,160.51-4.14,187.12,14.78,13.14,32.65,14.17,53.35,15.36s43.88,2.52,68.56,16.76c34.06,19.63,58.39,56.68,72.31,110.11A1.47,1.47,0,0,0,6043.82,1456.48Z" transform="translate(-4115.66 -229.82)"/><path class="cls-30" d="M5882.23,1000.08a1.58,1.58,0,0,0,.47-.07,1.49,1.49,0,0,0,.93-1.89c-11.23-33.42-43.6-28.45-77.89-23.18-21.71,3.34-44.15,6.77-63.18,1.14-14.21-4.21-22.64-10.73-25.08-19.4-4.17-14.74,10.42-31.19,10.57-31.36a1.48,1.48,0,1,0-2.2-2c-.65.72-15.83,17.81-11.23,34.14,2.73,9.71,11.85,16.92,27.09,21.44,19.68,5.83,42.45,2.34,64.48-1,34.42-5.28,64.19-9.86,74.63,21.2A1.49,1.49,0,0,0,5882.23,1000.08Z" transform="translate(-4115.66 -229.82)"/><path class="cls-31" d="M6209.27,662.47c0-153,129.6-277,285.13-277,150.92,0,270,117.5,270,262.4s-119.12,268.64-270,276.59C6338.87,932.66,6209.27,815.46,6209.27,662.47Z" transform="translate(-4115.66 -229.82)"/><path class="cls-32" d="M6235.29,661.78c0-138.65,117.45-251,258.4-251,136.78,0,244.73,106.48,244.73,237.81S6630.47,892,6493.69,899.23C6352.74,906.66,6235.29,800.44,6235.29,661.78Z" transform="translate(-4115.66 -229.82)"/><path class="cls-12" d="M6410,646.06h-23.15V553.78a71.85,71.85,0,0,1,63.11-71.26l47.35-5.75A71.77,71.77,0,0,1,6577.71,548v80.57h-23.15V548a48.62,48.62,0,0,0-54.49-48.26l-47.34,5.75A48.67,48.67,0,0,0,6410,553.78Z" transform="translate(-4115.66 -229.82)"/><path class="cls-12" d="M6380,625.34l203-11.25a14.4,14.4,0,0,1,15.18,14.37V789.28a14.38,14.38,0,0,1-14.39,14.38H6385.64a14.38,14.38,0,0,1-14.37-13.92l-4.88-149.57A14.38,14.38,0,0,1,6380,625.34Z" transform="translate(-4115.66 -229.82)"/><path class="cls-33" d="M6515.36,757.59l-12.29-35.32a11.85,11.85,0,0,1,2.69-12.2,33.45,33.45,0,1,0-44.87,2.5,11.91,11.91,0,0,1,3.87,13.17l-11.07,31.85a11.92,11.92,0,0,0,11.25,15.84h39.16A11.93,11.93,0,0,0,6515.36,757.59Z" transform="translate(-4115.66 -229.82)"/><g class="cls-34"><path class="cls-35" d="M4805.27,2699.82a11.75,11.75,0,0,1-3.91,14.72c-10.37,6.9-21.19,13.43-32.14,19.4a10.65,10.65,0,0,1-14.68-4.88l-.1-.2a11.69,11.69,0,0,1,4.71-15.21c10.41-5.68,20.68-11.88,30.53-18.43a10.61,10.61,0,0,1,15,3.55C4804.91,2699.11,4805.1,2699.47,4805.27,2699.82Zm-85.18,43.49a12.57,12.57,0,0,1,.51,1.25,11.57,11.57,0,0,1-6.57,14.6c-11.63,4.35-23.54,8.21-35.42,11.49a10.87,10.87,0,0,1-13.3-8.15,11.47,11.47,0,0,1,7.73-14c11.28-3.11,22.6-6.79,33.64-10.92A10.71,10.71,0,0,1,4720.09,2743.31ZM4627.87,2766a11.81,11.81,0,0,1,1.06,3.73c.71,6.27-3.54,11.95-9.51,12.69-12.23,1.52-24.68,2.49-37,2.9a11.44,11.44,0,0,1-.74-22.85c11.7-.39,23.52-1.31,35.14-2.75A10.81,10.81,0,0,1,4627.87,2766Zm-94.81.45a11.89,11.89,0,0,1,1.08,6.29,11,11,0,0,1-12,10.13c-12.26-1.4-24.61-3.37-36.71-5.86a11.46,11.46,0,0,1-8.61-13.42,10.9,10.9,0,0,1,12.75-9c11.49,2.37,23.22,4.25,34.87,5.58A10.94,10.94,0,0,1,4533.06,2766.45Zm-92.57-21.77a11.9,11.9,0,0,1,.56,8.8,10.74,10.74,0,0,1-13.82,7.07c-11.63-4.21-23.26-9-34.56-14.24a11.68,11.68,0,0,1-5.58-15.08,10.67,10.67,0,0,1,14.34-5.83c10.74,5,21.79,9.54,32.84,13.55A11,11,0,0,1,4440.49,2744.68ZM4354.77,2702a11.91,11.91,0,0,1-.47,11.1,10.58,10.58,0,0,1-15,3.7c-10.48-6.82-20.82-14.2-30.72-21.92a11.83,11.83,0,0,1-2.26-16,10.53,10.53,0,0,1,15.22-2.34c9.41,7.34,19.23,14.35,29.19,20.83A11.2,11.2,0,0,1,4354.77,2702Zm-200.87-363.3a11.6,11.6,0,0,1,1.13,4.69c.41,12.27,1.34,24.69,2.76,36.91.73,6.27-3.51,12-9.48,12.7a11,11,0,0,1-12.12-10c-1.49-12.87-2.47-26-2.91-38.88a11.18,11.18,0,0,1,10.49-11.8A10.86,10.86,0,0,1,4153.9,2338.66Zm126.3,301.76a11.84,11.84,0,0,1-2,13.1,10.51,10.51,0,0,1-15.38.1c-8.79-9.09-17.3-18.7-25.31-28.55a11.84,11.84,0,0,1,1.19-16.11,10.53,10.53,0,0,1,15.34,1.29c7.61,9.35,15.69,18.47,24,27.11A11.13,11.13,0,0,1,4280.2,2640.42Zm-112.29-203.26a12,12,0,0,1,.78,2.15c3,11.88,6.57,23.78,10.54,35.37a11.57,11.57,0,0,1-6.55,14.62,10.75,10.75,0,0,1-13.92-6.92c-4.18-12.19-7.92-24.71-11.1-37.21a11.48,11.48,0,0,1,7.7-14A10.75,10.75,0,0,1,4167.91,2437.16ZM4220.55,2563a11.74,11.74,0,0,1-3.9,14.7,10.59,10.59,0,0,1-15-3.52c-6.62-10.91-12.88-22.26-18.6-33.75,0-.07-.07-.15-.11-.22a11.7,11.7,0,0,1,4.69-15.2,10.65,10.65,0,0,1,14.69,4.86c5.44,10.91,11.39,21.69,17.68,32.06C4220.18,2562.23,4220.37,2562.59,4220.55,2563Z" transform="translate(-4115.66 -229.82)"/><path class="cls-36" d="M4158.13,2258.54a12,12,0,0,1,1,6.74c-.82,5.83-1.53,11.78-2.13,17.67a11,11,0,0,1-12,10.14,11.34,11.34,0,0,1-9.68-12.6c.63-6.2,1.38-12.45,2.23-18.58a10.75,10.75,0,0,1,20.52-3.37Z" transform="translate(-4115.66 -229.82)"/></g><g class="cls-34"><path class="cls-37" d="M4330.68,1961.37a11.77,11.77,0,0,1-3.42,14.37c-4.56,3.42-9.13,7-13.59,10.62a10.54,10.54,0,0,1-15.27-2,11.78,11.78,0,0,1,1.9-16c4.68-3.82,9.5-7.59,14.3-11.19a10.58,10.58,0,0,1,15.19,2.69A11.68,11.68,0,0,1,4330.68,1961.37Z" transform="translate(-4115.66 -229.82)"/><path class="cls-38" d="M4956.65,2126.1q3.35,7.07,6.49,14.31a11.64,11.64,0,0,1-5.38,15.13,10.7,10.7,0,0,1-14.42-5.69c-4.84-11.14-10.09-22-15.68-32.54a11.72,11.72,0,0,1,4.16-15.55,10.64,10.64,0,0,1,14.82,4.42C4950.1,2112.67,4953.47,2119.37,4956.65,2126.1Zm26.72,70.84a11.85,11.85,0,0,1,.68,1.81c3.5,12.22,6.55,24.73,9.06,37.18a11.4,11.4,0,0,1-8.39,13.52,10.91,10.91,0,0,1-12.9-8.84c-2.38-11.83-5.28-23.71-8.61-35.32a11.51,11.51,0,0,1,7.28-14.22A10.73,10.73,0,0,1,4983.37,2196.94Zm-68.13-141.14a11.78,11.78,0,0,1-3.17,14.19,10.56,10.56,0,0,1-15.25-2.26c-6.94-9.64-14.36-19.11-22.07-28.13a11.83,11.83,0,0,1,.81-16.14,10.53,10.53,0,0,1,15.37.89c8.12,9.51,15.94,19.48,23.24,29.63A10.84,10.84,0,0,1,4915.24,2055.8Zm85,237.56a11.92,11.92,0,0,1,1.11,4.28c.86,12.71,1.22,25.61,1.05,38.34a11.1,11.1,0,0,1-11,11.25,11.22,11.22,0,0,1-10.74-11.61c.16-12.09-.18-24.34-1-36.41a11.22,11.22,0,0,1,10.08-12.18A10.82,10.82,0,0,1,5000.27,2293.36Zm-149.18-308.77a11.9,11.9,0,0,1-1.42,12.47,10.53,10.53,0,0,1-15.34,1.32c-8.78-7.81-18-15.33-27.41-22.36a11.81,11.81,0,0,1-2.58-15.94,10.54,10.54,0,0,1,15.17-2.67c9.9,7.4,19.61,15.32,28.86,23.54A11.29,11.29,0,0,1,4851.09,1984.59Zm-77.44-54.74a12,12,0,0,1-.09,10.38,10.61,10.61,0,0,1-14.68,4.81c-10.22-5.62-20.79-10.85-31.4-15.56a11.65,11.65,0,0,1-5.82-15,10.66,10.66,0,0,1,14.24-6.08c11.17,5,22.29,10.46,33,16.37A11.2,11.2,0,0,1,4773.65,1929.85Zm-86.93-35.74a12,12,0,0,1,.77,8.05,10.8,10.8,0,0,1-13.32,8c-11.15-3.16-22.54-5.86-33.86-8a11.43,11.43,0,0,1-8.79-13.29,10.92,10.92,0,0,1,12.64-9.2c11.91,2.28,23.9,5.12,35.63,8.44A11,11,0,0,1,4686.72,1894.11Zm-92.22-15a11.85,11.85,0,0,1,1.12,5.56,11.07,11.07,0,0,1-11.31,10.92c-11.52-.52-23.19-.54-34.69,0a11.44,11.44,0,0,1-.95-22.83c12.11-.53,24.4-.52,36.52,0A10.94,10.94,0,0,1,4594.5,1879.12Zm-93.1,6.64a12.13,12.13,0,0,1,1,3,11.38,11.38,0,0,1-8.74,13.28c-11.31,2.15-22.68,4.84-33.8,8a10.89,10.89,0,0,1-13.36-8.06,11.47,11.47,0,0,1,7.64-14c11.71-3.32,23.68-6.15,35.59-8.41A10.79,10.79,0,0,1,4501.4,1885.76Zm-89.33,27.94c.1.21.2.42.29.64a11.63,11.63,0,0,1-5.78,15c-7.81,3.45-15.61,7.2-23.19,11.15q-4.11,2.14-8.16,4.37a10.66,10.66,0,0,1-14.7-4.85,11.56,11.56,0,0,1,4.58-15.41q4.26-2.35,8.59-4.6c8-4.15,16.18-8.09,24.39-11.73A10.67,10.67,0,0,1,4412.07,1913.7Z" transform="translate(-4115.66 -229.82)"/><path class="cls-39" d="M4996.51,2391.55a11.91,11.91,0,0,1,1,6.8c-.89,6.11-1.91,12.32-3.05,18.46a10.89,10.89,0,0,1-12.76,9,11.44,11.44,0,0,1-8.6-13.42c1.08-5.82,2.05-11.72,2.89-17.53a10.74,10.74,0,0,1,20.5-3.31Z" transform="translate(-4115.66 -229.82)"/></g><path class="cls-40" d="M4877,2436.51a5.55,5.55,0,0,0-1.15-6.09l-45-44.74a297,297,0,0,0,2.81-91.7l47.59-41.38a5.5,5.5,0,0,0,1.51-6l-26.21-73a5.13,5.13,0,0,0-4.91-3.47l-61.83,1.72a279.18,279.18,0,0,0-59.8-67l5.72-64.72a5.42,5.42,0,0,0-3-5.37l-67.66-32.29a4.91,4.91,0,0,0-5.79,1.19l-42.49,47.17a257,257,0,0,0-87.32-3.17L4490,1997.51a4.93,4.93,0,0,0-5.7-1.6l-69.47,27.36a5.35,5.35,0,0,0-3.29,5.15l1.79,64.95a274.31,274.31,0,0,0-63.69,62.64l-61.64-6.16a5,5,0,0,0-5.1,3.11l-30.58,71a5.53,5.53,0,0,0,1.14,6.09l45,44.74a297,297,0,0,0-2.81,91.7l-47.6,41.38a5.53,5.53,0,0,0-1.51,6l26.22,73a5.09,5.09,0,0,0,4.9,3.47l61.84-1.72a278.76,278.76,0,0,0,59.8,67l-5.72,64.72a5.4,5.4,0,0,0,3,5.37l67.66,32.29a4.92,4.92,0,0,0,5.79-1.19l42.49-47.17a257,257,0,0,0,87.31,3.17l39.52,50.09a5,5,0,0,0,5.71,1.6l69.46-27.36a5.33,5.33,0,0,0,3.29-5.15l-1.78-64.94a274.74,274.74,0,0,0,63.69-62.65l61.63,6.16a5.06,5.06,0,0,0,5.11-3.11Z" transform="translate(-4115.66 -229.82)"/><path class="cls-41" d="M4631.46,2295.51c16.21,34.25,6.53,76.76-24.19,99.15-33.78,24.61-80.38,15.73-103.9-19.8a81.09,81.09,0,0,1-12.21-58.64,78.06,78.06,0,0,1,30.82-50.43c33.78-24.61,80.38-15.73,103.89,19.8A79.21,79.21,0,0,1,4631.46,2295.51Zm-118.13,61.26a62.59,62.59,0,0,0,4.33,7.68c18,27.24,53.76,34.05,79.66,15.18s32.31-56.38,14.27-83.63-53.77-34.05-79.66-15.18a59.82,59.82,0,0,0-23.63,38.67A62.45,62.45,0,0,0,4513.33,2356.77Z" transform="translate(-4115.66 -229.82)"/><path class="cls-41" d="M4727.29,2243.87q4.17,8.82,7.54,18.17h0q1,2.94,2,5.92a203.28,203.28,0,0,1,7.25,29.93c0,.14,0,.28.07.41l.18,1.18c.12.76.23,1.53.34,2.29a4.63,4.63,0,0,1-2.36,4.76,4.15,4.15,0,0,1-1.3.43,4.4,4.4,0,0,1-4.95-3.86,192.09,192.09,0,0,0-9.4-37.85c-21.86-60.93-71.41-102.61-128-115.2a165.85,165.85,0,0,0-97.31,7.69,176.65,176.65,0,0,0-16.49,7.51c-35.9,18.69-64.33,49.53-81.07,88.39a190.81,190.81,0,0,0-4.26,140.44c34.06,94.84,135.09,143,225.27,107.51a171.78,171.78,0,0,0,16.28-7.42,175.66,175.66,0,0,0,58.95-50,4.37,4.37,0,0,1,1.47-1.25,4.18,4.18,0,0,1,4.64.52,4.74,4.74,0,0,1,.71,6.43,184.48,184.48,0,0,1-61.89,52.52,181.49,181.49,0,0,1-17.09,7.78c-94.67,37.3-200.77-13.37-236.49-112.86a200.3,200.3,0,0,1,4.47-147.43c17.58-40.8,47.42-73.18,85.12-92.8a182.91,182.91,0,0,1,17.31-7.88c45.86-18.07,95.71-16.27,140.38,5C4677.62,2172.78,4708.52,2204.22,4727.29,2243.87Z" transform="translate(-4115.66 -229.82)"/><g class="cls-34"><path class="cls-42" d="M5227.45,2915.83a7.3,7.3,0,0,1-1.45,8.32c-4.19,4.06-8.54,8-13,11.84a6.5,6.5,0,0,1-9.46-1,7.29,7.29,0,0,1,.93-9.93c4.21-3.61,8.36-7.41,12.36-11.29a6.51,6.51,0,0,1,9.5.4A7.39,7.39,0,0,1,5227.45,2915.83Z" transform="translate(-4115.66 -229.82)"/><path class="cls-43" d="M5186.46,2948.83a7.25,7.25,0,0,1-2.43,9.1,286.15,286.15,0,0,1-25.76,15.16c-1.85,1-3.72,1.91-5.6,2.84-3.36,1.65-7.33-.12-8.95-3.39a7.2,7.2,0,0,1,3.21-9.39q2.7-1.33,5.35-2.71a275.77,275.77,0,0,0,24.57-14.46,6.55,6.55,0,0,1,9.28,2.21C5186.25,2948.4,5186.36,2948.61,5186.46,2948.83Zm-63.11,31.1a7.64,7.64,0,0,1,.37.94,7.13,7.13,0,0,1-4.28,8.91,278.08,278.08,0,0,1-34.59,9.48,6.76,6.76,0,0,1-7.9-5.56,7,7,0,0,1,5.28-8.29,266.92,266.92,0,0,0,33-9A6.63,6.63,0,0,1,5123.35,2979.93ZM5054.9,2994a7.3,7.3,0,0,1,.68,2.65,6.93,6.93,0,0,1-6.22,7.52,275.9,275.9,0,0,1-35.8.26,6.94,6.94,0,0,1-6.35-7.44,6.83,6.83,0,0,1,7.06-6.66,262.61,262.61,0,0,0,34.13-.24A6.71,6.71,0,0,1,5054.9,2994Zm-69.7-4a7.37,7.37,0,0,1,.6,4.38,6.74,6.74,0,0,1-7.8,5.69,279.68,279.68,0,0,1-34.77-8.94,7.16,7.16,0,0,1-4.44-8.84,6.66,6.66,0,0,1,8.41-4.64,267,267,0,0,0,33.16,8.53A6.77,6.77,0,0,1,4985.2,2990Zm-66.68-21.78a7.38,7.38,0,0,1,.12,6,6.58,6.58,0,0,1-8.89,3.52,290.19,290.19,0,0,1-31.67-17.53,7.26,7.26,0,0,1-2.26-9.7,6.52,6.52,0,0,1,9.22-2.36,276.55,276.55,0,0,0,30.22,16.73A6.91,6.91,0,0,1,4918.52,2968.2Zm-59.66-38.11a7.34,7.34,0,0,1-.74,7.52,6.5,6.5,0,0,1-9.43,1.15,294,294,0,0,1-26.66-25.11,7.32,7.32,0,0,1,.07-10,6.49,6.49,0,0,1,9.5.09,281.43,281.43,0,0,0,25.41,23.93A7,7,0,0,1,4858.86,2930.09Zm-49-52.23a7.27,7.27,0,0,1-1.92,8.73,6.53,6.53,0,0,1-9.43-1.32,309.44,309.44,0,0,1-20-31.21,7.3,7.3,0,0,1,2.4-9.66,6.56,6.56,0,0,1,9.2,2.53,292.4,292.4,0,0,0,19.07,29.77A7.17,7.17,0,0,1,4809.86,2877.86ZM4762.6,2780a7,7,0,0,1,.44,1.16,302.31,302.31,0,0,0,9.89,29.41c.57,1.46,1.14,2.89,1.74,4.31a7.2,7.2,0,0,1-3.49,9.28,6.56,6.56,0,0,1-8.85-3.68c-.62-1.52-1.23-3-1.83-4.57a318.28,318.28,0,0,1-10.36-30.8,7.1,7.1,0,0,1,4.55-8.75A6.6,6.6,0,0,1,4762.6,2780Z" transform="translate(-4115.66 -229.82)"/></g><g class="cls-34"><path class="cls-44" d="M5286.76,2561.05a7.21,7.21,0,0,1-2.94,9.41,6.57,6.57,0,0,1-9-3.07,296.63,296.63,0,0,0-17.12-30.36,7.32,7.32,0,0,1,1.79-9.8,6.54,6.54,0,0,1,9.34,1.9,311.81,311.81,0,0,1,17.94,31.83Zm13.86,33.09c.11.23.2.46.29.7a322.43,322.43,0,0,1,10.22,35.39,7.07,7.07,0,0,1-5,8.5,6.75,6.75,0,0,1-8.1-5.24,307.63,307.63,0,0,0-9.76-33.78,7.15,7.15,0,0,1,4-9.06A6.61,6.61,0,0,1,5300.62,2594.14Zm-52.38-92.83a7.31,7.31,0,0,1-1.6,8.45,6.5,6.5,0,0,1-9.48-.69,288.25,288.25,0,0,0-23.6-25.14,7.3,7.3,0,0,1-.51-10,6.5,6.5,0,0,1,9.49-.53,302.78,302.78,0,0,1,24.73,26.36A7.6,7.6,0,0,1,5248.24,2501.31Zm68.3,163a7.6,7.6,0,0,1,.67,2.35,318.93,318.93,0,0,1,1.79,36.94,6.73,6.73,0,1,1-13.44-.17,304.6,304.6,0,0,0-1.71-35.22,7,7,0,0,1,5.93-7.79A6.67,6.67,0,0,1,5316.54,2664.33Zm-119.41-211.24a7.35,7.35,0,0,1-.51,7.19,6.5,6.5,0,0,1-9.35,1.73,276.27,276.27,0,0,0-28.64-18.45,7.24,7.24,0,0,1-2.79-9.55,6.56,6.56,0,0,1,9.09-2.91,290.58,290.58,0,0,1,30,19.35A7.07,7.07,0,0,1,5197.13,2453.09Zm-60.61-34a7.38,7.38,0,0,1,.26,5.68,6.61,6.61,0,0,1-8.69,4,270.18,270.18,0,0,0-32-10.74,7.12,7.12,0,0,1-4.87-8.59,6.66,6.66,0,0,1,8.15-5.09,284.77,284.77,0,0,1,33.55,11.25A6.9,6.9,0,0,1,5136.52,2419.13ZM5070,2401.38a7.25,7.25,0,0,1,.64,4,6.76,6.76,0,0,1-7.51,6.1,261.35,261.35,0,0,0-33.5-2.36,7.07,7.07,0,0,1,.05-14.12,276.09,276.09,0,0,1,35.14,2.48A6.75,6.75,0,0,1,5070,2401.38Z" transform="translate(-4115.66 -229.82)"/><path class="cls-45" d="M5315.82,2736.76a7.29,7.29,0,0,1,.64,4.08c-.76,6-1.7,12-2.78,17.8a6.73,6.73,0,0,1-7.88,5.57,7.1,7.1,0,0,1-5.31-8.3c1-5.55,1.92-11.27,2.65-17a6.64,6.64,0,0,1,12.68-2.17Z" transform="translate(-4115.66 -229.82)"/></g><path class="cls-46" d="M5235.6,2771.94a3.7,3.7,0,0,0-.76-4.07l-30.12-29.94a199.27,199.27,0,0,0,1.88-61.36l31.84-27.7a3.66,3.66,0,0,0,1-4L5221.91,2596a3.41,3.41,0,0,0-3.28-2.32l-41.38,1.15a186.87,186.87,0,0,0-40-44.86l3.82-43.31a3.6,3.6,0,0,0-2-3.59l-45.28-21.61a3.27,3.27,0,0,0-3.87.8l-28.44,31.56a172,172,0,0,0-58.42-2.12l-26.45-33.52a3.31,3.31,0,0,0-3.81-1.07l-46.49,18.31a3.57,3.57,0,0,0-2.2,3.44l1.19,43.46a184,184,0,0,0-42.61,41.92l-41.25-4.12a3.38,3.38,0,0,0-3.41,2.08l-20.46,47.5a3.71,3.71,0,0,0,.76,4.07l30.12,29.94a199,199,0,0,0-1.88,61.36l-31.85,27.7a3.69,3.69,0,0,0-1,4l17.55,48.87a3.41,3.41,0,0,0,3.28,2.32l41.38-1.15a186.66,186.66,0,0,0,40,44.86l-3.82,43.31a3.6,3.6,0,0,0,2,3.59l45.28,21.61a3.27,3.27,0,0,0,3.87-.8l28.43-31.56a172,172,0,0,0,58.43,2.12l26.44,33.52a3.33,3.33,0,0,0,3.82,1.07l46.49-18.31a3.59,3.59,0,0,0,2.2-3.44l-1.2-43.46a184,184,0,0,0,42.62-41.92l41.24,4.12a3.38,3.38,0,0,0,3.42-2.08Z" transform="translate(-4115.66 -229.82)"/><path class="cls-41" d="M5072.16,2677.24a55.42,55.42,0,0,1,4.47,33.12,53.16,53.16,0,0,1-21,34.35c-23,16.77-54.74,10.72-70.76-13.48s-10.33-57.54,12.67-74.3a48.5,48.5,0,0,1,38-8.65,50.48,50.48,0,0,1,32.76,22.14A54.63,54.63,0,0,1,5072.16,2677.24Zm-79.06,41a40.12,40.12,0,0,0,2.8,5c11.78,17.8,35.13,22.25,52.06,9.92a39.15,39.15,0,0,0,15.44-25.27,40.68,40.68,0,0,0-6.12-29.38h0a37.19,37.19,0,0,0-24.09-16.29,35.75,35.75,0,0,0-28,6.36C4989.83,2679.75,4985,2701.06,4993.1,2718.22Z" transform="translate(-4115.66 -229.82)"/><path class="cls-41" d="M5138.9,2641.38q2.84,6,5.14,12.41a139.17,139.17,0,0,1,6.63,26.2l.17,1.21a7.11,7.11,0,0,1-3.64,7.35,6.51,6.51,0,0,1-2,.66,6.81,6.81,0,0,1-7.64-6,123.67,123.67,0,0,0-6.08-24.5h0l-.48-1.3a118.13,118.13,0,0,0-32.15-47.49,113.24,113.24,0,0,0-25.71-17.25l-.22-.12-.7-.33a107.49,107.49,0,0,0-86.57-3.11A111.87,111.87,0,0,0,4975,2594c-23.24,12.09-41.64,32.06-52.49,57.22a123.53,123.53,0,0,0-2.75,90.91c10.68,29.71,31.72,53.34,59.26,66.49a107.49,107.49,0,0,0,86.57,3.12,112.25,112.25,0,0,0,48.7-37.19,6.91,6.91,0,0,1,2.27-1.93,6.47,6.47,0,0,1,7.17.81,7.3,7.3,0,0,1,1.1,9.92,127.28,127.28,0,0,1-42.7,36.23,122.85,122.85,0,0,1-11.79,5.38,120.27,120.27,0,0,1-96.85-3.49c-30.82-14.7-54.38-41.09-66.3-74.38a138.09,138.09,0,0,1,3.08-101.71c12.12-28.15,32.71-50.49,58.72-64a123.89,123.89,0,0,1,11.94-5.44C5042.15,2551.8,5110.33,2581,5138.9,2641.38Z" transform="translate(-4115.66 -229.82)"/></g></svg>